<?xml version="1.0" encoding="UTF-8"?><svg id="uuid-b9c5b66e-1dcf-4f35-a6de-f0eea898f8b5" xmlns="http://www.w3.org/2000/svg" xmlns:xlink="http://www.w3.org/1999/xlink" viewBox="0 0 960 240"><defs><style>.uuid-a5a73566-0c4c-4760-baf4-9a4eb4a27a5d{fill:url(#uuid-9b18483a-d5e4-40a9-9d1a-bcd6ddaa69bf);}.uuid-a5a73566-0c4c-4760-baf4-9a4eb4a27a5d,.uuid-d361cb64-c35c-4b55-9598-3fa1987d2b83,.uuid-b421795e-3683-4847-a044-23eee77891d0,.uuid-65abf414-d08e-475c-9308-a7a9164ca173,.uuid-f574127d-fddb-4c60-9358-8fda8bec1cf1{stroke-width:0px;}.uuid-d361cb64-c35c-4b55-9598-3fa1987d2b83{fill:#808285;}.uuid-b421795e-3683-4847-a044-23eee77891d0{fill:url(#uuid-8d37190e-df61-4e65-8618-390dffc4e9ac);}.uuid-65abf414-d08e-475c-9308-a7a9164ca173{fill:#010f2e;}.uuid-f574127d-fddb-4c60-9358-8fda8bec1cf1{fill:#fff;}</style><linearGradient id="uuid-8d37190e-df61-4e65-8618-390dffc4e9ac" x1="305.23584" y1="212.92383" x2="305.23584" y2="110.43311" gradientUnits="userSpaceOnUse"><stop offset="0" stop-color="#00459d"/><stop offset=".16367" stop-color="#00599e"/><stop offset=".53095" stop-color="#0081a2"/><stop offset=".82249" stop-color="#0099a5"/><stop offset="1" stop-color="#00a3a6"/></linearGradient><linearGradient id="uuid-9b18483a-d5e4-40a9-9d1a-bcd6ddaa69bf" x1="382.93091" x2="382.93091" xlink:href="#uuid-8d37190e-df61-4e65-8618-390dffc4e9ac"/></defs><g id="uuid-0f2fe3f4-5134-4be0-9549-900b2c6e2ba9"><path class="uuid-65abf414-d08e-475c-9308-a7a9164ca173" d="M321.5127,216.5c-.30664,0-.62012-.04004-.93164-.11719l-11.58105-4.62012c-1.78564-.8291-3.32031-1.5127-4.66016-2.11035-7.60693-3.39258-9.18994-4.09863-10.04248-10.67871-1.44385-11.14062-1.39941-16.1709.15723-17.94238.44336-.50488,1.01855-.75977,1.70996-.75977.93652,0,2.09131.45898,3.74414,1.49023,3.73389,2.32715,18.14111,11.81543,20.40918,15.70117,1.23047,2.10742,3.44238,9.53418,4.52441,14.5166.26172,1.20605.00879,2.39844-.69434,3.27051-.64062.79395-1.60059,1.25-2.63525,1.25Z"/><path class="uuid-f574127d-fddb-4c60-9358-8fda8bec1cf1" d="M296.16467,180.77109c.90927-.00021,2.07111.53639,3.47937,1.41452,3.65405,2.2785,18.04343,11.76263,20.24213,15.52942,1.16409,1.99431,3.37469,9.33826,4.46747,14.37103.46698,2.15082-.92783,3.91394-2.8403,3.91394-.26169,0-.53287-.03297-.81052-.10249l-11.5174-4.59854c-11.68961-5.4334-13.43048-4.96771-14.39227-12.38959-1.77014-13.65964-1.25452-18.13765,1.37152-18.13829M296.16519,179.77109h-.00024c-.82986.0002-1.55118.32207-2.086.93079-1.68576,1.91879-1.76099,6.88837-.2775,18.33601.88882,6.85883,2.70236,7.66756,10.33508,11.07124,1.34595.6002,2.87146,1.28049,4.62738,2.09666.01669.00775.0336.01505.05069.02188l11.5174,4.59854c.04166.01663.08441.03046.12793.04134.35095.08789.70535.13245,1.05341.13245,1.18585,0,2.28784-.52328,3.02341-1.43568.79877-.9908,1.08823-2.33592.79413-3.69043-1.08957-5.01808-3.32803-12.51631-4.58105-14.66296-2.67285-4.5791-20.39883-15.76297-20.57666-15.87386-1.73682-1.08302-2.97293-1.56598-4.00797-1.56598h0Z"/><path class="uuid-65abf414-d08e-475c-9308-a7a9164ca173" d="M278.54199,157.75977c-2.13086,0-5.76172-1.36035-12.1416-4.55078-4.6875-2.34375-4.69678-3.7959-4.74219-10.77246-.00781-1.21777-.0166-2.6123-.05176-4.21973l.33203-10.36426c.26904-1.68848,1.58545-2.86816,3.13672-2.86816.57178,0,1.14062.16699,1.64453.48242,3.35742,2.09961,8.17139,5.71582,9.3457,7.23047,2.45508,3.16895,5.02148,20.07129,5.04541,20.24023.30029,2.07422.15039,3.28027-.50098,4.0332-.4541.52344-1.14941.78906-2.06787.78906h0Z"/><path class="uuid-f574127d-fddb-4c60-9358-8fda8bec1cf1" d="M265.07526,125.48498c.46146,0,.93552.1282,1.37933.40575,3.38077,2.11417,8.11371,5.69152,9.21567,7.1135,2.08133,2.68578,4.44293,16.52284,4.9462,20.00462.38879,2.68977.0806,4.2515-2.07431,4.2515-2.02481,0-5.68015-1.37971-11.918-4.49886-5.19693-2.59863-4.28513-3.87491-4.51752-14.55582l.33136-10.33743c.2345-1.44913,1.39087-2.38327,2.63727-2.38327M265.07526,124.48498c-1.79788,0-3.32217,1.35569-3.62442,3.22353-.00687.04226-.01099.08491-.01233.1277l-.33136,10.33742c-.00058.01793-.00067.03586-.00027.05379.03491,1.60512.04388,2.99706.05173,4.21251.04446,6.88454.05643,8.73488,5.01831,11.21599,6.45441,3.2274,10.1524,4.60443,12.36523,4.60443,1.06985,0,1.89276-.32388,2.44583-.96266.95056-1.09781.84592-2.8564.61819-4.43188-.0246-.17007-2.57367-17.15541-5.14548-20.47412-1.20502-1.55498-6.08331-5.22726-9.47589-7.34882-.58362-.36497-1.24393-.55788-1.90955-.55788h0Z"/><path class="uuid-65abf414-d08e-475c-9308-a7a9164ca173" d="M366.65381,216.5c-1.03418,0-1.99463-.45605-2.63477-1.25-.70312-.87207-.95655-2.06445-.69482-3.27051,1.08203-4.98242,3.29395-12.40918,4.52441-14.5166,2.26709-3.88379,16.6748-13.37305,20.40918-15.70117,1.65332-1.03125,2.80762-1.49023,3.74414-1.49023.69141,0,1.26709.25488,1.70996.75977,1.55664,1.77148,1.60107,6.80176.15723,17.94238-.85254,6.58008-2.43555,7.28613-10.04248,10.67871-1.33984.59766-2.87451,1.28125-4.63477,2.09961l-11.54248,4.60938c-.37549.09863-.68896.13867-.99561.13867h0Z"/><path class="uuid-f574127d-fddb-4c60-9358-8fda8bec1cf1" d="M392.00195,180.77109c2.62601,0,3.14163,4.47865,1.37149,18.13829-.96179,7.42188-2.70264,6.95619-14.39227,12.38959l-11.5174,4.59854c-.27762.06952-.54883.10249-.81049.10249-1.91248,0-3.30731-1.76312-2.8403-3.91394,1.09274-5.03278,3.30338-12.37672,4.46747-14.37103,2.1987-3.76678,16.58804-13.25092,20.2421-15.52942,1.40826-.87813,2.5701-1.41452,3.4794-1.41452M392.00195,179.77109c-1.03543,0-2.2717.48296-4.00851,1.56598-.17783.11089-17.90375,11.29472-20.57663,15.87386-1.25308,2.14676-3.49152,9.64496-4.58105,14.66296-.2941,1.35448-.00467,2.6996.7941,3.6904.73557.91241,1.83755,1.43571,3.02344,1.43571.34802,0,.70242-.04456,1.05341-.13245.04349-.01089.08624-.0247.1279-.04134l11.5174-4.59854c.01709-.00684.034-.01413.05069-.02188,1.75592-.81616,3.28143-1.49644,4.62735-2.09665,7.63275-3.4037,9.44629-4.21242,10.33511-11.07124,1.48358-11.44843,1.40836-16.41815-.27753-18.33661-.53476-.60855-1.25598-.93021-2.08566-.93021h0Z"/><path class="uuid-65abf414-d08e-475c-9308-a7a9164ca173" d="M336.52734,129.40234c-.07031,0-.14111-.01465-.20703-.04492-15.05127-6.84473-51.5459-18.61816-51.91309-18.73633-.20654-.06689-.34668-.25879-.34668-.47607v-6.44824c0-.16113.07764-.3125.2085-.40625.08594-.06201.18848-.09375.2915-.09375.05371,0,.10791.00879.16016.02637,25.73486,8.70898,51.80029,24.021,52.06104,24.17432.15234.08984.24561.25391.24561.43066v1.07422c0,.16992-.08643.32812-.22949.4209-.08203.05273-.17578.0791-.27051.0791Z"/><path class="uuid-f574127d-fddb-4c60-9358-8fda8bec1cf1" d="M284.56049,103.69684c25.98343,8.79269,51.96686,24.13092,51.96686,24.13092v1.07471c-15.25171-6.93645-51.96686-18.75769-51.96686-18.75769v-6.44794M284.56055,102.69683c-.20651,0-.4108.06397-.58292.18744-.26184.18784-.41714.49033-.41714.81257v6.44794c0,.4342.28021.81879.69351.95187.36661.11804,36.83484,11.88297,51.85934,18.71609.13202.06004.27325.08972.41394.08972.18915,0,.37741-.05362.54135-.15918.28592-.18405.45871-.50078.45871-.84082v-1.07471c0-.35381-.18698-.68129-.49164-.86115-.26074-.15392-26.37112-15.49196-52.15469-24.217-.10458-.03539-.21283-.05278-.32047-.05278h0Z"/><path class="uuid-b421795e-3683-4847-a044-23eee77891d0" d="M341.43311,212.92383c-.06396,0-.12793-.0127-.18896-.03711l-12.13281-4.95117c-.14258-.05859-.25049-.17871-.29248-.32715-1.72266-6.11816-3.35645-10.88379-4.26318-12.43848-3.1665-5.42383-22.36279-18.67676-28.55713-20.96289-1.40137-.51758-2.53662-.76855-3.46973-.76855-1.02539,0-1.81543.3125-2.41455.95605-1.74268,1.87109-2.19629,6.72559-1.51807,16.23145.0127.17188-.06543.33887-.20557.44043-.08691.0625-.18945.09473-.29297.09473-.06445,0-.12891-.0127-.19043-.03809l-.09717-.04004c-1.50879-.59082-3.26172-1.30566-5.20215-2.12207-5.55762-2.33691-11.67969-5.08691-13.77881-6.05469-.17773-.08203-.2915-.26074-.29053-.45605l.09326-22.92285c.00049-.16797.08594-.3252.22656-.41699.08252-.05371.17773-.08105.27344-.08105.06787,0,.13574.01367.19971.04199,5.96924,2.59863,9.67578,3.75684,12.01758,3.75684,2.60693,0,3.70312-1.39941,3.91016-4.99023.31641-5.50195-3.26416-24.06152-6.24902-27.91406-1.021-1.31738-5.13721-4.60742-10.00879-8.00098-.13477-.09375-.21484-.24805-.21436-.41211l.04297-10.57959c.00049-.15918.07715-.30908.20605-.40234.08643-.06299.18945-.0957.29395-.0957.05127,0,.10254.00781.15234.02393,23.38477,7.48535,48.21729,15.61328,72.14014,25.41016.18799.07715.31055.25977.31055.46289v76.09375c0,.16699-.08301.32227-.22119.41504-.0835.05664-.18066.08496-.27881.08496Z"/><path class="uuid-f574127d-fddb-4c60-9358-8fda8bec1cf1" d="M269.33032,110.93324c24.27365,7.76971,48.52402,15.74095,72.10303,25.39657v76.09383l-12.13309-4.95062c-1.55008-5.5049-3.27863-10.78281-4.3129-12.55475-3.19421-5.47232-22.48141-18.84236-28.8157-21.18002-1.41205-.52112-2.61987-.79971-3.64288-.79971-4.32849,0-5.34006,4.99129-4.43112,17.72263l-.09726-.03966c-1.61954-.63527-3.39456-1.36282-5.19858-2.12115l-.03088-.01262.00034-.00027c-5.91098-2.48538-12.07642-5.27161-13.73294-6.03496l.0936-22.92302c5.74829,2.50224,9.6463,3.79881,12.21719,3.79881,3.00516,0,4.19687-1.77213,4.40912-5.46176.32434-5.63811-3.32935-24.3472-6.35303-28.24907-1.17874-1.52103-5.80112-5.09744-10.11807-8.10497l.04318-10.57925M269.33038,109.93324c-.20871,0-.41498.06534-.58798.19108-.25772.18731-.41077.48623-.41208.80485l-.04315,10.57925c-.00137.32854.15878.63678.42834.82458,4.75964,3.31593,8.92288,6.6371,9.89926,7.89702,2.86105,3.692,6.45023,22.27493,6.14511,27.57907-.21744,3.77972-1.41525,4.5192-3.41077,4.5192-2.26984,0-5.91467-1.14597-11.81805-3.7157-.12784-.05565-.26373-.08311-.39908-.08311-.19125,0-.38147.05482-.54648.16248-.28174.18384-.45218.49702-.45355.83345l-.0936,22.92302c-.00162.39174.22568.74834.58145.91229,1.68024.77428,7.8154,3.54744,13.76385,6.04857,1.97388.82977,3.73044,1.54649,5.25156,2.14316l.08496.03473c.1217.04962.24988.07399.37738.07399.20779,0,.41382-.06474.58722-.19051.27979-.20293.43494-.53596.41034-.88071-.66776-9.35309-.2536-14.09448,1.3848-15.85403.50656-.54401,1.15759-.79738,2.04886-.79738.87296,0,1.95129.24136,3.29666.73787,5.98331,2.20811,25.2514,15.52609,28.29828,20.74597.88715,1.51984,2.50183,6.24124,4.21396,12.32169.08359.29675.29935.53838.58481.65485l12.13309,4.95064c.12167.04964.24997.0741.37769.0741.19595,0,.3905-.05754.55786-.17.27643-.18576.44223-.49695.44223-.83v-76.09383c0-.40591-.24539-.77158-.62106-.92542-23.94904-9.80714-48.78812-17.93701-72.17712-25.42355-.09976-.03193-.20258-.0476-.30478-.0476h0Z"/><path class="uuid-65abf414-d08e-475c-9308-a7a9164ca173" d="M351.63916,129.40234c-.09473,0-.18848-.02637-.27051-.0791-.14307-.09277-.22949-.25098-.22949-.4209v-1.07422c0-.17676.09326-.34082.24561-.43066.26074-.15332,26.32617-15.46533,52.06104-24.17432.05225-.01758.10645-.02637.16016-.02637.10303,0,.20557.03174.2915.09375.13086.09375.2085.24512.2085.40625v6.44824c0,.21729-.14014.40918-.34668.47607-.36719.11816-36.86182,11.8916-51.91309,18.73633-.06592.03027-.13672.04492-.20703.04492Z"/><path class="uuid-f574127d-fddb-4c60-9358-8fda8bec1cf1" d="M403.60611,103.69684v6.44794s-36.71512,11.82124-51.96683,18.75769v-1.07471s25.98343-15.33823,51.96683-24.13092M403.60605,102.69683c-.10767,0-.21588.01738-.32047.05278-25.78354,8.72504-51.89392,24.06309-52.15466,24.217-.30466.17986-.49164.50733-.49164.86115v1.07471c0,.34004.17279.65677.45871.84082.16394.10555.3522.15918.54135.15918.14072,0,.28189-.02968.41394-.08972,15.02451-6.83312,51.49271-18.59805,51.85931-18.71609.4133-.13308.69351-.51767.69351-.95187v-6.44794c0-.32224-.1553-.62473-.41714-.81257-.17209-.12346-.37643-.18744-.58292-.18744h0Z"/><path class="uuid-a5a73566-0c4c-4760-baf4-9a4eb4a27a5d" d="M346.7334,212.92383c-.09814,0-.19531-.02832-.27881-.08496-.13818-.09277-.22119-.24805-.22119-.41504v-76.09375c0-.20312.12256-.38574.31055-.46289,23.92529-9.79785,48.75684-17.92529,72.14014-25.41016.0498-.01611.10107-.02393.15234-.02393.10449,0,.20752.03271.29395.0957.12891.09326.20557.24316.20605.40234l.04297,10.57959c.00049.16406-.07959.31836-.21436.41211-4.87158,3.39355-8.98779,6.68359-10.00879,8.00098-2.98486,3.85254-6.56543,22.41211-6.24902,27.91406.20703,3.59082,1.30322,4.99023,3.91016,4.99023,2.3418,0,6.04834-1.1582,12.01758-3.75684.06396-.02832.13184-.04199.19971-.04199.0957,0,.19092.02734.27344.08105.14062.0918.22607.24902.22656.41699l.09375,22.92285c.00098.19531-.11279.37402-.29053.45605-1.67334.77148-7.79053,3.53711-13.74854,6.04199-1.97119.8291-3.72412,1.54395-5.24072,2.13867l-.08936.03613c-.06152.02539-.12598.03809-.19043.03809-.10352,0-.20605-.03223-.29297-.09473-.14014-.10156-.21826-.26855-.20557-.44043.67871-9.50586.2251-14.36035-1.51709-16.23047-.59912-.64453-1.38916-.95703-2.41504-.95703-.93311,0-2.06836.25098-3.46973.76855-6.19434,2.28613-25.39062,15.53906-28.55762,20.96289-.90674,1.55469-2.54053,6.32031-4.26318,12.43848-.04199.14844-.1499.26855-.29248.32715l-12.13281,4.95117c-.06104.02441-.125.03711-.18896.03711Z"/><path class="uuid-f574127d-fddb-4c60-9358-8fda8bec1cf1" d="M418.8363,110.93324l.04318,10.57925c-4.31696,3.00752-8.93933,6.58394-10.11807,8.10497-3.02371,3.90187-6.67737,22.61096-6.35306,28.24907.21228,3.69005,1.40323,5.46176,4.40915,5.46176,2.57089,0,6.46964-1.29691,12.21716-3.79881l.09363,22.92302c-1.65652.76335-7.82199,3.54958-13.73294,6.03496l.00034.00027-.03088.01262c-1.80405.75833-3.57904,1.48589-5.19861,2.12115l-.09723.03966c.909-12.7323-.10181-17.72263-4.43112-17.72263-1.0228,0-2.23126.27875-3.64288.79971-6.33429,2.33766-25.62149,15.7077-28.81573,21.18002-1.03424,1.77194-2.76279,7.04985-4.31287,12.55475l-12.13309,4.95062v-76.09383c23.57901-9.65562,47.82935-17.62686,72.10303-25.39657M418.83624,109.93324c-.10223,0-.20502.01567-.30478.0476-23.38892,7.4865-48.22791,15.61633-72.17712,25.42355-.37567.15384-.62106.5195-.62106.92542v76.09383c0,.33305.1658.64424.44223.83.16733.11246.36194.17.55786.17.12772,0,.25601-.02444.37769-.0741l12.13309-4.95064c.28546-.11647.50122-.35809.58481-.65485,1.71213-6.08041,3.32681-10.80182,4.21393-12.3217,3.04691-5.21986,22.31503-18.53784,28.29831-20.74596,1.34537-.49651,2.42371-.73787,3.29666-.73787.8916,0,1.54282.25339,2.04941.79744,1.63806,1.75916,2.05203,6.50052,1.38425,15.85397-.0246.34477.13058.67781.4104.88074.17337.12575.37939.19048.58716.19048.12756,0,.25574-.02438.37747-.07402l.09723-.03964c1.50812-.59148,3.26471-1.30818,5.20856-2.12529,5.98148-2.51506,12.11499-5.28755,13.79449-6.06149.35577-.16396.58307-.52055.58145-.91229l-.09363-22.92302c-.00137-.33643-.17181-.64961-.45355-.83345-.16501-.10764-.35522-.16248-.54648-.16248-.13538,0-.27124.02747-.39908.08311-5.90335,2.56973-9.54819,3.7157-11.81802,3.7157-1.99551,0-3.19336-.73947-3.4108-4.5192-.30511-5.30418,3.28409-23.88713,6.14514-27.57909.97638-1.2599,5.13962-4.58107,9.89926-7.897.26956-.18781.42972-.49605.42834-.82458l-.04315-10.57925c-.00131-.31862-.15436-.61754-.41208-.80485-.173-.12573-.3793-.19108-.58798-.19108h0Z"/><path class="uuid-65abf414-d08e-475c-9308-a7a9164ca173" d="M409.62451,157.75977c-.91797,0-1.61377-.26562-2.06787-.79004-.65137-.75195-.80127-1.95801-.50098-4.03223.02393-.16895,2.59033-17.07129,5.04492-20.24023,1.1748-1.51465,5.98877-5.13086,9.34619-7.23047.50391-.31543,1.07275-.48242,1.64453-.48242,1.55127,0,2.86768,1.17969,3.13086,2.80371l.3374,10.40234c-.03467,1.63379-.04346,3.02832-.05127,4.24609-.04541,6.97656-.05469,8.42871-4.74219,10.77246-6.37988,3.19043-10.01123,4.55078-12.1416,4.55078Z"/><path class="uuid-f574127d-fddb-4c60-9358-8fda8bec1cf1" d="M423.09137,125.48498c1.2464-.00015,2.40277.93414,2.63724,2.38327l.33139,10.33743c-.23239,10.68091.67938,11.95718-4.51752,14.55582-6.23788,3.11914-9.89322,4.49886-11.918,4.49886-2.15491,0-2.4631-1.56172-2.07431-4.2515.50327-3.48178,2.86484-17.31885,4.94617-20.00462,1.10196-1.42198,5.83493-4.99933,9.2157-7.1135.44382-.27754.91788-.40569,1.37933-.40575M423.09171,124.48498h-.00012c-.66586.00008-1.32626.19299-1.90976.55788-3.39258,2.12157-8.2709,5.79385-9.47592,7.34883-2.57178,3.31865-5.12085,20.30403-5.14545,20.47409-.22772,1.5755-.33237,3.33409.61816,4.4319.5531.63878,1.37601.96266,2.44586.96266,2.2128,0,5.91083-1.37703,12.36523-4.60443,4.96188-2.48112,4.97385-4.3315,5.01831-11.21611.00784-1.21542.01682-2.60733.05173-4.21239.0004-.01793.00031-.03587-.00027-.05379l-.33139-10.33742c-.00134-.04278-.00546-.08543-.01233-.12769-.30222-1.86785-1.82635-3.22354-3.62405-3.22354h0Z"/><path class="uuid-65abf414-d08e-475c-9308-a7a9164ca173" d="M348.37939,53.68701c-.08252,0-.16504-.02051-.23975-.06104l-8.55518-4.67432c-.17871-.09766-.28027-.29443-.25684-.49658l2.71631-23.39893c.10596-.91602.82959-1.55615,1.75928-1.55615.92773,0,1.65137.63867,1.75927,1.55273l3.31349,28.07568c.02197.18555-.06152.36816-.2168.47314-.08398.05664-.18164.08545-.27979.08545Z"/><path class="uuid-f574127d-fddb-4c60-9358-8fda8bec1cf1" d="M343.80328,24c.58743,0,1.17502.37042,1.26248,1.11146l3.31345,28.07551-8.55493-4.67411,2.71606-23.39903c.08615-.74248.67447-1.11383,1.26294-1.11383M343.80328,23c-1.173,0-2.12192.84052-2.25629,1.99857l-2.71606,23.39899c-.04697.40473.15631.7975.51389.99286l8.55493,4.67411c.14984.08187.31485.12244.4794.12244.19598,0,.39133-.05752.55984-.17135.31-.20941.47717-.57434.43332-.94586l-3.31345-28.07551c-.13855-1.17418-1.0661-1.99425-2.25558-1.99425h0Z"/><path class="uuid-65abf414-d08e-475c-9308-a7a9164ca173" d="M350.93115,75.30811c-.08154,0-.1626-.02002-.2373-.05957l-13.32617-7.17725c-.18018-.09717-.2832-.29443-.25928-.49805l1.64844-14.19824c.01904-.16504.11914-.31006.26709-.38672.07178-.03711.15088-.05566.22949-.05566.08252,0,.16504.02051.23975.06152l9.78662,5.35352c.14209.07764.23779.21924.25684.37988l1.89111,16.02197c.02197.18506-.06104.36719-.21533.47217-.08447.05713-.18262.08643-.28125.08643Z"/><path class="uuid-f574127d-fddb-4c60-9358-8fda8bec1cf1" d="M339.2532,53.43251l9.78687,5.35339,1.89087,16.02236-13.32587-7.17715,1.64813-14.19859M339.2532,52.43251c-.15759,0-.31525.03721-.45944.11179-.29541.15282-.49554.44252-.53387.77292l-1.64813,14.19859c-.04724.40691.15848.80148.51913.99572l13.32587,7.17716c.1485.07998.31152.11958.47412.11958.19699,0,.39331-.05814.56232-.17303.30847-.20973.47458-.57372.43085-.94416l-1.89087-16.02236c-.03793-.32151-.22919-.60476-.51321-.76013l-9.78687-5.35339c-.14938-.08172-.31461-.12268-.47989-.12268h0Z"/><path class="uuid-65abf414-d08e-475c-9308-a7a9164ca173" d="M344.02979,125.9043c-.08643,0-.17334-.02246-.25049-.06738l-1.40381-.81348c-6.3877-3.68262-22.55469-12.75342-34.66602-17.41553-.21143-.08154-.3418-.29492-.31738-.52051.29834-2.76611.65039-5.23975,1.07471-7.54688-1.76855-.85889-3.33398-1.60059-4.71777-2.25635-8.11621-3.84619-10.29736-4.88037-10.42432-9.46582-.00879-.33154-.02637-.80713-.04834-1.396-.33252-8.99658-.4668-19.5791,1.46191-21.58057.33496-.34814.68506-.4209.91943-.4209.15381,0,.31104.03027.46729.09082.14551.05615,14.65674,5.77832,18.3999,11.29932.80469,1.18799,1.52295,2.26514,2.17188,3.2373,3.45459,5.17969,4.88477,7.32373,6.78662,7.32373h.00098c1.35547,0,3.1543-1.01074,6.13428-2.68555.66602-.37402,1.39014-.78076,2.18262-1.21777.04297-.02393.08936-.04053.13622-.05078l3.66895-1.90576.91748-7.90381c.01904-.16504.11914-.31006.26709-.38672.07178-.03711.15088-.05566.22949-.05566.08252,0,.16504.02051.23975.06152l14.6001,7.98633c.02637.01416.05078.03027.07324.04883l4.15527,2.1582c.04736.00977.09326.02686.13672.05127.71973.41016,1.3833.79443,1.99854,1.1499,3.13818,1.81445,5.03223,2.90967,6.40137,2.90918,1.78662,0,3.06592-1.94434,6.15723-6.64209.78125-1.1875,1.67285-2.54297,2.71338-4.07812,2.14111-3.1582,8.18799-6.60889,17.97266-10.25488l.6333-.23779c.16016-.06201.3208-.09326.47803-.09326.23682,0,.58936.07373.92529.42432,1.81445,1.896,1.65771,11.32568,1.26514,20.2998-.03516.80518-.06348,1.44824-.07471,1.86914-.12646,4.58594-2.30811,5.61963-10.4248,9.46582-1.38379.65576-2.94873,1.39746-4.71729,2.25635.42383,2.30225.77588,4.77588,1.07471,7.54688.02441.22559-.10596.43896-.31738.52051-12.11572,4.66406-28.2793,13.73291-34.66602,17.4165l-1.35938.80957c-.07861.04688-.16748.07031-.25586.07031ZM377.9209,92.04395c.15381.73877.5249,1.43262.76514,1.82666,4.88672-2.23389,7.9209-4.11084,9.31201-5.04346.53223-.35742.90283-.9082,1.04248-1.55176,1.09912-5.05469.57764-12.8042.38574-15.12158-5.28467,2.24805-8.74121,4.28955-10.01416,5.91846-1.21533,1.55469-1.97314,2.63623-2.36865,3.22461,1.86133-.10986,6.84375-2.90137,8.64209-3.99023.07959-.04834.16895-.07227.25879-.07227.08936,0,.17871.02393.2583.07178.15918.09619.25195.27197.24072.45752-.06445,1.09961-.07129,2.13037-.07764,3.12793-.01855,2.89697-.0332,5.18506-1.49219,6.61816-2.5332,2.48926-5.84912,4.05469-6.95264,4.53418ZM298.67676,72.15381c-.19189,2.31738-.71338,10.06689.38573,15.12158.13966.64355.51026,1.19434,1.04249,1.55176,1.39111.93262,4.42529,2.80957,9.31201,5.04346.24023-.39404.61133-1.08789.76514-1.82666-1.10352-.47949-4.41943-2.04492-6.95264-4.53418-1.45898-1.43311-1.47363-3.72119-1.49219-6.61816-.00635-.99756-.01318-2.02832-.07764-3.12793-.01123-.18555.08154-.36133.24072-.45752.07959-.04785.16895-.07178.2583-.07178.08984,0,.1792.02393.25879.07227,1.79834,1.08887,6.78076,3.88037,8.64209,3.99072-.39551-.58887-1.15332-1.67041-2.36865-3.2251-1.27295-1.62891-4.72949-3.67041-10.01416-5.91846Z"/><path class="uuid-f574127d-fddb-4c60-9358-8fda8bec1cf1" d="M295.65747,64.921c.09174.00006.18781.0188.28738.05726,1.93961.74917,14.76605,6.09792,18.16595,11.11368,5.24567,7.73865,6.81064,10.78033,9.37354,10.78033,1.80835,0,4.11395-1.51583,8.55829-3.96535-.00104.00728-.00104.01368-.00201.02097l4.03201-2.09449.94806-8.16751,14.60004,7.98624.0014.01192,4.35806,2.26383c-.00095-.00729-.00095-.01369-.00201-.02097,4.53589,2.58599,6.8609,4.12453,8.64709,4.12453,2.56094,0,4.01398-3.1638,9.28482-10.93951,3.3999-5.01575,16.43268-9.55833,18.37231-10.30751.10382-.0401.20273-.05949.29764-.05949,2.93088,0,1.71219,18.59477,1.61584,22.07982-.13943,5.0517-2.70721,5.36829-15.20346,11.45243.50214,2.65775.85825,5.27963,1.13904,7.88372-12.28378,4.729-28.85248,14.05731-34.73651,17.44968l-1.36511.81335-1.40399-.81335c-5.88394-3.39236-22.45273-12.72067-34.73651-17.44968.28079-2.60409.63684-5.22597,1.13898-7.88372-12.49609-6.08414-15.06387-6.40073-15.2034-11.45243-.09644-3.48966-1.12491-22.88583,1.83255-22.88375M376.93436,81.80027c2.29517,0,9.00986-4.06609,9.00986-4.06609-.25003,4.24442.35489,7.67405-1.42108,9.41917-2.98065,2.92889-7.15585,4.58061-7.15585,4.58061.14197,1.42004,1.13599,2.76913,1.13599,2.76913,5.13556-2.32091,8.3136-4.28176,9.77292-5.2607.64832-.43495,1.08704-1.09794,1.25296-1.86079,1.33069-6.11992.33456-15.9544.33456-15.9544-5.29858,2.20998-9.34497,4.41717-10.84567,6.33697-1.97034,2.52061-2.74213,3.79663-2.74213,3.79663.12189.16621.35034.23946.65845.23946M309.59973,94.50309s.99402-1.34908,1.13608-2.76913c0,0-4.17529-1.65173-7.15594-4.58061-1.77597-1.74512-1.17108-5.17476-1.42108-9.41917,0,0,6.71515,4.06609,9.00986,4.06609.30786,0,.53662-.07335.65845-.23946,0,0-.77182-1.27602-2.74213-3.79663-1.5007-1.9198-5.54709-4.12698-10.84567-6.33697,0,0-.99603,9.83448.33456,15.9544.16589.76285.60464,1.42583,1.25296,1.86079,1.45932.97894,4.63736,2.93979,9.77292,5.2607M295.65701,63.92099c-.33136,0-.82175.09958-1.27869.57338-1.62915,1.68938-2.10806,8.25398-1.60129,21.9504.02167.58534.03915,1.05792.04828,1.3876.1351,4.89235,2.37543,5.95398,10.71094,9.90398,1.29251.6125,2.7435,1.30006,4.37088,2.08807-.39594,2.20884-.72812,4.57619-1.01202,7.20924-.04861.45065.21198.8776.63495,1.04045,12.07837,4.64992,28.2179,13.70532,34.59631,17.38277l1.40219.81232c.15509.08984.32822.1347.50128.1347.17715,0,.35422-.04701.51184-.14092l1.36511-.81335c6.36633-3.6703,22.50644-12.72594,34.58395-17.37552.42297-.16285.68353-.58981.63495-1.04044-.28387-2.63271-.61603-4.99986-1.01208-7.20926,1.62738-.78799,3.07834-1.47555,4.37085-2.08803,8.33563-3.95002,10.57602-5.01167,10.71103-9.90408.01163-.41985.03973-1.06095.07483-1.86333.48199-11.02052.42773-18.75232-1.40387-20.66576-.45752-.47798-.95209-.57831-1.28641-.57831-.21896,0-.44031.0426-.6579.12665-.14746.05695-.36011.13617-.62857.2362-10.02286,3.73517-15.9798,7.15112-18.21124,10.44306-1.04288,1.53848-1.93246,2.89045-2.71735,4.08328-2.89938,4.40627-4.22266,6.41732-5.73972,6.41732-1.23508,0-3.08566-1.06997-6.15164-2.84261-.6156-.35593-1.28009-.74011-2.00018-1.15065-.06683-.03811-.1369-.06789-.20874-.08937l-4.06506-2.11162c-.03159-.02271-.06464-.04357-.09903-.06238l-14.60004-7.98624c-.14938-.08172-.31461-.12267-.47989-.12268-.15759,0-.31525.03721-.45944.11179-.29541.15282-.49554.4425-.53387.7729l-.88684,7.64014-3.38449,1.75812c-.06729.02013-.13306.04755-.19611.08231-.79453.4379-1.52094.84606-2.18851,1.22118-2.90762,1.63378-4.66266,2.61993-5.88708,2.61993-1.6351,0-3.11969-2.22572-6.37241-7.10236-.64911-.97314-1.36795-2.05083-2.17337-3.23905-3.89276-5.74286-18.48645-11.42866-18.63342-11.48541-.21332-.08241-.43103-.12429-.64697-.12443h-.00116ZM378.1955,80.51946c.40564-.56366.93692-1.27787,1.61041-2.13942.83047-1.06242,3.10678-2.8568,9.17642-5.49129.21225,2.88268.56293,9.71214-.43036,14.28039-.11234.51644-.40814.95784-.83292,1.24284-1.33823.89769-4.21396,2.67809-8.82547,4.81294-.13507-.25677-.27707-.567-.38208-.89761,1.39291-.6384,4.37619-2.16495,6.71252-4.46069,1.60684-1.57892,1.62289-4.07803,1.64151-6.97173.00635-.99085.01294-2.01543.07697-3.10191.02182-.37087-.16376-.72327-.48193-.91514-.15878-.09576-.33759-.14364-.51636-.14364-.17938,0-.35873.04819-.51794.14456-1.98517,1.20181-5.23694,2.96233-7.23077,3.6407h0ZM309.20935,93.22491c-4.61145-2.13486-7.48718-3.91524-8.82547-4.81297-.42474-.28497-.72055-.72636-.83289-1.24281-.99319-4.56824-.64255-11.39768-.43033-14.28037,6.06964,2.6345,8.34595,4.42887,9.17642,5.49129.67346.86156,1.20486,1.57594,1.61053,2.13961-1.99417-.67825-5.24597-2.43898-7.2309-3.64088-.15918-.09638-.33856-.14459-.51794-.14459-.17877,0-.35754.04786-.51636.14361-.31818.19185-.50375.5443-.4819.91518.064,1.08643.07056,2.11097.07693,3.10178.01862,2.89378.03467,5.39291,1.64151,6.97186,2.33633,2.29574,5.31961,3.82227,6.71259,4.46068-.10501.33051-.24704.64073-.3822.89761h0ZM385.94421,78.73418h.005-.005Z"/><path class="uuid-65abf414-d08e-475c-9308-a7a9164ca173" d="M472.26221,150.90918c-1.23291,0-1.93994-.75293-1.93994-2.06543v-15.89355l-13.51855-24.10889c-.13037-.25928-.25195-.54639-.25195-.87158,0-.79736.68408-1.37598,1.62695-1.37598h5.6958c1.32764,0,2.229.4751,2.75635,1.45215l8.63477,16.96973,8.50586-16.83252c.58594-1.17285,1.27637-1.58936,2.6377-1.58936h4.50586c1.56738,0,1.68945.95752,1.68945,1.25098,0,.33594-.12109.73633-.32324,1.07178l-12.82178,23.71826v16.33398c0,1.21484-.72461,1.94043-1.93896,1.94043h-5.2583Z"/><path class="uuid-f574127d-fddb-4c60-9358-8fda8bec1cf1" d="M490.91513,107.09376c.75092,0,1.18945.2506,1.18945.75092,0,.18795-.06265.50119-.25058.81356l-12.89432,23.84912v16.46181c0,.93886-.50031,1.44005-1.43918,1.44005h-5.25812c-.93887,0-1.44006-.50119-1.44006-1.56535v-16.02412l-13.58258-24.22327c-.12531-.2506-.18793-.43855-.18793-.6265,0-.50031.43854-.87621,1.1268-.87621h5.6958c1.1268,0,1.87772.37589,2.31625,1.18945l9.01358,17.71391h.12531l8.88828-17.58862c.50031-1.0015,1.0015-1.31475,2.19095-1.31475h4.50635M490.91513,106.09376h-4.50635c-1.54895,0-2.41406.5237-3.08554,1.86786l-8.0592,15.94797-8.1821-16.07989c-.62442-1.15894-1.69986-1.73594-3.20752-1.73594h-5.6958c-1.23236,0-2.1268.78906-2.1268,1.87621,0,.42892.14838.78348.29352,1.07374l13.47699,24.03725v15.76291c0,1.58237.93497,2.56535,2.44006,2.56535h5.25812c1.48175,0,2.43918-.95778,2.43918-2.44005v-16.20879l12.77399-23.62655c.22742-.37595.37091-.86039.37091-1.28915,0-.80772-.57339-1.75092-2.18945-1.75092h0Z"/><path class="uuid-65abf414-d08e-475c-9308-a7a9164ca173" d="M502.93066,151.66016c-6.79688,0-10.38965-4.04688-10.38965-11.7041v-18.46484c0-.72461.27637-1.94043,2.12793-1.94043h4.38086c.51074,0,2.06543,0,2.06543,1.94043v17.15039c0,3.8291,1.1582,5.32129,4.13184,5.32129,2.09863,0,4.9043-1.13965,6.76074-2.73145v-19.74023c0-.88525.3584-1.94043,2.06543-1.94043h4.44434c.51074,0,2.06445,0,2.06445,1.94043v27.16602c0,1.59961-.61621,2.25195-2.12695,2.25195h-4.00586c-1.11816,0-1.92285-.68848-2.00098-1.71387l-.02539-.62402c-2.82227,2.02441-6.08496,3.08887-9.49219,3.08887Z"/><path class="uuid-f574127d-fddb-4c60-9358-8fda8bec1cf1" d="M518.51752,120.05071c1.00146,0,1.56445.31325,1.56445,1.44006v27.16602c0,1.31387-.37592,1.75241-1.62714,1.75241h-4.00604c-.81354,0-1.44-.43854-1.50269-1.25211l-.06262-1.56447c-2.87967,2.31538-6.32187,3.56749-9.95288,3.56749-7.01056,0-9.8898-4.44458-9.8898-11.20454v-18.46481c0-1.06416.62561-1.44006,1.62802-1.44006h4.38104c1.0015,0,1.56534.31325,1.56534,1.44006v17.15093c0,3.44218.87622,5.82111,4.63165,5.82111,2.37891,0,5.38342-1.31476,7.26114-3.00453v-19.96751c0-1.06416.56342-1.44006,1.56494-1.44006h4.44458M518.51752,119.05071h-4.44458c-1.63007,0-2.56494.88937-2.56494,2.44006v19.50765c-1.77039,1.44412-4.33444,2.46439-6.26114,2.46439-2.6813,0-3.63165-1.2616-3.63165-4.82111v-17.15093c0-.91129-.33328-2.44006-2.56534-2.44006h-4.38104c-1.64557,0-2.62802.91217-2.62802,2.44006v18.46481c0,7.87022,3.8674,12.20454,10.8898,12.20454,3.22247,0,6.31757-.92293,9.05157-2.68517.21173,1.17989,1.17072,1.93425,2.46661,1.93425h4.00604c2.3548,0,2.62714-1.57083,2.62714-2.75241v-27.16602c0-.91129-.33313-2.44006-2.56445-2.44006h0Z"/><path class="uuid-65abf414-d08e-475c-9308-a7a9164ca173" d="M549.12305,150.90918c-1.3291,0-2.00293-.71582-2.00293-2.12793v-17.02539c0-3.82422-1.2334-5.38379-4.25684-5.38379-2.14258,0-4.94141,1.11719-6.88574,2.73535v19.73633c0,1.37012-.67383,2.06543-2.00195,2.06543h-4.56934c-1.25391,0-2.00293-.74902-2.00293-2.00293v-27.29004c0-1.33203.7334-2.06543,2.06543-2.06543h4.06738c.46777,0,1.8916,0,2.00195,1.65625l.02637.68164c2.85156-2.03809,6.25293-3.15137,9.67773-3.15137,6.79688,0,10.38965,4.04688,10.38965,11.7041v18.33984c0,1.41211-.67383,2.12793-2.00195,2.12793h-4.50684Z"/><path class="uuid-f574127d-fddb-4c60-9358-8fda8bec1cf1" d="M545.24231,119.23715c7.01056,0,9.88983,4.38194,9.88983,11.20454v18.33951c0,1.06416-.37592,1.62801-1.50275,1.62801h-4.50635c-1.12677,0-1.50269-.56384-1.50269-1.62801v-17.02563c0-3.44218-.93884-5.88375-4.75696-5.88375-2.44067,0-5.44519,1.31475-7.38556,3.00452v19.96751c0,1.06416-.43854,1.56535-1.50269,1.56535h-4.56903c-.9397,0-1.50269-.50119-1.50269-1.5027v-27.29045c0-1.0015.43854-1.56535,1.56537-1.56535h4.06781c.87708,0,1.44.2506,1.50269,1.18946l.06262,1.62712c2.87927-2.31538,6.5094-3.63014,10.14038-3.63014M545.24231,118.23715c-3.23633,0-6.45081.96392-9.2262,2.74242-.11224-.81795-.60382-1.92886-2.47949-1.92886h-4.06781c-1.60632,0-2.56537.95901-2.56537,2.56535v27.29045c0,1.52032.98236,2.5027,2.50269,2.5027h4.56903c1.59052,0,2.50269-.93503,2.50269-2.56535v-19.49884c1.84979-1.47015,4.414-2.4732,6.38556-2.4732,2.73871,0,3.75696,1.32363,3.75696,4.88375v17.02563c0,2.28659,1.56799,2.62801,2.50269,2.62801h4.50635c.93469,0,2.50275-.34142,2.50275-2.62801v-18.33951c0-7.98428-3.76562-12.20454-10.88983-12.20454h0Z"/><path class="uuid-65abf414-d08e-475c-9308-a7a9164ca173" d="M565.14355,150.90918c-1.43164,0-2.12695-.67578-2.12695-2.06543v-27.35254c0-.72461.27637-1.94043,2.12695-1.94043h4.38184c.51074,0,2.06445,0,2.06445,1.94043v27.35254c0,1.37012-.69434,2.06543-2.06445,2.06543h-4.38184ZM567.27246,116.54492c-2.30566,0-4.75684-1.53516-4.75684-4.38086,0-2.92676,2.45117-4.50635,4.75684-4.50635,2.27539,0,4.69336,1.55713,4.69336,4.44336,0,2.78174-2.38672,4.44385-4.69336,4.44385Z"/><path class="uuid-f574127d-fddb-4c60-9358-8fda8bec1cf1" d="M567.27197,108.15791c2.12836,0,4.19397,1.44006,4.19397,3.9434,0,2.44156-2.1283,3.94339-4.19397,3.94339s-4.25659-1.37741-4.25659-3.88074c0-2.50421,2.06561-4.00604,4.25659-4.00604M569.52557,120.05071c1.00153,0,1.56451.31325,1.56451,1.44006v27.35309c0,1.12682-.50031,1.56535-1.56451,1.56535h-4.3819c-1.12683,0-1.62714-.43854-1.62714-1.56535v-27.35309c0-1.06416.62561-1.44006,1.62714-1.44006h4.3819M567.27197,107.15791c-2.54828,0-5.25659,1.7545-5.25659,5.00604,0,3.05511,2.67267,4.88074,5.25659,4.88074,2.5531,0,5.19397-1.84908,5.19397-4.94339,0-3.21085-2.67609-4.9434-5.19397-4.9434h0ZM569.52557,119.05071h-4.3819c-1.64502,0-2.62714.91217-2.62714,2.44006v27.35309c0,1.6543.93298,2.56535,2.62714,2.56535h4.3819c1.65375,0,2.56451-.91106,2.56451-2.56535v-27.35309c0-.91129-.33319-2.44006-2.56451-2.44006h0Z"/><path class="uuid-65abf414-d08e-475c-9308-a7a9164ca173" d="M604.70117,150.90918c-1.71973,0-2.5498-.64648-3.40234-1.76172l-12.74805-16.34766v16.04395c0,1.38965-.65527,2.06543-2.00195,2.06543h-5.00781c-1.40918,0-2.06543-.65625-2.06543-2.06543v-40.24707c0-1.2915.7334-2.00293,2.06543-2.00293h5.00781c1.34668,0,2.00195.65527,2.00195,2.00293v16.32617l12.1123-16.99219c.66797-.89062,1.58203-1.33691,2.72363-1.33691h5.00684c.85645,0,1.50195.56445,1.50195,1.31348,0,.39453-.11523.73877-.35156,1.05225l-14.16113,19.02686,16.40332,20.16699c.24902.29785.6748.88965.6748,1.44238,0,.78516-.60254,1.31348-1.5,1.31348h-6.25977Z"/><path class="uuid-f574127d-fddb-4c60-9358-8fda8bec1cf1" d="M608.39386,107.09376c.62561,0,1.00146.37589,1.00146.81356,0,.2506-.06262.50119-.25061.75092l-14.39612,19.3419,16.64978,20.4687c.31323.37502.56293.81357.56293,1.12682,0,.50031-.375.81355-1.00061.81355h-6.25964c-1.50269,0-2.19098-.50119-3.00452-1.56535l-13.52081-17.338h-.12531v17.338c0,1.12682-.43768,1.56535-1.50183,1.56535h-5.00751c-1.12683,0-1.56537-.43854-1.56537-1.56535v-40.2474c0-1.06416.56384-1.5027,1.56537-1.5027h5.00751c1.00153,0,1.50183.37589,1.50183,1.5027v17.71391h.12531l12.89429-18.08979c.56384-.75092,1.31476-1.12682,2.31628-1.12682h5.00757M608.39386,106.09376h-5.00757c-1.30707,0-2.35547.51354-3.11597,1.52637l-11.21991,15.7403v-14.76398c0-1.61389-.88849-2.5027-2.50183-2.5027h-5.00751c-1.60632,0-2.56537.93559-2.56537,2.5027v40.2474c0,1.67827.88708,2.56535,2.56537,2.56535h5.00751c1.1413,0,2.50183-.44505,2.50183-2.56535v-14.59021l11.85754,15.20517c.91827,1.20119,1.8761,1.95039,3.79309,1.95039h6.25964c1.17792,0,2.00061-.74576,2.00061-1.81355,0-.67404-.43256-1.3334-.79541-1.76787l-16.15039-19.85491,13.9314-18.71758c.29645-.39378.44843-.84877.44843-1.34798,0-1.0339-.86047-1.81356-2.00146-1.81356h0Z"/><path class="uuid-65abf414-d08e-475c-9308-a7a9164ca173" d="M627.73242,151.66016c-9.6416,0-15.39746-6.17773-15.39746-16.52441,0-9.80859,6.33887-16.39844,15.77344-16.39844,9.6416,0,15.39746,6.15332,15.39746,16.46094,0,9.84668-6.33887,16.46191-15.77344,16.46191ZM628.0459,125.68359c-5.99219,0-6.88672,5.84375-6.88672,9.32715,0,4.42676,1.15137,9.70312,6.63574,9.70312,6.21582,0,6.88672-6.6543,6.88672-9.51562,0-4.34082-1.15137-9.51465-6.63574-9.51465Z"/><path class="uuid-f574127d-fddb-4c60-9358-8fda8bec1cf1" d="M628.10809,119.23715c10.20215,0,14.89734,6.75996,14.89734,15.96149,0,9.01358-5.50873,15.96149-15.27325,15.96149-10.203,0-14.89728-6.88527-14.89728-16.02414,0-9.01358,5.50781-15.89883,15.27319-15.89883M627.79486,145.21373c5.50787,0,7.38647-4.88225,7.38647-10.01509s-1.62805-10.01508-7.13586-10.01508c-5.57141,0-7.38647,4.81959-7.38647,9.82714,0,5.13283,1.56445,10.20303,7.13586,10.20303M628.10809,118.23715c-9.73352,0-16.27319,6.79111-16.27319,16.89883,0,10.65999,5.94293,17.02414,15.89728,17.02414,9.73352,0,16.27325-6.8163,16.27325-16.96149,0-10.62075-5.94295-16.96149-15.89734-16.96149h0ZM627.79486,144.21373c-2.79913,0-6.13586-1.59663-6.13586-9.20303,0-3.29666.82971-8.82714,6.38647-8.82714,2.79913,0,6.13586,1.56403,6.13586,9.01508,0,7.84389-4.00134,9.01509-6.38647,9.01509h0Z"/><path class="uuid-65abf414-d08e-475c-9308-a7a9164ca173" d="M650.5752,150.90918c-1.29199,0-2.00293-.7334-2.00293-2.06543v-27.22754c0-1.37061.69531-2.06543,2.06543-2.06543h4.00684c1.70605,0,2.06445.91895,2.06445,1.68945l.02148.69141c1.56934-1.70361,3.69336-3.19434,7.11426-3.19434.45312,0,1.08008.08838,1.86133.26221.71289.20312,1.01758.60254,1.01758,1.30176,0,.21387,0,.45605-.08789.72119l-.66895,4.3623c-.08496.7666-.59766,1.2373-1.37012,1.2373h-.25098c-.04102,0-.08105-.00488-.12109-.01465-.43359-.1084-1.01953-.17285-1.56836-.17285-1.96484,0-4.05957,1.02637-5.50879,2.68945v19.71973c0,1.33203-.71094,2.06543-2.00293,2.06543h-4.56934Z"/><path class="uuid-f574127d-fddb-4c60-9358-8fda8bec1cf1" d="M663.84473,119.23715c.50122,0,1.18945.12531,1.7533.2506.43768.1253.62561.31236.62561.81355,0,.18795,0,.37502-.06262.56297l-.68829,4.44458c-.06262.56297-.37585.81356-.87616.81356h-.25061c-.50122-.12531-1.12683-.18795-1.68976-.18795-2.12836,0-4.44458,1.12681-6.00909,3.00453v19.90486c0,1.00151-.43854,1.56535-1.50269,1.56535h-4.56897c-1.00153,0-1.50275-.50119-1.50275-1.56535v-27.2278c0-1.2521.62561-1.56535,1.56537-1.56535h4.00604c1.00061,0,1.56445.31325,1.56445,1.18946l.06268,2.00302c1.94037-2.44157,4.06866-4.00604,7.57349-4.00604M663.84473,118.23715c-3.05139,0-5.11609,1.11933-6.67377,2.54514-.1261-.71568-.64148-1.73158-2.52686-1.73158h-4.00604c-2.23212,0-2.56537,1.60727-2.56537,2.56535v27.2278c0,1.60634.93561,2.56535,2.50275,2.56535h4.56897c1.56708,0,2.50269-.95901,2.50269-2.56535v-19.53009c1.34955-1.47504,3.23944-2.3793,5.00909-2.3793.51019,0,1.05121.0591,1.4472.15809.07935.01983.16077.02986.24255.02986h.25061c1.03662,0,1.75317-.65257,1.87006-1.70301l.67194-4.33318c.08508-.30449.08508-.57919.08508-.78491,0-.92123-.45435-1.51842-1.3504-1.77493-.01929-.00552-.0387-.01046-.05829-.01482-.81946-.18209-1.4823-.27441-1.97021-.27441h0Z"/><path class="uuid-65abf414-d08e-475c-9308-a7a9164ca173" d="M691.88477,150.90918c-1.3291,0-2.00293-.71582-2.00293-2.12793v-17.02539c0-3.82422-1.2334-5.38379-4.25684-5.38379-2.14258,0-4.94141,1.11719-6.88574,2.73535v19.73633c0,1.37012-.67383,2.06543-2.00293,2.06543h-4.56934c-1.25391,0-2.00195-.74902-2.00195-2.00293v-27.29004c0-1.33203.7334-2.06543,2.06543-2.06543h4.06738c.46777,0,1.8916,0,2.00195,1.65625l.02637.68164c2.85059-2.03809,6.25195-3.15137,9.67773-3.15137,6.79688,0,10.38965,4.04688,10.38965,11.7041v18.33984c0,1.41211-.67383,2.12793-2.00293,2.12793h-4.50586Z"/><path class="uuid-f574127d-fddb-4c60-9358-8fda8bec1cf1" d="M688.0036,119.23715c7.01056,0,9.88977,4.38194,9.88977,11.20454v18.33951c0,1.06416-.37592,1.62801-1.50269,1.62801h-4.50635c-1.12683,0-1.50269-.56384-1.50269-1.62801v-17.02563c0-3.44218-.9389-5.88375-4.75696-5.88375-2.44067,0-5.44519,1.31475-7.38556,3.00452v19.96751c0,1.06416-.4386,1.56535-1.50275,1.56535h-4.56897c-.93976,0-1.50269-.50119-1.50269-1.5027v-27.29045c0-1.0015.43854-1.56535,1.56531-1.56535h4.06781c.87708,0,1.44006.2506,1.50269,1.18946l.06268,1.62712c2.87921-2.31538,6.50934-3.63014,10.14038-3.63014M688.0036,118.23715c-3.23639,0-6.45087.96393-9.22626,2.74244-.11218-.81789-.6037-1.92888-2.47949-1.92888h-4.06781c-1.60632,0-2.56531.95901-2.56531,2.56535v27.29045c0,1.52032.98236,2.5027,2.50269,2.5027h4.56897c1.59052,0,2.50275-.93503,2.50275-2.56535v-19.49884c1.84979-1.47015,4.414-2.4732,6.38556-2.4732,2.73871,0,3.75696,1.32363,3.75696,4.88375v17.02563c0,2.28659,1.56799,2.62801,2.50269,2.62801h4.50635c.93469,0,2.50269-.34142,2.50269-2.62801v-18.33951c0-7.98428-3.76562-12.20454-10.88977-12.20454h0Z"/><path class="uuid-d361cb64-c35c-4b55-9598-3fa1987d2b83" d="M487.74609,182.27051c-1.21875,0-1.47461-.78223-1.47461-1.43848v-9.96582h-9.65381v9.96582c0,.92773-.51074,1.43848-1.43799,1.43848h-2.92725c-1.31543,0-1.51172-.90137-1.51172-1.43848v-24.12207c0-.86426.5791-1.40039,1.51172-1.40039h2.92725c1.25098,0,1.43799.87695,1.43799,1.40039v9.29102h9.65381v-9.29102c0-.87695.55078-1.40039,1.47461-1.40039h2.96387c1.1582,0,1.40137.76172,1.40137,1.40039v24.12207c0,1.18848-.76172,1.43848-1.40137,1.43848h-2.96387Z"/><path class="uuid-f574127d-fddb-4c60-9358-8fda8bec1cf1" d="M490.71042,155.80942c.60004,0,.90091.22589.90091.90091v24.1218c0,.6759-.26294.93797-.90091.93797h-2.96393c-.67502,0-.97504-.26207-.97504-.93797v-10.46599h-10.65393v10.46599c0,.6759-.3009.93797-.93799.93797h-2.92685c-.67505,0-1.01212-.26207-1.01212-.93797v-24.1218c0-.63795.41208-.90091,1.01212-.90091h2.92685c.60004,0,.93799.22589.93799.90091v9.79095h10.65393v-9.79095c0-.63795.375-.90091.97504-.90091h2.96393M490.71042,154.80942h-2.96393c-1.1998,0-1.97504.74614-1.97504,1.90091v8.79095h-8.65393v-8.79095c0-1.17252-.74258-1.90091-1.93799-1.90091h-2.92685c-1.20352,0-2.01212.76392-2.01212,1.90091v24.1218c0,1.2135.7522,1.93797,2.01212,1.93797h2.92685c1.2135,0,1.93799-.72447,1.93799-1.93797v-9.46599h8.65393v9.46599c0,1.2135.73834,1.93797,1.97504,1.93797h2.96393c1.19028,0,1.90091-.72447,1.90091-1.93797v-24.1218c0-1.19029-.71063-1.90091-1.90091-1.90091h0Z"/><path class="uuid-d361cb64-c35c-4b55-9598-3fa1987d2b83" d="M498.10352,182.27051c-1.21973,0-1.47559-.78223-1.47559-1.43848v-16.39355c0-.41016.14355-1.36328,1.47559-1.36328h2.62598c1.18848,0,1.4375.74121,1.4375,1.36328v16.39355c0,.92773-.51074,1.43848-1.4375,1.43848h-2.62598ZM499.37891,161.6748c-1.47949,0-3.05176-.99023-3.05176-2.82617,0-1.88477,1.57227-2.90137,3.05176-2.90137,1.46094,0,3.0127,1.00391,3.0127,2.86426,0,1.79199-1.53223,2.86328-3.0127,2.86328Z"/><path class="uuid-f574127d-fddb-4c60-9358-8fda8bec1cf1" d="M499.379,156.44739c1.27502,0,2.51303.86296,2.51303,2.36391,0,1.463-1.27505,2.36302-2.51303,2.36302s-2.55188-.82503-2.55188-2.32596c0-1.50006,1.23889-2.40097,2.55188-2.40097M500.72903,163.5753c.60004,0,.93799.18794.93799.86296v16.39386c0,.6759-.30002.93797-.93799.93797h-2.62598c-.67502,0-.97504-.26207-.97504-.93797v-16.39386c0-.63795.375-.86296.97504-.86296h2.62598M499.379,155.44739c-2.0249,0-3.55188,1.4621-3.55188,3.40097,0,2.08188,1.80594,3.32596,3.55188,3.32596,1.72684,0,3.51303-1.25793,3.51303-3.36302,0-2.18494-1.81-3.36391-3.51303-3.36391h0ZM500.72903,162.5753h-2.62598c-1.45621,0-1.97504.96236-1.97504,1.86296v16.39386c0,1.2135.73831,1.93797,1.97504,1.93797h2.62598c1.2135,0,1.93799-.72447,1.93799-1.93797v-16.39386c0-1.16653-.72449-1.86296-1.93799-1.86296h0Z"/><path class="uuid-d361cb64-c35c-4b55-9598-3fa1987d2b83" d="M511.49805,182.71973c-1.86426,0-4.04492-.49414-5.98145-1.35547-.65039-.28906-.74707-.78711-.74707-1.05762,0-.19727.05859-.37109.10156-.49707l.5957-1.90332c.23926-.78906.78125-.875,1.00293-.875.13574,0,.32227,0,.59961.11133,1.75391.7168,3.40723,1.12695,4.54004,1.12695,1.10059,0,2.27637-.39062,2.27637-1.48828,0-.64453-.30762-1.11328-1.93262-1.74805l-2.95898-1.12305c-2.65918-.98047-4.1875-2.9707-4.1875-5.45801,0-4.03027,3.7793-5.86523,7.29102-5.86523,2.03516,0,3.82715.37109,5.6416,1.16797.20215.10156.74902.375.74902.9834,0,.15234-.03418.28125-.06641.40625-.00195.00684-.0293.11133-.03223.11914l-.6377,2.02637c-.13281.46484-.51855.76172-1.00195.76172-.19043,0-.39453-.05371-.53223-.09961-1.36133-.53613-2.87988-.87598-3.89551-.87598-1.28027,0-1.86328.63574-1.86328,1.22559,0,.48047.1123.89258,1.52246,1.44824l3.38281,1.39258c2.49902,1.03516,3.87402,2.9043,3.87402,5.26367,0,4.36133-3.8877,6.31348-7.74023,6.31348Z"/><path class="uuid-f574127d-fddb-4c60-9358-8fda8bec1cf1" d="M512.09772,163.08734c1.80139,0,3.56439.30089,5.44031,1.12592.30005.15001.45007.30002.45007.52502,0,.11295-.03796.22501-.07501.37502l-.638,2.02596c-.07501.26295-.26294.41296-.52502.41296-.11292,0-.26294-.03795-.375-.07501-1.23798-.48796-2.85187-.90091-4.05237-.90091-1.57593,0-2.36389.86298-2.36389,1.72595,0,.82503.41296,1.35092,1.8389,1.91301l3.37643,1.38887c1.98804.82503,3.56396,2.36304,3.56396,4.80194,0,3.93898-3.41394,5.81406-7.24042,5.81406-1.95096,0-4.08987-.56209-5.77786-1.313-.33795-.14999-.45001-.37502-.45001-.60002,0-.11206.03705-.22501.07498-.33707l.60004-1.91389c.11295-.37502.30002-.52502.52502-.52502.11295,0,.22589,0,.41296.07501,1.65094.67502,3.41394,1.16298,4.72693,1.16298,1.65137,0,2.77643-.75003,2.77643-1.98802,0-1.05092-.71295-1.61299-2.2514-2.2139l-2.96304-1.12505c-2.13892-.78796-3.86487-2.43892-3.86487-4.9899,0-3.67601,3.4519-5.3649,6.79086-5.3649M512.09772,162.08734c-3.75232,0-7.79086,1.99179-7.79086,6.3649,0,2.70946,1.64719,4.87021,4.5192,5.92825l2.95374,1.12157c1.60638.62749,1.60638.98874,1.60638,1.27902,0,.94038-1.4798.98802-1.77643.98802-1.07147,0-2.65643-.39677-4.34845-1.08861-.34424-.13803-.58878-.14938-.79144-.14938-.26041,0-1.13696.08917-1.48254,1.23665l-.59671,1.90311c-.0408.11974-.12079.35603-.12079.63623,0,.66762.38065,1.21947,1.04431,1.51404,1.99832.88895,4.25241,1.39899,6.18356,1.39899,4.92883,0,8.24042-2.73836,8.24042-6.81406,0-2.57338-1.48474-4.60675-4.18066-5.72557l-3.37933-1.39006c-1.2193-.48076-1.2193-.73872-1.2193-.98819,0-.36075.46848-.72595,1.36389-.72595.95782,0,2.40454.32628,3.68567.83125.0174.00685.03497.01321.05273.01909.17322.05728.43335.12558.68896.12558.70581,0,1.28937-.44695,1.48669-1.13864l.63013-1.99991c.00635-.02002.01202-.04021.01703-.06058l.02063-.08002c.03723-.14148.08356-.31757.08356-.53479,0-.60919-.3374-1.08676-1.00287-1.41948-1.92249-.84682-3.77911-1.23146-5.88751-1.23146h0Z"/><path class="uuid-d361cb64-c35c-4b55-9598-3fa1987d2b83" d="M528.60547,182.71973c-2.20703,0-3.89453-.60449-4.88086-1.74805-1.32129-1.49219-1.32129-3.25195-1.32129-5.91699v-7.86523h-1.26367c-1.11426,0-1.3252-.50586-1.3252-1.43848v-1.42578c0-.74805.47266-1.25,1.17578-1.25h1.41309v-3.58887c0-1.22363,1.03516-1.35352,1.375-1.39648l2.70117-.33789.25-.00391c.36426,0,1.21289.12891,1.21289,1.3252v4.00195h3.73926c1.09473,0,1.21289.7959,1.21289,1.1377v1.76367c0,.71387-.51465,1.21289-1.25098,1.21289h-3.70117v8.09082c0,1.04102.06641,1.78418.39941,2.26758.18359.26562.50391.57129,1.35156.57129.85352,0,1.58301-.2041,2.24316-.4248.00977-.00293.10547-.02832.11523-.03125.12891-.03418.26172-.06934.41797-.06934.22949,0,.7832.08105.97266.82715l.38086,1.90137c.04199.11621.04688.20996.04688.32324,0,.82617-.66113,1.08984-.87793,1.17676-1.36035.56934-2.96191.89746-4.38672.89746Z"/><path class="uuid-f574127d-fddb-4c60-9358-8fda8bec1cf1" d="M526.72986,158.24834c.48798,0,.71295.26294.71295.82503v4.50194h4.23901c.45001,0,.71295.14999.71295.63795v1.76302c0,.45001-.29999.71297-.75092.71297h-4.20105v8.59091c0,1.12592.07501,1.95096.48712,2.55098.33795.48796.86298.78796,1.76385.78796.93799,0,1.7251-.22501,2.401-.45001.15002-.03795.26208-.075.375-.075.26208,0,.41211.14999.48798.45001l.375,1.87595c.03705.11206.03705.15001.03705.22501,0,.37502-.18707.56297-.56293.71298-1.16302.48708-2.70099.86209-4.20105.86209-1.91388,0-3.56396-.48709-4.50195-1.57507-1.16296-1.31299-1.20093-2.85098-1.20093-5.5899v-8.36591h-1.763c-.71295,0-.82501-.15001-.82501-.93797v-1.42595c0-.45001.22498-.75002.67499-.75002h1.91302v-4.08899c0-.63795.33795-.82503.93799-.90002l2.70099-.33795h.18793M526.72986,157.24834h-.18793c-.0415,0-.08295.00258-.12415.00774l-2.70099.33797c-1.49915.18735-1.81384,1.13243-1.81384,1.89227v3.08899h-.91302c-.98621,0-1.67499.71964-1.67499,1.75002v1.42595c0,.90228.20746,1.93797,1.82501,1.93797h.763v7.36591c0,2.67821,0,4.61325,1.45233,6.25294,1.07532,1.24738,2.89398,1.91203,5.25055,1.91203,1.48938,0,3.16138-.34251,4.58734-.93971.96979-.3869,1.17664-1.10349,1.17664-1.63536,0-.15567-.01154-.28743-.06683-.47293l-.36462-1.82404c-.0033-.01646-.00696-.03287-.01111-.04915-.1908-.75444-.73566-1.20485-1.45746-1.20485-.22089,0-.40143.04785-.54651.08629l-.07373.01924c-.0238.00601-.04736.01292-.07062.02066-.57959.19296-1.26654.39882-2.08514.39882-.69427,0-.85529-.23245-.94177-.35733-.25623-.37311-.3092-1.06241-.3092-1.98161v-7.59091h3.20105c1.01453,0,1.75092-.72041,1.75092-1.71297v-1.76302c0-.99503-.67236-1.63795-1.71295-1.63795h-3.23901v-3.50194c0-1.10866-.67236-1.82503-1.71295-1.82503h0Z"/><path class="uuid-d361cb64-c35c-4b55-9598-3fa1987d2b83" d="M544.1377,182.71973c-5.90332,0-9.42773-3.77734-9.42773-10.10352,0-5.99902,3.87891-10.0293,9.65234-10.0293,5.9043,0,9.42871,3.76367,9.42871,10.06738,0,6.02051-3.87891,10.06543-9.65332,10.06543ZM544.3252,167.15137c-3.41699,0-3.92676,3.37695-3.92676,5.38965,0,2.56152.65527,5.61523,3.77734,5.61523,3.41699,0,3.92676-3.44727,3.92676-5.50195,0-2.51074-.65527-5.50293-3.77734-5.50293Z"/><path class="uuid-f574127d-fddb-4c60-9358-8fda8bec1cf1" d="M544.36261,163.08734c6.11493,0,8.92883,4.05191,8.92883,9.56683,0,5.40196-3.30096,9.56595-9.15387,9.56595-6.11493,0-8.92798-4.12604-8.92798-9.6039,0-5.40196,3.30103-9.52888,9.15302-9.52888M544.17554,178.65616c3.30103,0,4.42694-2.92599,4.42694-6.00198s-.97595-6.00288-4.27692-6.00288c-3.33899,0-4.42694,2.88893-4.42694,5.88994,0,3.07687.93799,6.11493,4.27692,6.11493M544.36261,162.08734c-6.07281,0-10.15302,4.23123-10.15302,10.52888,0,6.63983,3.71136,10.6039,9.92798,10.6039,6.07336,0,10.15387-4.24612,10.15387-10.56595,0-6.61661-3.71173-10.56683-9.92883-10.56683h0ZM544.17554,177.65616c-2.17438,0-3.27692-1.7209-3.27692-5.11493,0-2.23077.59454-4.88994,3.42694-4.88994,2.17438,0,3.27692,1.68321,3.27692,5.00288,0,4.35214-2.14709,5.00198-3.42694,5.00198h0Z"/><path class="uuid-d361cb64-c35c-4b55-9598-3fa1987d2b83" d="M557.83301,182.27051c-.87695,0-1.40039-.53809-1.40039-1.43848v-16.31836c0-.65625.24902-1.43848,1.4375-1.43848h2.40137c1.19434,0,1.41797.69238,1.43652,1.14941.93555-.90527,2.18555-1.6377,4.07812-1.6377.28223,0,.67285.05469,1.15918.16309.52539.15039.7666.4668.7666.97559,0,.13672,0,.30664-.06445.49707l-.3916,2.58008c-.0625.55469-.4541.91113-1.01953.91113h-.15039c-.04004,0-.08105-.00488-.12012-.01465-.24414-.06055-.57812-.09668-.89258-.09668-1.09863,0-2.27246.56543-3.10156,1.48633v11.74316c0,.91406-.51074,1.43848-1.40039,1.43848h-2.73828Z"/><path class="uuid-f574127d-fddb-4c60-9358-8fda8bec1cf1" d="M565.78607,163.08734c.29999,0,.71295.07588,1.0509.15088.26208.07501.375.18707.375.48708,0,.11295,0,.22502-.0379.33797l-.41211,2.66304c-.03796.33795-.22589.48796-.52588.48796h-.15002c-.29999-.07501-.67505-.11208-1.013-.11208-1.27502,0-2.66302.67503-3.60101,1.80008v11.92986c0,.60091-.26294.93797-.90088.93797h-2.73804c-.60004,0-.90094-.3-.90094-.93797v-16.31885c0-.75003.37592-.93797.93799-.93797h2.40094c.60095,0,.93799.18794.93799.71297l.03796,1.20004c1.16296-1.463,2.43799-2.40097,4.539-2.40097M565.78607,162.08734c-1.68481,0-2.89569.53-3.83221,1.25723-.27985-.43878-.80957-.76927-1.68274-.76927h-2.40094c-1.2135,0-1.93799.72447-1.93799,1.93797v16.31885c0,1.17726.74615,1.93797,1.90094,1.93797h2.73804c1.15472,0,1.90088-.76071,1.90088-1.93797v-11.54457c.7207-.72824,1.70966-1.18536,2.60101-1.18536.27655,0,.56458.03073.77045.0822.07935.01984.16077.02988.24255.02988h.15002c.82922,0,1.42572-.54024,1.51965-1.37634l.39661-2.55733c.05963-.22534.05963-.42039.05963-.5553,0-.73108-.39062-1.24548-1.09985-1.44847-.01935-.00554-.03888-.0105-.05847-.01485-.52954-.11752-.94415-.17464-1.26758-.17464h0Z"/><path class="uuid-d361cb64-c35c-4b55-9598-3fa1987d2b83" d="M570.55176,190.44922c-.61621,0-1.34863-.02441-2.10352-.20215-.59277-.10742-.94727-.51855-.94727-1.12402,0-.08398.01074-.15625.02441-.23242.00586-.03027.0127-.06152.0127-.10449l.26758-2.01758c.11328-.73828.50682-1.1084,1.16992-1.1084h.22559c.20996.01562.37891.03418.54395.05371.25977.0293.50977.05859.73145.05859,2.21387,0,2.94629-.76953,3.5918-2.28516l.63379-1.5-6.75488-17.40527c-.06348-.17773-.10938-.30762-.10938-.48145,0-.58496.45703-1.02539,1.0625-1.02539h3.60254c.46582,0,1.08691.16504,1.40137.95215l3.69141,11.00488,3.47266-10.74707c.25586-.82422.76465-1.20996,1.60059-1.20996h3.03906c.63672,0,1.09961.43164,1.09961,1.02539,0,.1543-.03516.28809-.06934.41699-.00391.0166-.03223.12012-.03809.13672l-7.38965,19.43262c-1.77734,4.69727-4.06934,6.3623-8.75879,6.3623Z"/><path class="uuid-f574127d-fddb-4c60-9358-8fda8bec1cf1" d="M585.7077,163.5753c.375,0,.59998.22501.59998.52501,0,.11295-.03705.22501-.07495.3759l-7.39001,19.43279c-1.68799,4.464-3.78894,6.03995-8.29089,6.03995-.71295,0-1.35095-.03795-1.98889-.18796-.41211-.075-.56207-.3-.56207-.63797,0-.11206.03705-.18706.03705-.33707l.26294-1.95096c.07501-.48796.26208-.67502.67505-.67502h.22498c.45001.03706.90094.11206,1.27594.11206,2.32599,0,3.30103-.82503,4.05103-2.58804l.71301-1.68889-6.82794-17.59389c-.03705-.11295-.07501-.18796-.07501-.3009,0-.3.22504-.52501.56299-.52501h3.60187c.52502,0,.78711.26294.93713.63795l4.16486,12.41783,3.93896-12.19283c.18707-.60002.48798-.86296,1.12506-.86296h3.03894M585.7077,162.5753h-3.03894c-1.05615,0-1.75592.52664-2.07971,1.56531l-3.00208,9.29262-3.19897-9.53796c-.00604-.01799-.01263-.03581-.01965-.05342-.32672-.81674-.98926-1.26654-1.8656-1.26654h-3.60187c-.87646,0-1.56299.66986-1.56299,1.52501,0,.26091.06818.45235.10889.56676.00549.01686.02747.07939.03387.09595l6.6814,17.21631-.55548,1.31572c-.58124,1.36632-1.17145,1.97699-3.12976,1.97699-.18268,0-.42285-.02711-.67719-.0558-.16974-.01917-.34332-.0386-.51666-.05289-.02728-.00224-.05469-.00337-.08209-.00337h-.22498c-.42975,0-1.45209.14841-1.66345,1.52309l-.26556,1.96931c-.00598.04427-.00897.0889-.00897.13358-.02368.12155-.03705.22063-.03705.33707,0,.83589.51843,1.45296,1.35516,1.61655.7959.18437,1.55609.20938,2.1958.20938,4.88263,0,7.38318-1.81216,9.22626-6.68626l7.38934-19.43102c.01392-.03656.02563-.07391.03522-.11186l.01953-.07532c.03809-.1445.08551-.32433.08551-.54417,0-.8694-.68787-1.52501-1.59998-1.52501h0Z"/><path class="uuid-d361cb64-c35c-4b55-9598-3fa1987d2b83" d="M605.51855,182.71973c-2.39258,0-5.13379-.45898-7.33107-1.22754-.25194-.09668-.97362-.375-.97362-1.18555,0-.16699,0-.39648.11133-.67383l.77637-2.40527c.23535-.78027.75586-.94629,1.15039-.94629.20703,0,.44336.04492.72168.1377,2.02246.73145,3.8457,1.10059,5.43164,1.10059,1.41602,0,3.81348-.59766,3.81348-2.83984,0-1.22852-.71191-2.07617-2.45605-2.92676l-4.88184-2.44043c-3.03223-1.49512-4.70312-3.94629-4.70312-6.90039,0-4.92969,4.72168-7.58984,9.16504-7.58984,2.60938,0,4.74121.41797,6.91406,1.35449.2959.13574,1.05176.48438,1.05176,1.20898,0,.20996-.0459.41797-.14844.67383l-.89941,2.28418c-.27734.76465-.81055.88086-1.10254.88086-.24316,0-.45703-.07324-.66406-.14355l-.09473-.03223c-1.73242-.7168-3.51172-1.1377-4.79395-1.1377-.54883,0-3.28906.11328-3.28906,2.35156,0,.99219.73438,1.79004,2.38184,2.58789l4.16504,2.02734c3.59473,1.72754,5.27051,4.05273,5.27051,7.31445,0,5.02051-3.9541,8.52734-9.61523,8.52734Z"/><path class="uuid-f574127d-fddb-4c60-9358-8fda8bec1cf1" d="M606.34314,155.32234c2.47601,0,4.539.37502,6.71497,1.31299.48798.22501.75006.45001.75006.75003,0,.15001-.03705.3-.11206.48796l-.90002,2.28802c-.15094.41295-.37592.56296-.638.56296-.18793,0-.375-.075-.60004-.15001-1.53888-.63795-3.45184-1.16298-4.95282-1.16298-1.763,0-3.78894.75003-3.78894,2.85098,0,1.53801,1.4259,2.43892,2.66388,3.03894l4.164,2.02597c2.96393,1.42505,4.98993,3.41394,4.98993,6.86496,0,5.2149-4.23901,8.02795-9.11597,8.02795-2.25098,0-4.91486-.41208-7.16583-1.20006-.48798-.18794-.638-.41295-.638-.71297,0-.14999,0-.3.07501-.48796l.78796-2.43803c.11298-.375.30005-.60002.67505-.60002.15002,0,.33795.03706.56293.11208,1.76306.63795,3.71399,1.12592,5.58997,1.12592,2.02594,0,4.31396-.97592,4.31396-3.33894,0-1.72595-1.27502-2.66393-2.73804-3.37689l-4.87695-2.43803c-2.66394-1.31299-4.42694-3.5269-4.42694-6.4529,0-4.57693,4.50195-7.08997,8.66589-7.08997M606.34314,154.32234c-6.27826,0-9.66589,4.16815-9.66589,8.08997,0,3.15529,1.77032,5.76552,4.98486,7.34987l4.87189,2.43552c1.55475.75772,2.18518,1.47563,2.18518,2.48244,0,1.84631-2.08307,2.33894-3.31396,2.33894-1.52814,0-3.29443-.35875-5.24969-1.06624-.35382-.1183-.64136-.17175-.9032-.17175-.37207,0-1.27588.12779-1.63257,1.31155l-.77325,2.39201c-.1322.34978-.1322.63295-.1322.82245,0,.52631.2218,1.23912,1.27856,1.64615,2.30963.80901,5.04193,1.26688,7.52527,1.26688,5.95612,0,10.11597-3.71243,10.11597-9.02795,0-4.56647-3.17126-6.61932-5.55658-7.7662l-4.15985-2.02394c-1.45374-.70459-2.10138-1.3643-2.10138-2.13972,0-1.76173,2.32324-1.85098,2.78894-1.85098,1.20184,0,2.95288.41641,4.56989,1.08675.02191.00909.04413.0174.06665.0249l.0896.03036c.23444.08014.50018.17097.82672.17097.34015,0,1.17487-.11885,1.57721-1.21965l.89142-2.26527c.07684-.19257.18146-.49609.18146-.85402,0-1.04425-1.00201-1.5063-1.3313-1.65814-2.2605-.97475-4.45355-1.40488-7.13373-1.40488h0Z"/><path class="uuid-d361cb64-c35c-4b55-9598-3fa1987d2b83" d="M626.79102,182.71973c-6.09277,0-9.87793-3.87109-9.87793-10.10352,0-5.99902,3.93945-10.0293,9.80273-10.0293,2.33105,0,4.35156.83203,5.84082,2.40723,1.60254,1.67285,2.34961,3.91699,2.34961,7.05957v.5625c0,1.31738-.69434,1.58789-1.7373,1.58789h-10.41211c.46777,2.37402,2.29492,3.87695,4.78516,3.87695,1.38281,0,2.95801-.30859,4.43652-.86816.0957-.02734.12793-.04004.15918-.05176.10449-.03906.24707-.0918.43066-.0918.50293,0,.88086.30957,1.01074.8291l.52148,1.90137.0293.13477c.03418.16406.06348.30566.06348.44727,0,.7207-.6582.99609-.90625,1.09961-2.03223.91211-4.69043,1.23828-6.49609,1.23828ZM629.43848,170.24121c-.08594-1.4707-.91211-3.16504-2.98438-3.16504-2.10645,0-3.21777,1.59863-3.59961,3.16504h6.58398Z"/><path class="uuid-f574127d-fddb-4c60-9358-8fda8bec1cf1" d="M626.7157,163.08734c2.28888,0,4.16486.86298,5.47784,2.25096,1.7251,1.80095,2.21301,4.16487,2.21301,6.71584v.56209c0,.90091-.29999,1.08798-1.23798,1.08798h-10.99188c.29999,2.88893,2.401,4.87695,5.36493,4.87695,1.57507,0,3.22601-.37502,4.61395-.90004.15002-.03706.263-.11206.41296-.11206.26208,0,.45001.15001.52502.45001l.52502,1.91301c.03796.18796.07501.33797.07501.45003,0,.26294-.15002.45001-.60004.63795-1.83801.82504-4.35193,1.20006-6.30286,1.20006-5.88995,0-9.37799-3.75104-9.37799-9.6039,0-5.62698,3.71393-9.52888,9.30298-9.52888M622.25171,170.74115h7.69086v-.41295c-.07501-1.95096-1.20093-3.75191-3.48895-3.75191-2.4389,0-3.90192,1.95096-4.2019,4.16486M626.7157,162.08734c-6.06622,0-10.30298,4.32964-10.30298,10.52888,0,6.54071,3.97662,10.6039,10.37799,10.6039,1.85809,0,4.59723-.33829,6.7124-1.28777.7818-.32614,1.19049-.85124,1.19049-1.55025,0-.1938-.03784-.37466-.07446-.54958l-.02032-.09846c-.00458-.02238-.00983-.04462-.01587-.06665l-.52502-1.91301c-.17761-.7114-.76453-1.18535-1.48938-1.18535-.2757,0-.48438.07808-.60901.12474l-.05048.0183c-.0387.00955-.07001.01961-.1073.03371-1.42407.53868-2.93701.83536-4.26013.83536-2.01495,0-3.5462-1.09763-4.13672-2.87695h9.76367c.96075,0,2.23798-.21645,2.23798-2.08798v-.56209c0-3.27966-.7915-5.63347-2.49084-7.40758-1.55963-1.64873-3.76306-2.55922-6.20001-2.55922h0ZM623.53528,169.74115c.45062-1.1515,1.37793-2.16486,2.91833-2.16486,1.70538,0,2.24371,1.31476,2.41339,2.16486h-5.33173Z"/><path class="uuid-d361cb64-c35c-4b55-9598-3fa1987d2b83" d="M638.72363,182.27051c-.87793,0-1.40137-.53809-1.40137-1.43848v-16.31836c0-.65625.25-1.43848,1.43848-1.43848h2.40039c1.19336,0,1.41895.69141,1.4375,1.14844.93555-.90527,2.18555-1.63672,4.07715-1.63672.28516,0,.66504.05371,1.16016.16309.52539.15039.7666.4668.7666.97559,0,.13672,0,.30664-.06445.49707l-.3916,2.58008c-.0625.55469-.4541.91113-1.02051.91113h-.14941c-.04004,0-.08105-.00488-.12012-.01465-.24512-.06055-.5791-.09668-.89355-.09668-1.09863,0-2.27246.56543-3.10059,1.48633v11.74316c0,.91406-.51074,1.43848-1.40137,1.43848h-2.7373Z"/><path class="uuid-f574127d-fddb-4c60-9358-8fda8bec1cf1" d="M646.67615,163.08734c.30005,0,.71295.07588,1.0509.15088.26208.07501.37506.18707.37506.48708,0,.11295,0,.22502-.03796.33797l-.41205,2.66304c-.03796.33795-.22589.48796-.52594.48796h-.14996c-.30005-.07501-.67505-.11208-1.013-.11208-1.27509,0-2.66302.67503-3.60101,1.80008v11.92986c0,.60091-.26294.93797-.90094.93797h-2.73804c-.60004,0-.90094-.3-.90094-.93797v-16.31885c0-.75003.37592-.93797.93799-.93797h2.401c.60089,0,.93799.18794.93799.71297l.0379,1.20004c1.16302-1.463,2.43805-2.40097,4.539-2.40097M646.67615,162.08734c-1.68494,0-2.89557.52989-3.83215,1.25722-.27985-.43878-.80957-.76926-1.68274-.76926h-2.401c-1.2135,0-1.93799.72447-1.93799,1.93797v16.31885c0,1.17726.74615,1.93797,1.90094,1.93797h2.73804c1.15479,0,1.90094-.76071,1.90094-1.93797v-11.54457c.7207-.72824,1.70966-1.18536,2.60101-1.18536.27655,0,.56451.03073.77045.08221.07935.01982.16077.02986.24255.02986h.14996c.82928,0,1.42578-.54024,1.51971-1.37634l.39648-2.55713c.05975-.22543.05975-.42055.05975-.5555,0-.4234-.14288-1.17458-1.09991-1.44847-.01935-.00554-.03888-.0105-.05847-.01485-.52954-.11752-.94415-.17464-1.26758-.17464h0Z"/><path class="uuid-d361cb64-c35c-4b55-9598-3fa1987d2b83" d="M656.46777,182.27051c-.30566,0-1.23535,0-1.59668-1.00684l-6.44824-16.7207c-.05371-.16211-.10742-.32617-.10742-.51758,0-.28613.11426-.9502,1.1748-.9502h3.30078c.81445,0,1.3418.37109,1.56641,1.10352l2.84863,8.7334c.1709.5127.33398,1.04785.48242,1.55664.14355-.48633.29688-.99219.44238-1.44336l2.92676-8.81934c.27441-.93555.85449-1.13086,1.6377-1.13086h2.70117c.92285,0,1.25.55273,1.25,1.02539,0,.15234-.03418.2832-.06641.40918-.00586.01953-.03516.13184-.04297.15039l-6.56543,16.58105c-.28809.72168-.75195,1.0293-1.55273,1.0293h-1.95117Z"/><path class="uuid-f574127d-fddb-4c60-9358-8fda8bec1cf1" d="M665.39685,163.5753c.48706,0,.75006.18794.75006.52501,0,.11295-.03796.22501-.07501.3759l-6.56494,16.58092c-.22504.56296-.52594.71297-1.08801.71297h-1.95093c-.56299,0-.93799-.15001-1.12598-.67502l-6.45197-16.73181c-.03796-.11295-.07501-.22501-.07501-.33795,0-.30002.18707-.45001.67505-.45001h3.30096c.638,0,.93799.26294,1.08801.75002l2.85095,8.74181c.37592,1.12505.71301,2.36304.93799,3.18806h.03796c.18707-.71208.56293-2.02509.90002-3.076l2.92596-8.81592c.18799-.63797.48798-.78796,1.16302-.78796h2.70184M665.39685,162.5753h-2.70184c-.78156,0-1.72913.1711-2.12225,1.50533l-2.88611,8.69403c-.00275-.00818-.00543-.01628-.00818-.02444l-2.84863-8.73495c-.28418-.92299-1.00995-1.43996-2.03876-1.43996h-3.30096c-1.23633,0-1.67505.78111-1.67505,1.45001,0,.27841.07654.506.12714.6566l6.4668,16.77295c.30945.8651,1.00507,1.31523,2.05902,1.31523h1.95093c.63544,0,1.53583-.13908,2.0166-1.34178l6.5661-16.58397c.01672-.04224.03058-.08557.04138-.12967l.02087-.08134c.03699-.14107.08301-.31662.08301-.53302,0-.75908-.54114-1.52501-1.75006-1.52501h0Z"/><path class="uuid-d361cb64-c35c-4b55-9598-3fa1987d2b83" d="M676.27734,182.71973c-6.09277,0-9.87793-3.87109-9.87793-10.10352,0-5.99902,3.93945-10.0293,9.80273-10.0293,2.33105,0,4.35059.83203,5.8418,2.40723,1.60254,1.67383,2.34961,3.91797,2.34961,7.05957v.5625c0,1.31738-.69531,1.58789-1.73828,1.58789h-10.41211c.46875,2.37402,2.2959,3.87695,4.78516,3.87695,1.38281,0,2.95898-.30859,4.4375-.86816.09473-.02637.12598-.04004.15723-.05176.10449-.03809.24805-.0918.43262-.0918.49609,0,.88379.31836,1.00977.83008l.52246,1.89941.0293.13574c.03418.16406.06348.30566.06348.44727,0,.71973-.65918.99609-.90723,1.09961-2.03223.91211-4.69043,1.23828-6.49609,1.23828ZM678.92578,170.24121c-.08594-1.4707-.91309-3.16504-2.98535-3.16504-2.10547,0-3.2168,1.59863-3.59961,3.16504h6.58496Z"/><path class="uuid-f574127d-fddb-4c60-9358-8fda8bec1cf1" d="M676.20258,163.08734c2.28888,0,4.16486.86298,5.47784,2.25096,1.72504,1.80095,2.21301,4.16487,2.21301,6.71584v.56209c0,.90091-.29999,1.08798-1.23798,1.08798h-10.99188c.29999,2.88893,2.40094,4.87695,5.36493,4.87695,1.57501,0,3.22595-.37502,4.61395-.90004.15002-.03706.26294-.11206.41296-.11206.26208,0,.45001.15001.52502.45001l.52502,1.91301c.03796.18796.07501.33797.07501.45003,0,.26294-.15002.45001-.60004.63795-1.83801.82504-4.35193,1.20006-6.30286,1.20006-5.88995,0-9.37805-3.75104-9.37805-9.6039,0-5.62698,3.71399-9.52888,9.30304-9.52888M671.73859,170.74115h7.69086v-.41295c-.07501-1.95096-1.20093-3.75191-3.48895-3.75191-2.4389,0-3.90192,1.95096-4.2019,4.16486M676.20258,162.08734c-6.06628,0-10.30304,4.32964-10.30304,10.52888,0,6.54071,3.97662,10.6039,10.37805,10.6039,1.85809,0,4.59723-.33829,6.7124-1.28777.7818-.32614,1.19049-.85124,1.19049-1.55025,0-.1938-.03784-.37466-.07446-.54958l-.02032-.09846c-.00458-.02238-.00983-.04462-.01587-.06665l-.52502-1.91301c-.17761-.7114-.76453-1.18535-1.48938-1.18535-.27576,0-.48444.07809-.60913.12476l-.05035.01828c-.0387.00957-.07001.01961-.1073.03371-1.42413.53868-2.93707.83536-4.26013.83536-2.01495,0-3.5462-1.09763-4.13672-2.87695h9.76367c.96075,0,2.23798-.21645,2.23798-2.08798v-.56209c0-3.2796-.7915-5.63341-2.49084-7.40756-1.55963-1.64874-3.76306-2.55923-6.20001-2.55923h0ZM673.02216,169.74115c.45062-1.1515,1.37793-2.16486,2.91833-2.16486,1.70538,0,2.24371,1.31476,2.41339,2.16486h-5.33173Z"/><path class="uuid-d361cb64-c35c-4b55-9598-3fa1987d2b83" d="M688.20996,182.27051c-.87695,0-1.40039-.53809-1.40039-1.43848v-16.31836c0-.65625.24902-1.43848,1.4375-1.43848h2.40137c1.19434,0,1.41797.69238,1.43652,1.14941.93555-.90527,2.18555-1.6377,4.07812-1.6377.28223,0,.67285.05469,1.15918.16309.52539.15039.7666.4668.7666.97559,0,.13672,0,.30664-.06445.49707l-.3916,2.58008c-.0625.55469-.4541.91113-1.01953.91113h-.15039c-.04004,0-.08105-.00488-.12012-.01465-.24414-.06055-.57812-.09668-.89258-.09668-1.09863,0-2.27246.56543-3.10156,1.48633v11.74316c0,.91406-.50977,1.43848-1.39941,1.43848h-2.73926Z"/><path class="uuid-f574127d-fddb-4c60-9358-8fda8bec1cf1" d="M696.16302,163.08734c.29999,0,.71295.07588,1.0509.15088.26208.07501.375.18707.375.48708,0,.11295,0,.22502-.0379.33797l-.41211,2.66304c-.0379.33795-.22589.48796-.52588.48796h-.15002c-.29999-.07501-.67499-.11208-1.01294-.11208-1.27509,0-2.66309.67503-3.60101,1.80008v11.92986c0,.60091-.263.93797-.90009.93797h-2.73889c-.60004,0-.90094-.3-.90094-.93797v-16.31885c0-.75003.37592-.93797.93799-.93797h2.401c.60089,0,.93793.18794.93793.71297l.03796,1.20004c1.16296-1.463,2.43805-2.40097,4.539-2.40097M696.16302,162.08734c-1.68481,0-2.89569.52998-3.83221,1.25722-.27985-.43877-.80951-.76926-1.68268-.76926h-2.401c-1.2135,0-1.93799.72447-1.93799,1.93797v16.31885c0,1.17726.74615,1.93797,1.90094,1.93797h2.73889c1.15424,0,1.90009-.76071,1.90009-1.93797v-11.54459c.7207-.72823,1.70959-1.18535,2.60101-1.18535.27655,0,.56451.03073.77039.0822.07935.01984.16077.02988.24255.02988h.15002c.82941,0,1.42584-.54031,1.51965-1.37651l.39661-2.55716c.05963-.22534.05963-.42039.05963-.5553,0-.73108-.39062-1.24548-1.09985-1.44847-.01935-.00554-.03888-.0105-.05847-.01485-.52954-.11752-.94415-.17464-1.26758-.17464h0Z"/></g></svg>