<?xml version="1.0" encoding="UTF-8"?><svg id="uuid-c9b46b05-5a20-4f94-8cb0-9b0a53814031" xmlns="http://www.w3.org/2000/svg" xmlns:xlink="http://www.w3.org/1999/xlink" viewBox="0 0 960 240"><defs><style>.uuid-0be3c06f-3ae3-4224-a58b-66e37f93f568{fill:url(#uuid-4d3f0461-1969-45eb-9f8e-e6e4b265c4a1);}.uuid-0be3c06f-3ae3-4224-a58b-66e37f93f568,.uuid-cd89e59a-1028-40b1-a4b2-2a791adce14d,.uuid-5814d1be-2f3f-49c2-9ef1-43544f807bfa,.uuid-43a14bde-b469-45cb-bd19-66fce7ac974b,.uuid-7058a9db-bb15-41e3-93ed-0ddca124a196{stroke-width:0px;}.uuid-cd89e59a-1028-40b1-a4b2-2a791adce14d{fill:#808285;}.uuid-5814d1be-2f3f-49c2-9ef1-43544f807bfa{fill:url(#uuid-953e1466-88e0-4878-a628-faf9f1b7f6a1);}.uuid-43a14bde-b469-45cb-bd19-66fce7ac974b{fill:#010f2e;}.uuid-7058a9db-bb15-41e3-93ed-0ddca124a196{fill:#fff;}</style><linearGradient id="uuid-4d3f0461-1969-45eb-9f8e-e6e4b265c4a1" x1="305.23559" y1="212.92383" x2="305.23559" y2="110.43311" gradientUnits="userSpaceOnUse"><stop offset="0" stop-color="#00459d"/><stop offset=".16367" stop-color="#00599e"/><stop offset=".53095" stop-color="#0081a2"/><stop offset=".82249" stop-color="#0099a5"/><stop offset="1" stop-color="#00a3a6"/></linearGradient><linearGradient id="uuid-953e1466-88e0-4878-a628-faf9f1b7f6a1" x1="382.93091" x2="382.93091" xlink:href="#uuid-4d3f0461-1969-45eb-9f8e-e6e4b265c4a1"/></defs><g id="uuid-8093d7f6-100b-43e2-930b-9199496d0e58"><path class="uuid-43a14bde-b469-45cb-bd19-66fce7ac974b" d="M321.5127,216.5c-.30664,0-.62012-.04004-.93164-.11719l-11.58105-4.62012c-1.78564-.8291-3.32031-1.5127-4.66016-2.11035-7.60693-3.39258-9.18994-4.09863-10.04248-10.67871-1.44385-11.14062-1.39941-16.1709.15723-17.94238.44336-.50488,1.01855-.75977,1.70996-.75977.93652,0,2.09131.45898,3.74414,1.49023,3.73438,2.32812,18.14209,11.81738,20.40918,15.70117,1.23047,2.10742,3.44238,9.53418,4.52441,14.5166.26172,1.20605.0083,2.39844-.69482,3.27051-.64014.79395-1.60059,1.25-2.63477,1.25Z"/><path class="uuid-7058a9db-bb15-41e3-93ed-0ddca124a196" d="M296.16464,180.77109c.9093-.00021,2.07114.53639,3.4794,1.41452,3.65405,2.2785,18.0434,11.76263,20.2421,15.52942,1.16409,1.99431,3.37473,9.33826,4.46747,14.37103.46698,2.15082-.92783,3.91394-2.8403,3.91394-.26169,0-.53287-.03297-.81049-.10249l-11.51743-4.59854c-11.68961-5.4334-13.43045-4.96771-14.39224-12.38959-1.77014-13.65964-1.25455-18.13765,1.37149-18.13829M296.16519,179.77109h-.00024c-.82986.0002-1.55121.32207-2.08603.9308-1.68576,1.91881-1.76096,6.88837-.27747,18.33601.88882,6.85883,2.70236,7.66754,10.33508,11.07124,1.34595.6002,2.87143,1.28049,4.62735,2.09665.01669.00775.0336.01505.05069.02188l11.51743,4.59854c.04166.01663.08441.03044.1279.04134.35098.08789.70538.13245,1.05341.13245,1.18585,0,2.28784-.52328,3.02341-1.43568.79877-.9908,1.08823-2.33592.79413-3.69043-1.08954-5.01801-3.32797-12.5162-4.58105-14.66296-2.67285-4.57909-20.3988-15.76297-20.57663-15.87386-1.73682-1.08302-2.97293-1.56598-4.00797-1.56598h0Z"/><path class="uuid-43a14bde-b469-45cb-bd19-66fce7ac974b" d="M278.54199,157.75977c-2.13086,0-5.76172-1.36035-12.1416-4.55078-4.6875-2.34375-4.69678-3.7959-4.74219-10.77246-.00781-1.21777-.0166-2.6123-.05176-4.21973l.33203-10.36426c.26904-1.68848,1.58545-2.86816,3.13672-2.86816.57178,0,1.14062.16699,1.64453.48242,3.35742,2.09961,8.17139,5.71582,9.3457,7.23047,2.45508,3.16895,5.02148,20.07129,5.04541,20.24023.30029,2.07422.15039,3.28027-.50098,4.0332-.4541.52344-1.14941.78906-2.06787.78906h0Z"/><path class="uuid-7058a9db-bb15-41e3-93ed-0ddca124a196" d="M265.07523,125.48498c.46146,0,.93552.1282,1.37933.40575,3.38077,2.11417,8.11374,5.69152,9.2157,7.1135,2.0813,2.68578,4.4429,16.52284,4.94617,20.00462.38879,2.68977.0806,4.2515-2.07431,4.2515-2.02478,0-5.68011-1.37971-11.918-4.49886-5.19693-2.59863-4.28513-3.87491-4.51752-14.55582l.33139-10.33743c.23447-1.44913,1.39084-2.38327,2.63724-2.38327M265.07523,124.48498c-1.79791,0-3.32217,1.35569-3.62439,3.22354-.00687.04226-.01099.08492-.01233.12769l-.33139,10.33742c-.00058.01791-.00067.03586-.00027.05379.03491,1.60509.04388,2.99702.05173,4.21248.04446,6.88455.0564,8.73491,5.01831,11.21602,6.45441,3.2274,10.15244,4.60443,12.36523,4.60443,1.06985,0,1.89276-.32388,2.44586-.96266.95053-1.09781.84589-2.8564.61816-4.43188-.0246-.17007-2.57367-17.1554-5.14545-20.47411-1.20502-1.55498-6.08334-5.22726-9.47592-7.34883-.58362-.36497-1.24393-.55788-1.90955-.55788h0Z"/><path class="uuid-43a14bde-b469-45cb-bd19-66fce7ac974b" d="M366.65381,216.5c-1.03418,0-1.99463-.45605-2.63477-1.25-.70312-.87207-.95654-2.06445-.69482-3.27051,1.08203-4.98242,3.29395-12.40918,4.52441-14.5166,2.26709-3.88379,16.6748-13.37305,20.40918-15.70117,1.65332-1.03125,2.80762-1.49023,3.74414-1.49023.69141,0,1.26709.25488,1.70996.75977,1.55664,1.77148,1.60107,6.80176.15723,17.94238-.85254,6.58008-2.43555,7.28613-10.04248,10.67871-1.33984.59766-2.87451,1.28125-4.63477,2.09961l-11.54248,4.60938c-.37549.09863-.68896.13867-.99561.13867h0Z"/><path class="uuid-7058a9db-bb15-41e3-93ed-0ddca124a196" d="M392.00192,180.77109c2.62604,0,3.14163,4.47865,1.37149,18.13829-.96179,7.42188-2.70264,6.95619-14.39224,12.38959l-11.51743,4.59854c-.27762.06952-.5488.10249-.81049.10249-1.91248,0-3.30728-1.76312-2.8403-3.91394,1.09274-5.03278,3.30338-12.37672,4.46747-14.37103,2.1987-3.76678,16.58804-13.25092,20.2421-15.52942,1.40826-.87813,2.5701-1.41452,3.4794-1.41452M392.00192,179.77109c-1.03543,0-2.2717.48296-4.00851,1.56598-.17783.11089-17.90378,11.29477-20.57663,15.87386-1.25308,2.14676-3.49152,9.64496-4.58105,14.66296-.2941,1.35451-.00464,2.69963.79413,3.69043.73557.9124,1.83755,1.43568,3.02341,1.43568.34802,0,.70242-.04456,1.05341-.13245.04349-.01089.08624-.0247.1279-.04134l11.51743-4.59854c.01709-.00684.034-.01413.05069-.02188,1.75592-.81616,3.2814-1.49644,4.62735-2.09665,7.63272-3.4037,9.44626-4.21242,10.33508-11.07124,1.48361-11.44839,1.40839-16.41814-.27753-18.33661-.53476-.60855-1.25598-.93021-2.08566-.93021h0Z"/><path class="uuid-43a14bde-b469-45cb-bd19-66fce7ac974b" d="M336.52734,129.40234c-.07031,0-.14111-.01465-.20703-.04492-15.05127-6.84473-51.5459-18.61816-51.91309-18.73633-.20654-.06689-.34668-.25879-.34668-.47607v-6.44824c0-.16113.07764-.3125.2085-.40625.08594-.06201.18848-.09375.2915-.09375.05371,0,.10791.00879.16016.02637,25.73486,8.70898,51.80029,24.021,52.06104,24.17432.15234.08984.24561.25391.24561.43066v1.07422c0,.16992-.08643.32812-.22949.4209-.08203.05273-.17578.0791-.27051.0791Z"/><path class="uuid-7058a9db-bb15-41e3-93ed-0ddca124a196" d="M284.56049,103.69684c25.98343,8.79269,51.96683,24.13092,51.96683,24.13092v1.07471c-15.25171-6.93645-51.96683-18.75769-51.96683-18.75769v-6.44794M284.56055,102.69683c-.20651,0-.4108.06397-.58292.18744-.26187.18784-.41714.49033-.41714.81257v6.44794c0,.4342.28021.81879.69351.95187.36661.11804,36.83481,11.88297,51.85931,18.71609.13202.06004.27325.08972.41394.08972.18915,0,.37741-.05362.54135-.15918.28592-.18405.45871-.50078.45871-.84082v-1.07471c0-.35381-.18695-.68129-.49164-.86115-.26074-.15392-26.37109-15.49196-52.15466-24.217-.10458-.03539-.21283-.05278-.32047-.05278h0Z"/><path class="uuid-0be3c06f-3ae3-4224-a58b-66e37f93f568" d="M341.43311,212.92383c-.06396,0-.12793-.0127-.18896-.03711l-12.13281-4.95117c-.14258-.05859-.25049-.17871-.29248-.32715-1.72266-6.11816-3.35645-10.88379-4.26318-12.43848-3.16699-5.42383-22.36328-18.67676-28.55762-20.96289-1.40137-.51758-2.53662-.76855-3.46973-.76855-1.0249,0-1.81494.3125-2.41406.95605-1.74268,1.87109-2.19629,6.72559-1.51807,16.23145.0127.17188-.06543.33887-.20557.44043-.08691.0625-.18945.09473-.29297.09473-.06445,0-.12891-.0127-.19043-.03809l-.09717-.04004c-1.50879-.59082-3.26172-1.30566-5.20215-2.12207-5.98877-2.51758-12.10596-5.2832-13.7793-6.05469-.17773-.08203-.2915-.26074-.29053-.45605l.09375-22.92285c.00049-.16797.08594-.3252.22656-.41699.08252-.05371.17773-.08105.27344-.08105.06787,0,.13574.01367.19971.04199,5.96924,2.59863,9.67578,3.75684,12.01758,3.75684,2.60693,0,3.70312-1.39941,3.91016-4.99023.31641-5.50195-3.26416-24.06152-6.24902-27.91406-1.02148-1.31738-5.13721-4.60742-10.00879-8.00098-.13477-.09375-.21484-.24805-.21436-.41211l.04297-10.57959c.00049-.15918.07715-.30908.20605-.40234.08643-.06299.18945-.0957.29395-.0957.05127,0,.10254.00781.15234.02393,23.38477,7.48535,48.21729,15.61328,72.14014,25.41016.18799.07715.31055.25977.31055.46289v76.09375c0,.16699-.08301.32227-.22119.41504-.0835.05664-.18066.08496-.27881.08496Z"/><path class="uuid-7058a9db-bb15-41e3-93ed-0ddca124a196" d="M269.33029,110.93324c24.27368,7.76971,48.52405,15.74095,72.10303,25.39657v76.09383l-12.13309-4.95062c-1.55008-5.5049-3.27863-10.78281-4.31287-12.55475-3.19424-5.47232-22.48145-18.84236-28.81573-21.18002-1.41205-.52112-2.61987-.79971-3.64288-.79971-4.32846,0-5.34003,4.99129-4.43112,17.72263l-.09723-.03966c-1.61954-.63527-3.39456-1.36282-5.19858-2.12115l-.03091-.01262.00034-.00027c-5.91095-2.48538-12.07639-5.27161-13.73294-6.03496l.09363-22.92302c5.74829,2.50224,9.6463,3.79881,12.21716,3.79881,3.00516,0,4.19687-1.77213,4.40915-5.46176.32431-5.63811-3.32935-24.3472-6.35306-28.24907-1.17874-1.52103-5.80112-5.09744-10.11807-8.10497l.04318-10.57925M269.33035,109.93324c-.20871,0-.41498.06534-.58798.19108-.25772.18731-.41077.48623-.41208.80485l-.04315,10.57925c-.00137.32854.15878.63678.42834.82458,4.75964,3.31593,8.92288,6.6371,9.89926,7.89702,2.86105,3.69194,6.45026,22.27489,6.14514,27.57907-.21744,3.77972-1.41525,4.5192-3.4108,4.5192-2.26981,0-5.91464-1.14597-11.81802-3.7157-.12784-.05565-.26373-.08311-.39908-.08311-.19125,0-.38147.05482-.54648.16248-.28174.18384-.45218.49702-.45355.83345l-.09363,22.92302c-.00162.39174.22568.74834.58145.91229,1.68048.77437,7.81619,3.54776,13.76385,6.04857,1.97391.82977,3.73047,1.54649,5.25159,2.14316l.08484.0347c.1217.04964.24994.07402.37747.07402.20779,0,.41376-.06473.58716-.19048.27982-.20293.435-.53596.4104-.88074-.66776-9.35312-.2536-14.0945,1.38483-15.85405.50653-.54399,1.15756-.79736,2.04883-.79736.87296,0,1.95129.24136,3.29666.73787,5.98328,2.20811,25.2514,15.52609,28.29831,20.74597.88712,1.51987,2.5018,6.24127,4.21393,12.32169.08359.29675.29935.53838.58481.65485l12.13309,4.95064c.12167.04964.24997.0741.37769.0741.19595,0,.3905-.05754.55786-.17.27643-.18576.44223-.49695.44223-.83v-76.09383c0-.40591-.24539-.77158-.62106-.92542-23.9491-9.80718-48.78815-17.93703-72.17712-25.42355-.09976-.03193-.20258-.0476-.30478-.0476h0Z"/><path class="uuid-43a14bde-b469-45cb-bd19-66fce7ac974b" d="M351.63916,129.40234c-.09473,0-.18848-.02637-.27051-.0791-.14307-.09277-.22949-.25098-.22949-.4209v-1.07422c0-.17676.09326-.34082.24561-.43066.26074-.15332,26.32617-15.46533,52.06104-24.17432.05225-.01758.10645-.02637.16016-.02637.10303,0,.20557.03174.2915.09375.13086.09375.2085.24512.2085.40625v6.44824c0,.21729-.14014.40918-.34668.47607-.36719.11816-36.86182,11.8916-51.91309,18.73633-.06592.03027-.13672.04492-.20703.04492Z"/><path class="uuid-7058a9db-bb15-41e3-93ed-0ddca124a196" d="M403.60611,103.69684v6.44794s-36.71515,11.82124-51.96686,18.75769v-1.07471s25.98343-15.33823,51.96686-24.13092M403.60605,102.69683c-.10767,0-.21588.01738-.32047.05278-25.78357,8.72504-51.89395,24.06309-52.15469,24.217-.30466.17986-.49164.50733-.49164.86115v1.07471c0,.34004.17279.65677.45871.84082.16394.10555.3522.15918.54135.15918.14072,0,.28189-.02968.41394-.08972,15.02533-6.83349,51.49274-18.59806,51.85934-18.71609.4133-.13308.69351-.51767.69351-.95187v-6.44794c0-.32224-.1553-.62473-.41714-.81257-.17209-.12346-.37643-.18744-.58292-.18744h0Z"/><path class="uuid-5814d1be-2f3f-49c2-9ef1-43544f807bfa" d="M346.7334,212.92383c-.09814,0-.19531-.02832-.27881-.08496-.13818-.09277-.22119-.24805-.22119-.41504v-76.09375c0-.20312.12256-.38574.31055-.46289,23.92285-9.79688,48.75537-17.9248,72.14014-25.41016.0498-.01611.10107-.02393.15234-.02393.10449,0,.20752.03271.29395.0957.12891.09326.20557.24316.20605.40234l.04297,10.57959c.00049.16406-.07959.31836-.21436.41211-4.87158,3.39355-8.98779,6.68359-10.00879,8.00098-2.98486,3.85254-6.56543,22.41211-6.24902,27.91406.20703,3.59082,1.30322,4.99023,3.91016,4.99023,2.3418,0,6.04834-1.1582,12.01758-3.75684.06396-.02832.13184-.04199.19971-.04199.0957,0,.19092.02734.27344.08105.14062.0918.22607.24902.22656.41699l.09375,22.92285c.00098.19531-.11279.37402-.29053.45605-1.67334.77148-7.79053,3.53711-13.74854,6.04199-1.97119.8291-3.72412,1.54395-5.24072,2.13867l-.08936.03613c-.06152.02539-.12598.03809-.19043.03809-.10352,0-.20605-.03223-.29297-.09473-.14014-.10156-.21826-.26855-.20557-.44043.67871-9.50586.2251-14.36035-1.51709-16.23047-.59912-.64453-1.38916-.95703-2.41504-.95703-.93311,0-2.06836.25098-3.46973.76855-6.19434,2.28613-25.39062,15.53906-28.55762,20.96289-.90674,1.55469-2.54053,6.32031-4.26318,12.43848-.04199.14844-.1499.26855-.29248.32715l-12.13281,4.95117c-.06104.02441-.125.03711-.18896.03711Z"/><path class="uuid-7058a9db-bb15-41e3-93ed-0ddca124a196" d="M418.8363,110.93324l.04315,10.57925c-4.31696,3.00752-8.93933,6.58394-10.11807,8.10497-3.02368,3.90187-6.67737,22.61096-6.35303,28.24907.21228,3.69005,1.40323,5.46176,4.40912,5.46176,2.57092,0,6.46967-1.29691,12.21719-3.79881l.0936,22.92302c-1.65652.76335-7.82196,3.54958-13.73291,6.03496l.00034.00027-.03091.01262c-1.80402.75833-3.57904,1.48589-5.19858,2.12115l-.09723.03966c.90897-12.7323-.10184-17.72263-4.43115-17.72263-1.02277,0-2.23126.27875-3.64285.79971-6.33432,2.33766-25.62152,15.7077-28.81573,21.18002-1.03427,1.77194-2.76282,7.04985-4.3129,12.55475l-12.13309,4.95062v-76.09383c23.57901-9.65562,47.82938-17.62686,72.10306-25.39657M418.83624,109.93324c-.10223,0-.20502.01567-.30478.0476-23.38898,7.48653-48.22803,15.61637-72.17715,25.42355-.37567.15384-.62106.5195-.62106.92542v76.09383c0,.33305.1658.64424.44223.83.16733.11246.36194.17.55786.17.12772,0,.25601-.02444.37769-.0741l12.13309-4.95064c.28546-.11647.50122-.35809.58481-.65485,1.71213-6.08044,3.32681-10.80185,4.21396-12.32169,3.04688-5.21989,22.315-18.53786,28.29831-20.74597,1.34537-.49651,2.42371-.73787,3.29663-.73787.89163,0,1.54285.25339,2.04944.79744,1.63803,1.75916,2.05203,6.50053,1.38425,15.85397-.0246.34477.13058.67781.4104.88074.17337.12575.37939.19048.58716.19048.12756,0,.25574-.02438.37747-.07402l.09723-.03964c1.50873-.59172,3.26529-1.30844,5.20853-2.12529,5.9812-2.51494,12.1149-5.28752,13.79449-6.06149.35577-.16396.58307-.52055.58145-.91229l-.0936-22.92302c-.00137-.33643-.17181-.64961-.45355-.83345-.16501-.10764-.35522-.16248-.54648-.16248-.13538,0-.27124.02747-.39908.08311-5.90335,2.56973-9.54819,3.7157-11.81805,3.7157-1.99551,0-3.19333-.73947-3.41077-4.5192-.30511-5.30414,3.28406-23.88707,6.14511-27.57909.97638-1.2599,5.13962-4.58107,9.89926-7.897.26956-.18781.42972-.49605.42834-.82458l-.04312-10.57925c-.00131-.31862-.15436-.61754-.41208-.80485-.173-.12573-.3793-.19108-.58798-.19108h0Z"/><path class="uuid-43a14bde-b469-45cb-bd19-66fce7ac974b" d="M409.62451,157.75977c-.91797,0-1.61377-.26562-2.06787-.79004-.65137-.75195-.80127-1.95801-.50098-4.03223.02393-.16895,2.59033-17.07129,5.04492-20.24023,1.1748-1.51465,5.98877-5.13086,9.34619-7.23047.50391-.31543,1.07275-.48242,1.64453-.48242,1.55127,0,2.86768,1.17969,3.13086,2.80371l.3374,10.40234c-.03467,1.63379-.04346,3.02832-.05127,4.24609-.04541,6.97656-.05469,8.42871-4.74219,10.77246-6.37988,3.19043-10.01123,4.55078-12.1416,4.55078Z"/><path class="uuid-7058a9db-bb15-41e3-93ed-0ddca124a196" d="M423.09134,125.48498c1.2464-.00015,2.40277.93414,2.63724,2.38327l.33139,10.33743c-.23239,10.68091.67941,11.95718-4.51752,14.55582-6.23788,3.11914-9.89322,4.49886-11.918,4.49886-2.15491,0-2.4631-1.56172-2.07431-4.2515.50327-3.48178,2.86487-17.31885,4.94617-20.00462,1.10196-1.42198,5.83493-4.99933,9.2157-7.1135.44382-.27754.91788-.40569,1.37933-.40575M423.09167,124.48498h-.00012c-.66586.00008-1.32626.19299-1.90976.55788-3.39258,2.12157-8.2709,5.79385-9.47592,7.34883-2.57178,3.31871-5.12085,20.30403-5.14545,20.47409-.22772,1.5755-.33237,3.33409.61816,4.4319.5531.63878,1.37601.96266,2.44586.96266,2.2128,0,5.91083-1.37703,12.36523-4.60443,4.96191-2.48111,4.97385-4.33147,5.01831-11.21602.00784-1.21545.01682-2.60739.05173-4.21248.0004-.01793.00031-.03587-.00027-.05379l-.33139-10.33742c-.00134-.04278-.00546-.08543-.01233-.12769-.30222-1.86785-1.82635-3.22354-3.62405-3.22354h0Z"/><path class="uuid-43a14bde-b469-45cb-bd19-66fce7ac974b" d="M348.37939,53.68701c-.08252,0-.16504-.02051-.23975-.06104l-8.55518-4.67432c-.17871-.09766-.28027-.29443-.25684-.49658l2.71631-23.39893c.10596-.91602.82959-1.55615,1.75928-1.55615.92773,0,1.65137.63867,1.75928,1.55273l3.31348,28.07568c.02197.18555-.06152.36816-.2168.47314-.08398.05664-.18164.08545-.27979.08545Z"/><path class="uuid-7058a9db-bb15-41e3-93ed-0ddca124a196" d="M343.80325,24c.58746,0,1.17505.37042,1.26248,1.11146l3.31345,28.07551-8.55493-4.67411,2.71606-23.39903c.08615-.74248.67447-1.11383,1.26294-1.11383M343.80325,23c-1.173,0-2.12192.84052-2.25629,1.99857l-2.71606,23.39899c-.04697.40473.15631.7975.51389.99286l8.55493,4.67411c.14984.08187.31485.12244.4794.12244.19598,0,.39133-.05752.55984-.17135.31-.20941.47717-.57434.43332-.94586l-3.31345-28.07551c-.13855-1.17417-1.06607-1.99425-2.25558-1.99425h0Z"/><path class="uuid-43a14bde-b469-45cb-bd19-66fce7ac974b" d="M350.93115,75.30811c-.08154,0-.1626-.02002-.2373-.05957l-13.32617-7.17725c-.18018-.09717-.2832-.29443-.25928-.49805l1.64844-14.19824c.01904-.16504.11914-.31006.26709-.38672.07178-.03711.15088-.05566.22949-.05566.08252,0,.16504.02051.23975.06152l9.78662,5.35352c.14209.07764.23779.21924.25684.37988l1.89111,16.02197c.02197.18506-.06104.36719-.21533.47217-.08447.05713-.18262.08643-.28125.08643Z"/><path class="uuid-7058a9db-bb15-41e3-93ed-0ddca124a196" d="M339.2532,53.43251l9.78683,5.35339,1.89087,16.02236-13.32584-7.17715,1.64813-14.19859M339.2532,52.43251c-.15759,0-.31525.03721-.45944.11179-.29541.15282-.49554.44252-.53387.77292l-1.64813,14.19859c-.04724.40691.15848.80148.51913.99572l13.32584,7.17716c.1485.07998.31152.11958.47412.11958.19699,0,.39331-.05814.56232-.17303.30847-.20973.47458-.57372.43085-.94416l-1.89087-16.02236c-.03793-.32151-.22919-.60476-.51321-.76013l-9.78683-5.35339c-.14938-.08172-.31461-.12268-.47989-.12268h0Z"/><path class="uuid-43a14bde-b469-45cb-bd19-66fce7ac974b" d="M344.02979,125.9043c-.08643,0-.17334-.02246-.25049-.06738l-1.40381-.81348c-6.3877-3.68262-22.55469-12.75342-34.66602-17.41553-.21143-.08154-.3418-.29492-.31738-.52051.29834-2.76611.65039-5.23975,1.07471-7.54688-1.76855-.85889-3.33398-1.60059-4.71777-2.25635-8.11621-3.84619-10.29736-4.88037-10.42432-9.46582-.00879-.33154-.02637-.80713-.04834-1.396-.33252-8.99658-.4668-19.5791,1.46191-21.58057.33496-.34814.68506-.4209.91943-.4209.15381,0,.31104.03027.46729.09082.14551.05615,14.65674,5.77832,18.3999,11.29932.80469,1.18799,1.52295,2.26514,2.17188,3.2373,3.45459,5.17969,4.88477,7.32373,6.78662,7.32373h.00098c1.35547,0,3.1543-1.01074,6.13428-2.68555.66602-.37402,1.39014-.78076,2.18262-1.21777.04297-.02393.08936-.04053.13623-.05078l3.66895-1.90576.91748-7.90381c.01904-.16504.11914-.31006.26709-.38672.07178-.03711.15088-.05566.22949-.05566.08252,0,.16504.02051.23975.06152l14.6001,7.98633c.02637.01416.05078.03027.07324.04883l4.15527,2.1582c.04736.00977.09326.02686.13672.05127.71973.41016,1.3833.79443,1.99854,1.1499,3.13818,1.81445,5.03223,2.90967,6.40137,2.90918,1.78662,0,3.06592-1.94434,6.15723-6.64209.78125-1.1875,1.67285-2.54297,2.71338-4.07812,2.14111-3.1582,8.18799-6.60889,17.97266-10.25488l.6333-.23779c.16016-.06201.3208-.09326.47803-.09326.23682,0,.58936.07373.92529.42432,1.81445,1.896,1.65771,11.32568,1.26514,20.2998-.03516.80518-.06348,1.44824-.07471,1.86914-.12646,4.58594-2.30811,5.61963-10.4248,9.46582-1.38379.65576-2.94873,1.39746-4.71729,2.25635.42383,2.30225.77588,4.77588,1.07471,7.54688.02441.22559-.10596.43896-.31738.52051-12.11572,4.66406-28.2793,13.73291-34.66602,17.4165l-1.35938.80957c-.07861.04688-.16748.07031-.25586.07031ZM377.9209,92.04395c.15381.73877.5249,1.43262.76514,1.82666,4.88672-2.23389,7.9209-4.11084,9.31201-5.04346.53223-.35742.90283-.9082,1.04248-1.55176,1.09912-5.05469.57764-12.8042.38574-15.12158-5.28467,2.24805-8.74121,4.28955-10.01416,5.91846-1.21533,1.55469-1.97314,2.63623-2.36865,3.22461,1.86133-.10986,6.84375-2.90137,8.64209-3.99023.07959-.04834.16895-.07227.25879-.07227.08936,0,.17871.02393.2583.07178.15918.09619.25195.27197.24072.45752-.06445,1.09961-.07129,2.13037-.07764,3.12793-.01855,2.89697-.0332,5.18506-1.49219,6.61816-2.5332,2.48926-5.84912,4.05469-6.95264,4.53418ZM298.67676,72.15381c-.19189,2.31738-.71338,10.06689.38574,15.12158.13965.64355.51025,1.19434,1.04248,1.55176,1.39111.93262,4.42529,2.80957,9.31201,5.04346.24023-.39404.61133-1.08789.76514-1.82666-1.10352-.47949-4.41943-2.04492-6.95264-4.53418-1.45898-1.43311-1.47363-3.72119-1.49219-6.61816-.00635-.99756-.01318-2.02832-.07764-3.12793-.01123-.18555.08154-.36133.24072-.45752.07959-.04785.16895-.07178.2583-.07178.08984,0,.1792.02393.25879.07227,1.79834,1.08887,6.78076,3.88037,8.64209,3.99072-.39551-.58887-1.15332-1.67041-2.36865-3.2251-1.27246-1.62891-4.729-3.66992-10.01416-5.91846Z"/><path class="uuid-7058a9db-bb15-41e3-93ed-0ddca124a196" d="M295.65744,64.921c.09174.00006.18781.0188.28738.05726,1.93964.74917,14.76605,6.09792,18.16599,11.11368,5.24567,7.73865,6.81061,10.78033,9.3735,10.78033,1.80835,0,4.11395-1.51583,8.55829-3.96535-.00104.00728-.00104.01368-.00201.02097l4.03201-2.09449.94806-8.16751,14.60007,7.98624.0014.01192,4.35806,2.26383c-.00098-.00729-.00098-.01369-.00204-.02097,4.53592,2.58599,6.86093,4.12453,8.64713,4.12453,2.56094,0,4.01398-3.1638,9.28479-10.93951,3.3999-5.01575,16.43271-9.55833,18.37231-10.30751.10382-.0401.20273-.05949.29764-.05949,2.93088,0,1.71219,18.59477,1.61584,22.07982-.13943,5.0517-2.70721,5.36829-15.20346,11.45243.50214,2.65775.85825,5.27963,1.13907,7.88372-12.28378,4.729-28.85251,14.05731-34.73651,17.44968l-1.36514.81335-1.40399-.81335c-5.88394-3.39236-22.45273-12.72067-34.73651-17.44968.28079-2.60409.63684-5.22597,1.13898-7.88372-12.49609-6.08414-15.06387-6.40073-15.20337-11.45243-.09647-3.48966-1.12494-22.88583,1.83252-22.88375M376.93433,81.80027c2.29517,0,9.00986-4.06609,9.00986-4.06609-.25,4.24442.35489,7.67405-1.42108,9.41917-2.98065,2.92889-7.15585,4.58061-7.15585,4.58061.14197,1.42004,1.13599,2.76913,1.13599,2.76913,5.13556-2.32091,8.3136-4.28176,9.77292-5.2607.64832-.43495,1.08707-1.09794,1.25299-1.86079,1.33066-6.11992.33453-15.9544.33453-15.9544-5.29858,2.20998-9.34497,4.41717-10.84567,6.33697-1.97031,2.52061-2.74213,3.79663-2.74213,3.79663.12189.16621.35034.23946.65845.23946M309.5997,94.50309s.99402-1.34908,1.13608-2.76913c0,0-4.17529-1.65173-7.15594-4.58061-1.77597-1.74512-1.17105-5.17476-1.42108-9.41917,0,0,6.71515,4.06609,9.00986,4.06609.30786,0,.53662-.07335.65845-.23946,0,0-.77179-1.27602-2.74213-3.79663-1.5007-1.9198-5.54709-4.12698-10.84567-6.33697,0,0-.99603,9.83448.33456,15.9544.16592.76285.60464,1.42583,1.25296,1.86079,1.45932.97894,4.63736,2.93979,9.77292,5.2607M295.65698,63.92099c-.33136,0-.82175.09958-1.27869.57338-1.62918,1.6894-2.10806,8.25405-1.60126,21.95057.02167.58527.03915,1.05779.04828,1.38744.13507,4.89235,2.3754,5.95398,10.71094,9.90398,1.29251.6125,2.74347,1.30006,4.37085,2.08807-.3959,2.20885-.72812,4.5762-1.01202,7.20925-.04861.45065.21198.8776.63495,1.04045,12.07837,4.64992,28.2179,13.70532,34.59631,17.38277l1.40219.81232c.15509.08984.32822.1347.50125.1347.17715,0,.35425-.04701.51187-.14092l1.36514-.81335c6.36624-3.67027,22.50613-12.72581,34.58395-17.37552.42297-.16285.68353-.58982.63495-1.04045-.28394-2.63284-.61609-4.99997-1.01212-7.20924,1.62738-.78799,3.07834-1.47555,4.37085-2.08803,8.33563-3.95002,10.57602-5.01167,10.71103-9.90408.01163-.41985.03973-1.06095.07483-1.86333.48199-11.02052.42773-18.75232-1.40387-20.66576-.45752-.47798-.95209-.57831-1.28641-.57831-.21896,0-.44028.0426-.6579.12665-.14749.05697-.36017.13618-.62866.23624-10.02283,3.73517-15.97974,7.15111-18.21115,10.44302-1.04288,1.5385-1.9325,2.89048-2.71738,4.08331-2.89932,4.40624-4.2226,6.41729-5.73965,6.41729-1.23511,0-3.08569-1.06995-6.15164-2.8426-.61557-.35593-1.28012-.74013-2.00021-1.15067-.0668-.0381-.1369-.06787-.20871-.08936l-4.06506-2.11163c-.03159-.02271-.06464-.04357-.09903-.06238l-14.60007-7.98624c-.14938-.08172-.31461-.12267-.47989-.12268-.15759,0-.31525.03721-.45944.11179-.29541.15282-.49554.44252-.53387.7729l-.88684,7.64014-3.38449,1.75812c-.06729.02013-.13306.04755-.19611.08231-.79453.4379-1.52094.84606-2.18851,1.22118-2.90762,1.63378-4.66266,2.61993-5.88708,2.61993-1.6351,0-3.11966-2.22571-6.37234-7.1023-.64911-.97316-1.36798-2.05087-2.1734-3.23911-3.89288-5.74298-18.48648-11.42866-18.63345-11.48541-.21332-.08241-.43103-.12429-.64697-.12443h-.00116ZM378.19547,80.51946c.40567-.56367.93692-1.27786,1.61041-2.13942.83047-1.06242,3.10678-2.8568,9.17642-5.49129.21225,2.88268.56296,9.71214-.43033,14.2804-.11234.51641-.40814.95781-.83295,1.24283-1.3382.89767-4.21396,2.67806-8.82547,4.81294-.13507-.25677-.27707-.567-.38208-.89761,1.39291-.6384,4.37619-2.16495,6.71252-4.46069,1.60684-1.57895,1.62292-4.0781,1.64151-6.97188.00638-.99081.01294-2.01535.07697-3.10177.02182-.37087-.16376-.72329-.48193-.91514-.15878-.09576-.33762-.14364-.51639-.14364-.17938,0-.3587.04819-.51791.14456-1.98517,1.20181-5.23691,2.96233-7.23077,3.6407h0ZM309.20932,93.22491c-4.61145-2.13486-7.48718-3.91524-8.82547-4.81297-.42471-.28496-.72055-.72636-.83289-1.24287-.99319-4.56819-.64255-11.39763-.43033-14.28032,6.06964,2.6345,8.34595,4.42887,9.17642,5.49129.67349.86155,1.2049,1.57595,1.61057,2.13962-1.99417-.67825-5.246-2.43899-7.23093-3.64088-.15918-.09638-.33856-.14459-.51794-.14459-.17877,0-.35754.04787-.51636.14362-.31818.19185-.50375.54428-.4819.91517.064,1.08648.07059,2.11106.07697,3.10191.01859,2.89371.03464,5.39281,1.64148,6.97173,2.33633,2.29574,5.31961,3.82227,6.71259,4.46068-.10501.33051-.24704.64073-.3822.89761h0ZM385.94418,78.73418h.005-.005Z"/><path class="uuid-cd89e59a-1028-40b1-a4b2-2a791adce14d" d="M492.07031,180.38086c-1.13184,0-1.36914-.72656-1.36914-1.33594v-8.82812h-8.49609v8.82812c0,.86133-.47461,1.33594-1.33594,1.33594h-2.60889c-1.21973,0-1.40186-.83691-1.40186-1.33594v-21.5c0-.80371.53711-1.30371,1.40186-1.30371h2.60889c1.16211,0,1.33594.81641,1.33594,1.30371v8.22656h8.49609v-8.22656c0-.81641.51172-1.30371,1.36914-1.30371h2.6416c.84082,0,1.30371.46289,1.30371,1.30371v21.5c0,1.10449-.70898,1.33594-1.30371,1.33594h-2.6416Z"/><path class="uuid-7058a9db-bb15-41e3-93ed-0ddca124a196" d="M494.71222,156.74155c.53479,0,.80301.20134.80301.80301v21.50041c0,.60246-.23438.83604-.80301.83604h-2.64185c-.60168,0-.86908-.23358-.86908-.83604v-9.32861h-9.49615v9.32861c0,.60246-.26819.83604-.83603.83604h-2.6088c-.60168,0-.90213-.23358-.90213-.83604v-21.50041c0-.56863.36731-.80301.90213-.80301h2.6088c.53482,0,.83603.20134.83603.80301v8.72694h9.49615v-8.72694c0-.56863.33426-.80301.86908-.80301h2.64185M494.71222,155.74155h-2.64185c-1.11795,0-1.86908.72458-1.86908,1.80301v7.72694h-7.49615v-7.72694c0-1.11214-.70352-1.80301-1.83603-1.80301h-2.6088c-1.13773,0-1.90213.72458-1.90213,1.80301v21.50041c0,1.13251.72885,1.83604,1.90213,1.83604h2.6088c1.13251,0,1.83603-.70354,1.83603-1.83604v-8.32861h7.49615v8.32861c0,1.14967.69873,1.83604,1.86908,1.83604h2.64185c1.129,0,1.80301-.68637,1.80301-1.83604v-21.50041c0-1.12898-.67401-1.80301-1.80301-1.80301h0Z"/><path class="uuid-cd89e59a-1028-40b1-a4b2-2a791adce14d" d="M501.30176,180.38086c-1.13184,0-1.36914-.72656-1.36914-1.33594v-14.6123c0-.38184.13379-1.26953,1.36914-1.26953h2.33984c1.10449,0,1.33691.69043,1.33691,1.26953v14.6123c0,.86133-.47461,1.33594-1.33691,1.33594h-2.33984ZM502.43848,162.02344c-1.34473,0-2.77441-.90234-2.77441-2.57324,0-1.71484,1.42969-2.63965,2.77441-2.63965,1.32812,0,2.74023.91309,2.74023,2.60645,0,1.63184-1.39355,2.60645-2.74023,2.60645Z"/><path class="uuid-7058a9db-bb15-41e3-93ed-0ddca124a196" d="M502.43872,157.31018c1.13651,0,2.23996.7692,2.23996,2.10703,0,1.304-1.13651,2.10623-2.23996,2.10623s-2.27454-.73538-2.27454-2.0732c0-1.33705,1.10425-2.14006,2.27454-2.14006M503.64206,163.66348c.53482,0,.83606.16753.83606.7692v14.61229c0,.60246-.26743.83604-.83606.83604h-2.34061c-.60165,0-.86908-.23358-.86908-.83604v-14.61229c0-.56863.33426-.7692.86908-.7692h2.34061M502.43872,156.31018c-1.83618,0-3.27454,1.37927-3.27454,3.14006,0,1.92366,1.66492,3.0732,3.27454,3.0732,1.59262,0,3.23996-1.16188,3.23996-3.10623,0-1.7713-1.39288-3.10703-3.23996-3.10703h0ZM503.64206,162.66348h-2.34061c-1.13544,0-1.86908.69446-1.86908,1.7692v14.61229c0,1.14967.69873,1.83604,1.86908,1.83604h2.34061c1.13251,0,1.83606-.70352,1.83606-1.83604v-14.61229c0-1.10782-.68637-1.7692-1.83606-1.7692h0Z"/><path class="uuid-cd89e59a-1028-40b1-a4b2-2a791adce14d" d="M513.24023,180.78223c-1.66895,0-3.61914-.44238-5.35254-1.21289-.44336-.19727-.69824-.55859-.69824-.99219,0-.18262.05273-.34277.0918-.45898l.53223-1.69727c.22266-.73828.73535-.81836.94531-.81836.11914,0,.29785,0,.55566.10352,1.55469.63574,3.02148,1,4.02637,1,.9541,0,1.97461-.33398,1.97461-1.27148,0-.55078-.26953-.9541-1.68848-1.50781l-2.6377-1.00098c-2.3916-.88184-3.7666-2.67383-3.7666-4.91504,0-3.62891,3.39648-5.28223,6.55273-5.28223,1.82227,0,3.42676.33203,5.0498,1.0459.19043.09473.7002.34961.7002.92578,0,.14062-.03125.26172-.05957.36914-.00195.00781-.02734.10742-.03027.11523l-.56934,1.80566c-.12305.4375-.4873.71777-.94434.71777-.1875,0-.38867-.05762-.49219-.0918-1.20898-.47656-2.55469-.77832-3.4541-.77832-1.10352,0-1.60645.53906-1.60645,1.03906,0,.40723.09766.75684,1.32227,1.24023l3.0166,1.23926c2.24902.93555,3.48633,2.61914,3.48633,4.74316,0,3.92578-3.49316,5.68262-6.9541,5.68262Z"/><path class="uuid-7058a9db-bb15-41e3-93ed-0ddca124a196" d="M513.77527,163.22856c1.60565,0,3.17706.26819,4.84912,1.00356.2674.13371.40112.26741.40112.46797,0,.10068-.03381.20056-.06683.33426l-.56866,1.80579c-.06683.23439-.23438.36809-.46796.36809-.10065,0-.23438-.03381-.33423-.06685-1.10345-.43494-2.54199-.80301-3.612-.80301-1.40466,0-2.10703.76918-2.10703,1.53838,0,.73538.36807,1.20413,1.63907,1.70512l3.00952,1.23795c1.77197.73537,3.17664,2.10623,3.17664,4.28011,0,3.51091-3.04297,5.18221-6.45355,5.18221-1.73895,0-3.64542-.50099-5.14999-1.1703-.30124-.1337-.40112-.33426-.40112-.53481,0-.0999.03305-.20056.06686-.30045l.53482-1.70592c.10068-.33426.2674-.46796.46796-.46796.10068,0,.20135,0,.36807.06685,1.47153.60167,3.04297,1.03661,4.21326,1.03661,1.47192,0,2.47473-.66852,2.47473-1.77197,0-.93672-.6355-1.43771-2.00677-1.97331l-2.64105-1.00279c-1.90646-.70233-3.44482-2.17387-3.44482-4.44762,0-3.27655,3.07675-4.78189,6.05286-4.78189M513.77527,162.22856c-3.39688,0-7.05286,1.80934-7.05286,5.78189,0,2.46317,1.49408,4.42628,4.09915,5.38597l2.63174.99931c1.36176.53192,1.36176.81277,1.36176,1.03844,0,.73476-1.22845.77197-1.47473.77197-.94147,0-2.3392-.35072-3.83481-.96222-.35214-.14124-.6087-.14124-.74652-.14124-.25104,0-1.09579.08505-1.42548,1.17957l-.53152,1.69516c-.03775.11075-.11264.33203-.11264.59959,0,.63055.37213,1.17218.99545,1.44882,1.79443.79826,3.8197,1.25629,5.55566,1.25629,4.45819,0,7.45355-2.48444,7.45355-6.18221,0-2.34052-1.34717-4.18857-3.79333-5.20372l-3.01239-1.23915c-1.01953-.40198-1.01953-.60297-1.01953-.7803,0-.26099.388-.53838,1.10706-.53838.84119,0,2.11505.28786,3.2453.73335.01733.00682.03485.01317.05255.01903.16199.0536.40594.11748.64838.11748.67902,0,1.24017-.42938,1.42963-1.09389l.56079-1.77962c.00635-.02.01202-.04022.01703-.06059l.01801-.06969c.0329-.1252.078-.29666.078-.50435,0-.40392-.16547-.96814-.95386-1.36238-1.73273-.76337-3.40149-1.10915-5.29639-1.10915h0Z"/><path class="uuid-cd89e59a-1028-40b1-a4b2-2a791adce14d" d="M528.48926,180.78223c-1.9834,0-3.50195-.5459-4.3916-1.57812-1.19141-1.34473-1.19141-2.92188-1.19141-5.30859v-6.95605h-1.07129c-1.0332,0-1.23535-.49023-1.23535-1.33691v-1.27051c0-.69922.44238-1.16895,1.10156-1.16895h1.20508v-3.14453c0-1.13965.95898-1.25879,1.27441-1.29785l2.40625-.30176.23047-.00391c.71094,0,1.13574.46191,1.13574,1.23535v3.5127h3.27832c1.02441,0,1.13477.74805,1.13477,1.06934v1.57129c0,.66895-.48047,1.13574-1.16895,1.13574h-3.24414v7.15723c0,.91797.05762,1.57031.3457,1.99023.15625.22461.43066.48535,1.16016.48535.75293,0,1.39746-.18066,1.98242-.37598.00977-.00293.10156-.02734.1123-.0293.11621-.03125.23633-.0625.37988-.0625.21777,0,.74219.07617.91992.7793l.33984,1.69531c.03809.10645.04199.19336.04199.29883,0,.77441-.61426,1.01953-.81543,1.09961-1.2168.51074-2.65234.80469-3.93066.80469Z"/><path class="uuid-7058a9db-bb15-41e3-93ed-0ddca124a196" d="M526.81732,158.91542c.43494,0,.6355.23438.6355.73537v4.0127h3.77832c.40112,0,.6355.13371.6355.56863v1.57143c0,.40111-.26746.63548-.66931.63548h-3.74451v7.65732c0,1.00357.06683,1.73894.43414,2.27376.30121.43494.76917.70233,1.5722.70233.83606,0,1.5376-.20055,2.14001-.40111.13373-.03381.23364-.06685.33429-.06685.23358,0,.36731.1337.43494.40111l.33423,1.67209c.03308.09988.03308.13371.03308.20056,0,.33426-.16675.50179-.50183.63548-1.03656.43414-2.40741.7684-3.74451.7684-1.70587,0-3.17664-.43414-4.0127-1.40388-1.03656-1.1703-1.07037-2.54117-1.07037-4.98245v-7.45676h-1.57141c-.6355,0-.73541-.1337-.73541-.83604v-1.27097c0-.40112.20056-.66853.60168-.66853h1.70514v-3.64461c0-.56863.30121-.73538.836-.80223l2.40747-.30122h.16754M526.81732,157.91542h-.16754c-.0415,0-.08295.00258-.12415.00774l-2.40747.30122c-1.48944.18617-1.71185,1.20422-1.71185,1.79449v2.64461h-.70514c-.94305,0-1.60168.68613-1.60168,1.66853v1.27097c0,.78819.17987,1.83604,1.73541,1.83604h.57141v6.45676c0,2.4111,0,4.15315,1.32178,5.64549.97876,1.13539,2.62823,1.74084,4.76129,1.74084,1.34143,0,2.84705-.30836,4.1308-.84602.91931-.36664,1.11554-1.05016,1.11554-1.55786,0-.14392-.01111-.27264-.06268-.44769l-.32404-1.62096c-.0033-.01649-.00696-.0329-.01111-.04919-.21558-.85225-.86682-1.15591-1.40442-1.15591-.211,0-.37952.04465-.51489.08052l-.06458.01685c-.0238.00603-.04736.01292-.07068.02069-.50848.16928-1.11078.3499-1.82416.3499-.56195,0-.67975-.17006-.75012-.27167-.21228-.30913-.25623-.90532-.25623-1.70442v-6.65732h2.74451c.96729,0,1.66931-.68782,1.66931-1.63548v-1.57143c0-.95291-.64197-1.56863-1.6355-1.56863h-2.77832v-3.0127c0-1.0542-.64197-1.73537-1.6355-1.73537h0Z"/><path class="uuid-cd89e59a-1028-40b1-a4b2-2a791adce14d" d="M542.33301,180.78223c-5.2959,0-8.45703-3.38672-8.45703-9.06055,0-5.37891,3.47949-8.99316,8.6582-8.99316,5.2959,0,8.45801,3.375,8.45801,9.02734,0,5.39941-3.47949,9.02637-8.65918,9.02637ZM542.50098,166.90527c-2.99902,0-3.44629,2.97559-3.44629,4.75,0,2.25781.57422,4.9502,3.3125,4.9502,2.99805,0,3.44531-3.03809,3.44531-4.84961,0-2.21289-.57422-4.85059-3.31152-4.85059Z"/><path class="uuid-7058a9db-bb15-41e3-93ed-0ddca124a196" d="M542.53387,163.22856c5.45038,0,7.9585,3.61157,7.9585,8.52718,0,4.81491-2.94226,8.52638-8.15906,8.52638-5.45044,0-7.95776-3.67764-7.95776-8.56021,0-4.81491,2.94226-8.49335,8.15833-8.49335M542.36713,177.10547c2.94226,0,3.9458-2.60802,3.9458-5.34973s-.86981-5.35052-3.81213-5.35052c-2.97607,0-3.9458,2.57498-3.9458,5.24985,0,2.74251.836,5.45041,3.81213,5.45041M542.53387,162.22856c-5.47784,0-9.15833,3.81508-9.15833,9.49335,0,5.89696,3.43243,9.56021,8.95776,9.56021,5.47833,0,9.15906-3.82835,9.15906-9.52638,0-5.96562-3.349-9.52718-8.9585-9.52718h0ZM542.36713,176.10547c-2.81213,0-2.81213-3.34967-2.81213-4.45041,0-1.93877.51105-4.24985,2.9458-4.24985,2.81213,0,2.81213,3.27451,2.81213,4.35052,0,3.78464-1.84564,4.34973-2.9458,4.34973h0Z"/><path class="uuid-cd89e59a-1028-40b1-a4b2-2a791adce14d" d="M554.54004,180.38086c-.81543,0-1.30273-.49902-1.30273-1.33594v-14.54492c0-.49902.17383-1.33691,1.33594-1.33691h2.14062c1.0293,0,1.27539.5791,1.32422.96094.83398-.77832,1.94043-1.39551,3.59082-1.39551.25879,0,.61035.0498,1.0459.14648.49023.13867.72559.44629.72559.92188,0,.12012,0,.28418-.06055.46289l-.34668,2.28809c-.05859.52246-.42871.85938-.96289.85938h-.13379c-.04102,0-.08203-.00488-.12207-.01562-.21289-.05273-.50391-.08496-.78027-.08496-.95801,0-1.98145.49121-2.70996,1.29199v10.44629c0,.83691-.4873,1.33594-1.30273,1.33594h-2.44141Z"/><path class="uuid-7058a9db-bb15-41e3-93ed-0ddca124a196" d="M561.62915,163.22856c.2674,0,.6355.06763.93671.13449.23358.06685.33429.16673.33429.43414,0,.10066,0,.20055-.03381.30122l-.36731,2.37364c-.03381.30122-.20135.43494-.46875.43494h-.13373c-.2674-.06686-.60162-.09988-.90289-.09988-1.13647,0-2.3736.60167-3.20966,1.60445v10.63341c0,.5356-.23438.83604-.80304.83604h-2.44049c-.53479,0-.80298-.26741-.80298-.83604v-14.54544c0-.66852.33502-.83604.836-.83604h2.14008c.53558,0,.83606.16753.83606.6355l.03381,1.06963c1.03662-1.304,2.1731-2.14005,4.04572-2.14005M561.62915,162.22856c-1.46588,0-2.55035.46059-3.38446,1.0775-.27844-.37224-.76538-.64258-1.53113-.64258h-2.14008c-1.13251,0-1.836.70352-1.836,1.83604v14.54544c0,1.11536.7077,1.83604,1.80298,1.83604h2.44049c1.09528,0,1.80304-.72069,1.80304-1.83604v-10.24501c.61945-.61102,1.45581-.99284,2.20966-.99284.23456,0,.48761.02682.66028.07002.07935.01984.16083.02986.24261.02986h.13373c.78589,0,1.37366-.53181,1.46252-1.32336l.35211-2.26991c.05524-.2131.05524-.39899.05524-.51653,0-.69424-.38605-1.20291-1.05914-1.39555-.01935-.00552-.03882-.01047-.05847-.01483-.47968-.10649-.85699-.15825-1.15338-.15825h0Z"/><path class="uuid-cd89e59a-1028-40b1-a4b2-2a791adce14d" d="M565.87695,187.6709c-.55469,0-1.21191-.02148-1.88672-.18066-.55469-.10059-.88672-.4873-.88672-1.05566,0-.0791.00977-.14551.02246-.2168,0-.02246.0127-.12793.01562-.14941l.23438-1.73926c.10449-.69043.47363-1.03516,1.09668-1.03516h.2002c.19043.01367.33984.03125.48633.04688.23145.02637.4541.05273.65137.05273,1.94238,0,2.58496-.6748,3.15039-2.00293l.55664-1.31641-6.0127-15.49414c-.05859-.16211-.10156-.2832-.10156-.44824,0-.55273.43066-.96875,1.00195-.96875h3.21094c.43164,0,1.00781.15332,1.29883.88379l3.23926,9.65527,3.04492-9.42285c.23535-.75977.70508-1.11621,1.47754-1.11621h2.70898c.59961,0,1.03516.40723,1.03516.96875,0,.14551-.03223.26855-.06445.38672-.00391.0166-.0293.11035-.03516.12598l-6.58691,17.32031c-1.59277,4.21289-3.64844,5.70605-7.85742,5.70605Z"/><path class="uuid-7058a9db-bb15-41e3-93ed-0ddca124a196" d="M579.38586,163.66348c.33423,0,.53479.20056.53479.46797,0,.10066-.03302.20056-.06683.33505l-6.58691,17.32097c-1.50458,3.97888-3.3772,5.38356-7.38989,5.38356-.6355,0-1.2041-.03383-1.77277-.16753-.36731-.06685-.50098-.26741-.50098-.56863,0-.09988.03302-.16673.03302-.30045l.23438-1.73894c.06683-.43494.23358-.60167.60168-.60167h.20056c.40106.03304.80298.09988,1.13727.09988,2.07318,0,2.94226-.73537,3.61078-2.30679l.6355-1.50534-6.08588-15.68193c-.03308-.10066-.06689-.16753-.06689-.26819,0-.26741.20056-.46797.50177-.46797h3.21051c.46796,0,.70154.23438.83527.56863l3.71222,11.06834,3.51093-10.86778c.16675-.53482.43494-.7692,1.00281-.7692h2.70868M579.38586,162.66348h-2.70868c-.99445,0-1.65302.4951-1.95746,1.47154l-2.57404,7.96758-2.74634-8.18846c-.00604-.01801-.01263-.03584-.01965-.05347-.3089-.77202-.93524-1.19719-1.76373-1.19719h-3.21051c-.8421,0-1.50177.64482-1.50177,1.46797,0,.25154.06482.43343.10352.5421.00549.01668.02478.0715.03113.08789l5.93933,15.30435-.47797,1.1322c-.50842,1.19507-.99487,1.69571-2.68951,1.69571-.15674,0-.36792-.02383-.59149-.04907-.15234-.01718-.30811-.03462-.46368-.04744-.02728-.00224-.05469-.00337-.08209-.00337h-.20056c-.41107,0-1.38898.14128-1.59009,1.44978l-.237,1.75725c-.00598.04427-.00897.0889-.00897.13358-.02051.09538-.03302.18965-.03302.30045,0,.79987.495,1.39034,1.29388,1.54716.71942.16638,1.40405.189,1.97986.189,4.40674,0,6.66309-1.63426,8.32526-6.02986l6.58624-17.31921c.01385-.0365.02563-.07378.03516-.11165l.01709-.06575c.03558-.13496.0799-.30295.0799-.51311,0-.83688-.65985-1.46797-1.53479-1.46797h0Z"/><path class="uuid-cd89e59a-1028-40b1-a4b2-2a791adce14d" d="M597.04297,180.78223c-2.13867,0-4.58789-.41016-6.55176-1.09766-.23535-.08984-.90332-.34863-.90332-1.10742,0-.15332,0-.36328.10156-.61914l.69141-2.14258c.2207-.72656.70801-.88086,1.07812-.88086.19043,0,.41211.04199.66016.12598,1.79883.64941,3.41797.97754,4.82324.97754,1.24219,0,3.3457-.52148,3.3457-2.47656,0-1.07031-.62598-1.8125-2.15918-2.56055l-4.35156-2.1748c-2.72168-1.3418-4.22266-3.54395-4.22266-6.19922,0-4.42969,4.2373-6.81934,8.22461-6.81934,2.33301,0,4.23926.37305,6.18262,1.21094.27344.12598.9707.44824.9707,1.12793,0,.19336-.04199.38477-.13477.61914l-.80273,2.03809c-.25977.71094-.75879.81836-1.0332.81836-.22754,0-.42383-.06738-.61328-.13281-.01074-.00293-.10352-.03516-.11328-.03906-1.50781-.625-3.08594-.99805-4.22266-.99805-.48047,0-2.87793.09863-2.87793,2.04102,0,.86035.64551,1.55664,2.09277,2.25879l3.71191,1.80664c3.22559,1.55078,4.72949,3.63867,4.72949,6.56836,0,4.50684-3.54688,7.65527-8.62598,7.65527Z"/><path class="uuid-7058a9db-bb15-41e3-93ed-0ddca124a196" d="M597.77881,156.3074c2.20691,0,4.04572.33426,5.98523,1.1703.43494.20056.66852.40111.66852.66852,0,.13371-.03302.26741-.09985.43494l-.80225,2.03938c-.13446.36807-.33502.50179-.56866.50179-.16748,0-.33423-.06686-.53479-.13371-1.37164-.56863-3.07678-1.03659-4.41461-1.03659-1.57141,0-3.3772.66852-3.3772,2.54115,0,1.37086,1.271,2.17387,2.37445,2.70869l3.71143,1.80579c2.64185,1.27019,4.44763,3.04295,4.44763,6.11894,0,4.64818-3.77832,7.15552-8.12524,7.15552-2.00635,0-4.3808-.36729-6.38715-1.06963-.43494-.16753-.5686-.36809-.5686-.63548,0-.13371,0-.26741.06683-.43494l.70233-2.17308c.10065-.33427.2674-.53482.60168-.53482.13367,0,.30121.03304.50177.09988,1.57141.56863,3.31036,1.00357,4.98242,1.00357,1.80585,0,3.84521-.86987,3.84521-2.9761,0-1.53838-1.13647-2.37442-2.44049-3.00992l-4.34698-2.17308c-2.37439-1.1703-3.94586-3.14362-3.94586-5.75163,0-4.07956,4.0127-6.31949,7.72418-6.31949M597.77881,155.3074c-5.66656,0-8.72418,3.77118-8.72418,7.31949,0,2.85593,1.59949,5.2171,4.50378,6.64859l4.34192,2.17059c1.36096.66328,1.88763,1.25514,1.88763,2.11545,0,1.55991-1.78845,1.9761-2.84521,1.9761-1.34949,0-2.91132-.31757-4.64215-.94389-.32928-.11011-.59686-.15956-.84204-.15956-.35596,0-1.22046.12146-1.5592,1.24649l-.68787,2.12761c-.12378.32956-.12378.60298-.12378.76874,0,.50314.20978,1.18373,1.20917,1.56866,2.07281.72612,4.5213,1.13644,6.74658,1.13644,5.3728,0,9.12524-3.35367,9.12524-8.15552,0-4.1315-2.86176-5.98523-5.01428-7.02019l-3.70728-1.80376c-1.25354-.60757-1.81195-1.16544-1.81195-1.80948,0-1.46684,1.98022-1.54115,2.3772-1.54115,1.05792,0,2.60278.368,4.03168.96036.02191.00909.04419.01741.06671.02493l.07916.02682c.20618.07048.46283.15819.77185.15819.32611,0,1.12592-.1129,1.50793-1.15865l.79358-2.01645c.07166-.17958.16925-.46332.16925-.80101,0-1.00032-.94067-1.43408-1.24976-1.57661-2.03162-.87608-3.99957-1.26221-6.40399-1.26221h0Z"/><path class="uuid-cd89e59a-1028-40b1-a4b2-2a791adce14d" d="M616.00391,180.78223c-5.46387,0-8.8584-3.47168-8.8584-9.06055,0-5.29492,3.61523-8.99316,8.79199-8.99316,2.09277,0,3.90723.74805,5.24609,2.16309,1.43848,1.50195,2.10938,3.51367,2.10938,6.3291v.50098c0,1.21973-.64062,1.46973-1.60352,1.46973h-9.21484c.43359,2.05176,2.03125,3.34766,4.19922,3.34766,1.22363,0,2.62109-.27344,3.93555-.77051.00098,0,.13867-.0459.13867-.0459.09766-.03613.23145-.08594.40625-.08594.46875,0,.83398.29883.95312.78125l.46484,1.69336c.00195.00879.02344.10938.02539.11914.03223.15039.05957.28027.05957.41309,0,.67773-.61133.93457-.8418,1.03027-1.81641.81641-4.19531,1.1084-5.81152,1.1084ZM618.30664,169.55078c-.09277-1.32715-.81836-2.71289-2.60254-2.71289-1.81641,0-2.78906,1.3584-3.13867,2.71289h5.74121Z"/><path class="uuid-7058a9db-bb15-41e3-93ed-0ddca124a196" d="M615.93744,163.22856c2.04016,0,3.71222.76918,4.88251,2.00635,1.5376,1.60522,1.97253,3.71225,1.97253,5.98601v.50099c0,.80302-.2674.96976-1.10345.96976h-9.79736c.26746,2.57498,2.14008,4.34695,4.78192,4.34695,1.40387,0,2.87543-.33426,4.11255-.80223.13373-.03302.23438-.09988.3681-.09988.23358,0,.40112.13371.46796.40112l.46796,1.70511c.03381.16753.06689.30124.06689.40112,0,.23438-.13373.40111-.53485.56863-1.63824.73537-3.87897,1.06963-5.61792,1.06963-5.24988,0-8.35889-3.34338-8.35889-8.56021,0-5.01547,3.31036-8.49335,8.29205-8.49335M611.95856,170.05061h6.85504v-.36807c-.06683-1.73895-1.07037-3.34418-3.1098-3.34418-2.17383,0-3.47784,1.73894-3.74524,3.71225M615.93744,162.22856c-5.47101,0-9.29205,3.90381-9.29205,9.49335,0,5.8076,3.67358,9.56021,9.35889,9.56021,1.66742,0,4.12646-.30403,6.0274-1.15732.73865-.30809,1.12537-.80988,1.12537-1.48094,0-.18379-.03485-.35028-.06854-.51128l-.01813-.08768c-.00452-.02246-.00983-.04474-.01587-.06683l-.46796-1.70511c-.1701-.68166-.73462-1.13646-1.43231-1.13646-.2655,0-.4707.07683-.58099.1181-.0387.00955-.10364.03236-.14093.04646-1.25732.47562-2.59222.73755-3.75873.73755-1.68988,0-2.98724-.89134-3.53296-2.34695h8.5484c.52026,0,2.10345,0,2.10345-1.96976v-.50099c0-2.953-.71509-5.07491-2.25037-6.67773-1.4104-1.491-3.40234-2.31462-5.60468-2.31462h0ZM613.26562,169.05061c.40771-.92747,1.1875-1.71225,2.43817-1.71225,1.36652,0,1.85095.97025,2.02142,1.71225h-4.45959Z"/><path class="uuid-cd89e59a-1028-40b1-a4b2-2a791adce14d" d="M626.63965,180.38086c-.81543,0-1.30273-.49902-1.30273-1.33594v-14.54492c0-.49902.17383-1.33691,1.33594-1.33691h2.14062c1.0293,0,1.27539.5791,1.32422.96094.83398-.77832,1.94043-1.39551,3.59082-1.39551.25879,0,.61035.0498,1.0459.14648.49023.13867.72559.44629.72559.92188,0,.12012,0,.28418-.06055.46289l-.34668,2.28809c-.05859.52246-.42871.85938-.96289.85938h-.13379c-.04102,0-.08203-.00488-.12207-.01562-.21289-.05273-.50488-.08496-.78125-.08496-.95703,0-1.98047.49121-2.70898,1.29199v10.44629c0,.83691-.4873,1.33594-1.30371,1.33594h-2.44043Z"/><path class="uuid-7058a9db-bb15-41e3-93ed-0ddca124a196" d="M633.7287,163.22856c.2674,0,.6355.06763.93671.13449.23364.06685.33429.16673.33429.43414,0,.10066,0,.20055-.03381.30122l-.36731,2.37364c-.03381.30122-.20135.43494-.46875.43494h-.13373c-.2674-.06686-.60162-.09988-.90289-.09988-1.13647,0-2.3736.60167-3.20966,1.60445v10.63341c0,.5356-.23438.83604-.80304.83604h-2.44049c-.53479,0-.80298-.26741-.80298-.83604v-14.54544c0-.66852.33502-.83604.83606-.83604h2.14001c.53564,0,.83606.16753.83606.6355l.03381,1.06963c1.03662-1.304,2.1731-2.14005,4.04572-2.14005M633.7287,162.22856c-1.46588,0-2.55035.46059-3.38446,1.0775-.27844-.37224-.76538-.64258-1.53113-.64258h-2.14001c-1.13251,0-1.83606.70352-1.83606,1.83604v14.54544c0,1.11536.7077,1.83604,1.80298,1.83604h2.44049c1.09528,0,1.80304-.72069,1.80304-1.83604v-10.24501c.61945-.61102,1.45581-.99284,2.20966-.99284.23456,0,.48761.02682.66028.07002.07935.01984.16083.02986.24261.02986h.13373c.78589,0,1.37366-.53181,1.46252-1.32336l.35211-2.26991c.05524-.2131.05524-.39899.05524-.51653,0-.69429-.38605-1.20297-1.0592-1.39557-.01929-.00552-.03876-.01047-.05841-.01482-.47968-.10649-.85699-.15825-1.15338-.15825h0Z"/><path class="uuid-cd89e59a-1028-40b1-a4b2-2a791adce14d" d="M642.45605,180.38086c-.28223,0-1.14062,0-1.47363-.93359l-5.74707-14.90137c-.0459-.13574-.10059-.29492-.10059-.48145,0-.27148.10742-.90137,1.10254-.90137h2.94141c.75293,0,1.24023.34375,1.44824,1.02246l2.53906,7.7832c.13184.39746.25977.81152.37793,1.21289.1123-.37793.23047-.76172.34277-1.11133l2.6084-7.86133c.27051-.91699.88672-1.0459,1.51172-1.0459h2.4082c.86328,0,1.16895.52148,1.16895.96875,0,.14258-.03125.26074-.06152.375-.00488.01953-.0332.12598-.04102.14355l-5.85156,14.77832c-.2666.66797-.69531.95215-1.43457.95215h-1.73926Z"/><path class="uuid-7058a9db-bb15-41e3-93ed-0ddca124a196" d="M650.41498,163.66348c.43414,0,.66852.16753.66852.46797,0,.10066-.03381.20056-.06683.33505l-5.8515,14.77902c-.20056.50179-.46875.63548-.96979.63548h-1.73895c-.50177,0-.836-.1337-1.00354-.60167l-5.75085-14.91351c-.03381-.10068-.06683-.20056-.06683-.30122,0-.26741.16675-.40112.60168-.40112h2.94226c.5686,0,.83606.23438.96973.66853l2.5412,7.79179c.33502,1.00279.63544,2.10623.836,2.84161h.03381c.16675-.6347.50183-1.80501.80225-2.74173l2.60803-7.85786c.16754-.56863.43494-.70235,1.03656-.70235h2.40826M650.41498,162.66348h-2.40826c-.67719,0-1.62085.14717-1.99579,1.41971l-2.46741,7.43243-2.44391-7.49367c-.26788-.87041-.95166-1.35847-1.92047-1.35847h-2.94226c-1.18219,0-1.60168.75478-1.60168,1.40112,0,.26564.07153.47864.11884.61957l5.76581,14.95497c.19812.55417.70319,1.24187,1.93658,1.24187h1.73895c.93732,0,1.55829-.41356,1.89838-1.26433l5.85266-14.78204c.01672-.04224.03058-.08557.04144-.1297l.01813-.0708c.03271-.12485.07751-.29582.07751-.50269,0-.70702-.52216-1.46797-1.66852-1.46797h0Z"/><path class="uuid-cd89e59a-1028-40b1-a4b2-2a791adce14d" d="M660.11328,180.78223c-5.46484,0-8.85938-3.47168-8.85938-9.06055,0-5.29492,3.61621-8.99316,8.79297-8.99316,2.09277,0,3.90723.74805,5.24512,2.16309,1.43848,1.50098,2.10938,3.5127,2.10938,6.3291v.50098c0,1.21973-.64062,1.46973-1.60352,1.46973h-9.21387c.43359,2.05176,2.03027,3.34766,4.19824,3.34766,1.22461,0,2.62207-.27344,3.93652-.77051.00098,0,.13867-.0459.13867-.0459.09766-.03613.23145-.08594.40625-.08594.4668,0,.83203.29883.95215.7793l.46582,1.69531c.00293.00977.02148.09961.02344.11035.03223.1543.06055.28711.06055.42188,0,.67773-.61035.93359-.84082,1.03027-1.81738.81641-4.19531,1.1084-5.81152,1.1084ZM662.41602,169.55078c-.09375-1.32715-.81934-2.71289-2.60352-2.71289-1.81543,0-2.78809,1.3584-3.1377,2.71289h5.74121Z"/><path class="uuid-7058a9db-bb15-41e3-93ed-0ddca124a196" d="M660.04639,163.22856c2.04016,0,3.71228.76918,4.88257,2.00635,1.5376,1.60522,1.97253,3.71225,1.97253,5.98601v.50099c0,.80302-.2674.96976-1.10345.96976h-9.79736c.2674,2.57498,2.14008,4.34695,4.78192,4.34695,1.40387,0,2.87543-.33426,4.11255-.80223.13373-.03302.23438-.09988.3681-.09988.23358,0,.40112.13371.46796.40112l.46796,1.70511c.03381.16753.06683.30124.06683.40112,0,.23438-.13367.40111-.53479.56863-1.63831.73537-3.87903,1.06963-5.61792,1.06963-5.24988,0-8.35889-3.34338-8.35889-8.56021,0-5.01547,3.31036-8.49335,8.29199-8.49335M656.0675,170.05061h6.8551v-.36807c-.06683-1.73895-1.07043-3.34418-3.1098-3.34418-2.17389,0-3.47784,1.73894-3.7453,3.71225M660.04639,162.22856c-5.47101,0-9.29199,3.90381-9.29199,9.49335,0,5.8076,3.67358,9.56021,9.35889,9.56021,1.66736,0,4.1264-.30403,6.0274-1.15732.73859-.30807,1.12531-.80984,1.12531-1.48094,0-.18385-.03485-.35056-.06854-.51173l-.01807-.08722c-.00452-.02246-.00983-.04474-.01587-.06683l-.46796-1.70511c-.1701-.68166-.73462-1.13646-1.43231-1.13646-.2655,0-.4707.07683-.58099.1181-.0387.00955-.10364.03236-.14093.04646-1.25732.47562-2.59222.73755-3.75873.73755-1.68994,0-2.98724-.89136-3.53296-2.34695h8.5484c.52026,0,2.10345,0,2.10345-1.96976v-.50099c0-2.953-.71509-5.07491-2.25037-6.67773-1.4104-1.491-3.40234-2.31462-5.60474-2.31462h0ZM657.37463,169.05061c.40771-.92749,1.1875-1.71225,2.43817-1.71225,1.36652,0,1.85095.97025,2.02142,1.71225h-4.45959Z"/><path class="uuid-cd89e59a-1028-40b1-a4b2-2a791adce14d" d="M670.74902,180.38086c-.81543,0-1.30273-.49902-1.30273-1.33594v-14.54492c0-.49902.17383-1.33691,1.33594-1.33691h2.13965c1.03027,0,1.27539.5791,1.3252.96094.83203-.77734,1.93945-1.39551,3.59082-1.39551.25879,0,.61035.0498,1.0459.14648.49023.13867.72461.44629.72461.92188,0,.11914,0,.28125-.05859.45801l-.34766,2.29297c-.05859.52246-.42871.85938-.96289.85938h-.13379c-.04102,0-.08203-.00488-.12207-.01562-.21289-.05273-.50488-.08496-.78125-.08496-.95801,0-1.98145.49121-2.70996,1.29199v10.44629c0,.83691-.48633,1.33594-1.30176,1.33594h-2.44141Z"/><path class="uuid-7058a9db-bb15-41e3-93ed-0ddca124a196" d="M677.83771,163.22856c.2674,0,.6355.06763.93671.13449.23358.06685.33429.16673.33429.43414,0,.10066,0,.20055-.03381.30122l-.36731,2.37364c-.03381.30122-.20135.43494-.46875.43494h-.13373c-.2674-.06686-.60168-.09988-.90289-.09988-1.13647,0-2.37366.60167-3.20966,1.60445v10.63341c0,.5356-.23438.83604-.80225.83604h-2.44128c-.53479,0-.80298-.26741-.80298-.83604v-14.54544c0-.66852.33502-.83604.836-.83604h2.14008c.53558,0,.83606.16753.83606.6355l.03381,1.06963c1.03656-1.304,2.1731-2.14005,4.04572-2.14005M677.83771,162.22856c-1.46594,0-2.55035.46056-3.38446,1.07747-.27844-.37222-.76538-.64255-1.53113-.64255h-2.14008c-1.13251,0-1.836.70352-1.836,1.83604v14.54544c0,1.11536.7077,1.83604,1.80298,1.83604h2.44128c1.09479,0,1.80225-.72069,1.80225-1.83604v-10.24504c.61938-.61099,1.45575-.99281,2.20966-.99281.23456,0,.48761.02682.66028.07002.07935.01984.16083.02986.24261.02986h.13373c.78589,0,1.37366-.53181,1.46252-1.32336l.35211-2.26991c.05524-.2131.05524-.39899.05524-.51653,0-.69424-.38605-1.20291-1.05914-1.39555-.01935-.00552-.03882-.01047-.05847-.01483-.47968-.10649-.85699-.15825-1.15338-.15825h0Z"/><path class="uuid-43a14bde-b469-45cb-bd19-66fce7ac974b" d="M486.74121,151.7168c-12.78418,0-18.73828-6.61816-18.73828-20.82812v-22.73486c0-1.28369.78223-2.02002,2.14648-2.02002h5.00293c1.35938,0,2.02002.66064,2.02002,2.02002v22.03857c0,9.80273,2.77148,13.62207,9.88525,13.62207,6.79688,0,9.56934-3.94629,9.56934-13.62207v-22.03857c0-1.30273.74023-2.02002,2.08301-2.02002h5.00293c1.35938,0,2.02051.66064,2.02051,2.02002v22.86182c0,13.54297-6.56738,20.70117-18.99219,20.70117Z"/><path class="uuid-7058a9db-bb15-41e3-93ed-0ddca124a196" d="M503.71243,106.63388c1.07785,0,1.52094.44386,1.52094,1.52016v22.86133c0,13.0451-6.14346,20.20125-18.49176,20.20125-13.36246,0-18.23877-7.34549-18.23877-20.32774v-22.73483c0-1.0763.63361-1.52016,1.64664-1.52016h5.00281c1.07629,0,1.52014.44386,1.52014,1.52016v22.03801c0,9.30949,2.40634,14.12216,10.38504,14.12216,7.66284,0,10.06995-5.06641,10.06995-14.12216v-22.03801c0-1.0763.57034-1.52016,1.58224-1.52016h5.00278M503.71243,105.63388h-5.00278c-1.61691,0-2.58224.94212-2.58224,2.52016v22.03801c0,9.3204-2.62775,13.12216-9.06995,13.12216-6.84143,0-9.38504-3.55647-9.38504-13.12216v-22.03801c0-1.62515-.89499-2.52016-2.52014-2.52016h-5.00281c-1.63251,0-2.64664.96567-2.64664,2.52016v22.73483c0,14.5507,6.11325,21.32774,19.23877,21.32774,12.75162,0,19.49176-7.33127,19.49176-21.20125v-22.86133c0-1.62515-.89529-2.52016-2.52094-2.52016h0Z"/><path class="uuid-43a14bde-b469-45cb-bd19-66fce7ac974b" d="M535.12012,150.95703c-1.33984,0-2.01953-.72266-2.01953-2.14648v-17.22559c0-3.87207-1.24902-5.45215-4.3125-5.45215-2.17285,0-5.00684,1.13184-6.97266,2.76953v19.97168c0,1.38184-.67969,2.08301-2.01953,2.08301h-4.62402c-1.26465,0-2.01953-.75488-2.01953-2.02051v-27.61035c0-1.36279.7207-2.0835,2.08398-2.0835h4.11426c.47168,0,1.90723,0,2.02051,1.66992l.02637.70068c2.88574-2.06543,6.32812-3.19336,9.7959-3.19336,6.87305,0,10.50586,4.09277,10.50586,11.83594v18.55469c0,1.42383-.67969,2.14648-2.01953,2.14648h-4.55957Z"/><path class="uuid-7058a9db-bb15-41e3-93ed-0ddca124a196" d="M531.19324,118.92006c7.09253,0,10.00562,4.43244,10.00562,11.33562v18.5546c0,1.07707-.37872,1.64665-1.51941,1.64665h-4.55969c-1.13916,0-1.51941-.56958-1.51941-1.64665v-17.22533c0-3.48264-.95056-5.95259-4.81262-5.95259-2.46997,0-5.51031,1.33004-7.47278,3.03954v20.20201c0,1.07629-.44305,1.58302-1.51935,1.58302h-4.62415c-.94904,0-1.51935-.50673-1.51935-1.52016v-27.61037c0-1.01343.44305-1.58378,1.58374-1.58378h4.11511c.8877,0,1.45654.25375,1.52094,1.20356l.06281,1.64664c2.91309-2.34348,6.58661-3.67275,10.25854-3.67275M531.19324,117.92006c-3.27838,0-6.53375.97794-9.34247,2.7822-.10913-.82551-.59839-1.95964-2.49982-1.95964h-4.11511c-1.64203,0-2.58374.94175-2.58374,2.58378v27.61037c0,1.53093.98889,2.52016,2.51935,2.52016h4.62415c1.60107,0,2.51935-.94147,2.51935-2.58302v-19.73358c1.87317-1.49065,4.47314-2.50797,6.47278-2.50797,2.7793,0,3.81262,1.34229,3.81262,4.95259v17.22533c0,2.30281,1.57849,2.64665,2.51941,2.64665h4.55969c.94092,0,2.51941-.34384,2.51941-2.64665v-18.5546c0-8.07004-3.80566-12.33562-11.00562-12.33562h0Z"/><path class="uuid-43a14bde-b469-45cb-bd19-66fce7ac974b" d="M551.32812,150.95703c-1.44434,0-2.14648-.68164-2.14648-2.08301v-27.6748c0-.73096.2793-1.95654,2.14648-1.95654h4.43262c.51562,0,2.08398,0,2.08398,1.95654v27.6748c0,1.38184-.70117,2.08301-2.08398,2.08301h-4.43262ZM553.48145,116.18945c-2.33008,0-4.80664-1.55078-4.80664-4.42529,0-2.95752,2.47656-4.55322,4.80664-4.55322,2.2998,0,4.74316,1.57324,4.74316,4.48926,0,2.81006-2.41211,4.48926-4.74316,4.48926Z"/><path class="uuid-7058a9db-bb15-41e3-93ed-0ddca124a196" d="M553.4812,107.71095c2.15411,0,4.24384,1.45652,4.24384,3.98936,0,2.46995-2.15411,3.98935-4.24384,3.98935s-4.30676-1.39291-4.30676-3.92574c0-2.53358,2.09131-4.05297,4.30676-4.05297M555.76105,119.74262c1.01343,0,1.58374.31736,1.58374,1.45651v27.67477c0,1.13992-.50745,1.58302-1.58374,1.58302h-4.43243c-1.14069,0-1.64667-.4431-1.64667-1.58302v-27.67477c0-1.07629.63318-1.45651,1.64667-1.45651h4.43243M553.4812,106.71095c-2.57257,0-5.30676,1.77094-5.30676,5.05297,0,3.08327,2.69818,4.92574,5.30676,4.92574,2.57764,0,5.24384-1.86626,5.24384-4.98935,0-3.2407-2.70172-4.98936-5.24384-4.98936h0ZM555.76105,118.74262h-4.43243c-1.65723,0-2.64667.91833-2.64667,2.45651v27.67477c0,1.66568.93994,2.58302,2.64667,2.58302h4.43243c1.66614,0,2.58374-.91734,2.58374-2.58302v-27.67477c0-.91743-.33569-2.45651-2.58374-2.45651h0Z"/><path class="uuid-43a14bde-b469-45cb-bd19-66fce7ac974b" d="M578.74805,151.7168c-9.79102,0-15.63574-6.10547-15.63574-16.33203,0-10.30566,6.36035-16.96484,16.2041-16.96484,3.05859,0,6.06348.62842,8.69238,1.81787.55078.27393,1.05469.5249,1.05469,1.34131,0,.25-.07129.68066-.15332.9209l-.81152,3.31543c-.24316,1.10059-.88379,1.2666-1.24414,1.2666-.30762,0-.62012-.15527-.9209-.30566-1.49316-.61621-3.53906-1.34082-5.85645-1.34082-5.04004,0-8.04883,3.57715-8.04883,9.56934,0,6.20215,2.81836,9.75879,7.7334,9.75879,2.59375,0,4.21191-.45703,6.46387-1.35645l.16797-.06348c.19629-.07617.41797-.16309.65039-.16309.57715,0,1.04102.41992,1.24023,1.12402l.82129,2.78125c.13672.47168.21094.90234.21094,1.21777,0,.94629-.79883,1.30078-1.18262,1.4707-2.97168,1.36035-5.78027,1.94238-9.38574,1.94238Z"/><path class="uuid-7058a9db-bb15-41e3-93ed-0ddca124a196" d="M579.31689,118.92006c2.85016,0,5.82611.56958,8.48621,1.77313.50745.25298.76044.37947.76044.88618,0,.19012-.06287.57035-.12726.7597l-.8233,3.35691c-.12573.56958-.37872.88617-.75897.88617-.19006,0-.44305-.12648-.69757-.25297-1.83521-.75969-3.86212-1.39366-6.0791-1.39366-5.44586,0-8.54901,3.86363-8.54901,10.0692,0,6.07985,2.78577,10.25931,8.23322,10.25931,2.7229,0,4.43243-.50671,6.64941-1.3929.1886-.06363.44305-.19012.63318-.19012.37872,0,.63324.3166.75897.7597l.8233,2.78656c.12726.44308.19012.82332.19012,1.07629,0,.50671-.31586.76047-.88623,1.01344-3.04028,1.3929-5.82605,1.89961-9.18225,1.89961-9.75256,0-15.13556-6.07909-15.13556-15.83168,0-9.81544,5.88898-16.46487,15.70441-16.46487M579.31689,117.92006c-10.14752,0-16.70441,6.85537-16.70441,17.46487,0,10.53946,6.03198,16.83168,16.13556,16.83168,3.6828,0,6.55347-.59529,9.59875-1.99048.39392-.17464,1.46973-.65178,1.46973-1.92258,0-.45876-.12451-.98862-.22894-1.35233l-.82544-2.79387c-.26117-.92058-.90454-1.47636-1.71802-1.47636-.32733,0-.61975.11411-.83325.19743-.04218.01645-.08252.03267-.11963.04517-.01733.00584-.03448.01218-.05145.01897-2.19263.87643-3.76562,1.32146-6.27826,1.32146-6.52838,0-7.23322-6.47531-7.23322-9.25931,0-5.7636,2.75153-9.0692,7.54901-9.0692,2.2121,0,4.18652.69424,5.6651,1.30459.33221.16493.70105.34204,1.11157.34204.32062,0,1.39331-.12047,1.73547-1.67062l.80945-3.29944c.0921-.29552.16461-.74535.16461-1.03272,0-1.12592-.75964-1.50462-1.31427-1.78113-2.72632-1.2343-5.80334-1.87818-8.93237-1.87818h0Z"/><path class="uuid-43a14bde-b469-45cb-bd19-66fce7ac974b" d="M607.24219,151.7168c-9.75,0-15.57129-6.24707-15.57129-16.71191,0-9.91992,6.41113-16.58496,15.95215-16.58496,9.75,0,15.57031,6.22363,15.57031,16.64844,0,9.95801-6.41016,16.64844-15.95117,16.64844ZM607.55957,125.43555c-6.06641,0-6.97266,5.91602-6.97266,9.44238,0,4.48047,1.16602,9.82227,6.71875,9.82227,6.29297,0,6.97266-6.73535,6.97266-9.63184,0-4.39453-1.16602-9.63281-6.71875-9.63281Z"/><path class="uuid-7058a9db-bb15-41e3-93ed-0ddca124a196" d="M607.62256,118.92006c10.32294,0,15.07123,6.83878,15.07123,16.14828,0,9.11938-5.57159,16.14827-15.45148,16.14827-10.32294,0-15.07117-6.96603-15.07117-16.2119,0-9.11863,5.57159-16.08466,15.45142-16.08466M607.30518,145.20039c5.57312,0,7.47278-4.93916,7.47278-10.13205s-1.64667-10.13283-7.21826-10.13283c-5.63599,0-7.47272,4.8763-7.47272,9.9427,0,5.1929,1.58221,10.32217,7.2182,10.32217M607.62256,117.92006c-9.84009,0-16.45142,6.8658-16.45142,17.08466,0,10.77754,6.00793,17.2119,16.07117,17.2119,9.84015,0,16.45148-6.89136,16.45148-17.14827,0-10.73771-6.00793-17.14828-16.07123-17.14828h0ZM607.30518,144.20039c-5.1394,0-6.2182-5.06944-6.2182-9.32217,0-3.33981.84088-8.9427,6.47272-8.9427,5.13947,0,6.21826,4.96648,6.21826,9.13283,0,7.94565-4.05542,9.13205-6.47278,9.13205h0Z"/><path class="uuid-43a14bde-b469-45cb-bd19-66fce7ac974b" d="M630.35352,150.95703c-1.30273,0-2.01953-.74023-2.01953-2.08301v-27.54785c0-1.38232.70117-2.0835,2.08398-2.0835h4.05176c1.72266,0,2.08398.92627,2.08398,1.70361l.02246.71387c1.58691-1.72705,3.73633-3.24023,7.20312-3.24023.45801,0,1.09082.08936,1.88086.26465.71777.20312,1.02539.60547,1.02539,1.31201,0,.21631,0,.46143-.08984.72803l-.6748,4.41406c-.08789.78516-.59277,1.24707-1.38086,1.24707h-.25488c-.04102,0-.08203-.00488-.12207-.01465-.44141-.11133-1.01953-.1748-1.58691-.1748-1.99121,0-4.11328,1.03906-5.5791,2.72266v19.95508c0,1.34277-.7168,2.08301-2.01953,2.08301h-4.62402Z"/><path class="uuid-7058a9db-bb15-41e3-93ed-0ddca124a196" d="M643.77966,118.92006c.50598,0,1.20355.1265,1.7724.25298.44458.12649.63318.3166.63318.82333,0,.19011,0,.38023-.06287.56957l-.69604,4.49684c-.06439.56958-.38025.82332-.88617.82332h-.25452c-.50598-.12726-1.13916-.19012-1.70953-.19012-2.15259,0-4.49683,1.13993-6.07904,3.03955v20.13838c0,1.01344-.44312,1.58302-1.51941,1.58302h-4.62408c-1.01343,0-1.51941-.50673-1.51941-1.58302v-27.54751c0-1.26641.63324-1.58378,1.5838-1.58378h4.05219c1.01343,0,1.5838.31737,1.5838,1.20356l.06287,2.02687c1.96246-2.46997,4.11658-4.05299,7.66284-4.05299M643.77966,117.92006c-3.09406,0-5.18427,1.13837-6.76013,2.58584-.12085-.72147-.63196-1.76328-2.54938-1.76328h-4.05219c-2.24811,0-2.5838,1.61882-2.5838,2.58378v27.54751c0,1.61742.94183,2.58302,2.51941,2.58302h4.62408c1.57758,0,2.51941-.96561,2.51941-2.58302v-19.76385c1.36719-1.49655,3.28381-2.41408,5.07904-2.41408.51959,0,1.0675.05978,1.46564.15992.07971.02007.16168.0302.2439.0302h.25452c1.04022,0,1.7605-.65561,1.87982-1.71097l.67999-4.38767c.08527-.30597.08527-.58338.08527-.79109,0-.92788-.4574-1.52849-1.3595-1.78516-.01874-.00533-.03766-.01011-.05664-.01434-.82611-.18368-1.49542-.27681-1.98944-.27681h0Z"/><path class="uuid-43a14bde-b469-45cb-bd19-66fce7ac974b" d="M672.14844,150.95703c-1.3418,0-2.02148-.72266-2.02148-2.14648v-17.22559c0-3.87207-1.24902-5.45215-4.3125-5.45215-2.1709,0-5.00488,1.13184-6.97266,2.76953v19.97168c0,1.38184-.67969,2.08301-2.01953,2.08301h-4.62207c-1.26562,0-2.02148-.75488-2.02148-2.02051v-27.61035c0-1.34375.74023-2.0835,2.08398-2.0835h4.11621c.47168,0,1.9082,0,2.01855,1.6709l.02734.70068c2.88574-2.06592,6.3291-3.19434,9.79688-3.19434,6.87305,0,10.50586,4.09277,10.50586,11.83594v18.55469c0,1.42383-.67969,2.14648-2.01953,2.14648h-4.55957Z"/><path class="uuid-7058a9db-bb15-41e3-93ed-0ddca124a196" d="M668.22174,118.92006c7.09247,0,10.00555,4.43244,10.00555,11.33562v18.5546c0,1.07707-.38025,1.64665-1.51941,1.64665h-4.55969c-1.14069,0-1.52094-.56958-1.52094-1.64665v-17.22533c0-3.48264-.94904-5.95259-4.81262-5.95259-2.46997,0-5.50879,1.33004-7.47278,3.03954v20.20201c0,1.07629-.44305,1.58302-1.51935,1.58302h-4.62256c-.95062,0-1.52094-.50673-1.52094-1.52016v-27.61037c0-1.01343.44464-1.58378,1.58374-1.58378h4.11664c.88617,0,1.45654.25375,1.51941,1.20356l.06281,1.64664c2.91461-2.34348,6.58661-3.67275,10.26013-3.67275M668.22174,117.92006c-3.27808,0-6.53387.97797-9.34375,2.78241-.10785-.82487-.59564-1.95985-2.4986-1.95985h-4.11664c-1.61786,0-2.58374.9659-2.58374,2.58378v27.61037c0,1.53093.9895,2.52016,2.52094,2.52016h4.62256c1.60107,0,2.51935-.94147,2.51935-2.58302v-19.73335c1.87451-1.4908,4.47455-2.50819,6.47278-2.50819,2.7793,0,3.81262,1.34229,3.81262,4.95259v17.22533c0,2.30281,1.57947,2.64665,2.52094,2.64665h4.55969c.94092,0,2.51941-.34384,2.51941-2.64665v-18.5546c0-8.07004-3.80566-12.33562-11.00555-12.33562h0Z"/></g></svg>