<?xml version="1.0" encoding="UTF-8"?><svg id="uuid-1f94256f-97e9-4a84-a605-12a1e8e8ebe7" xmlns="http://www.w3.org/2000/svg" viewBox="0 0 800 360"><defs><style>.uuid-520289c0-7f9f-45c9-ad7e-1f339418d30d{fill:#fff;stroke-width:0px;}</style></defs><path class="uuid-520289c0-7f9f-45c9-ad7e-1f339418d30d" d="M105.46293,287.1337c6.29523,3.92543,31.08528,20.26475,34.87323,26.75417,2.0055,3.43582,5.81397,16.088,7.69656,24.7585.91464,4.21247-2.31565,7.56145-6.28961,6.5664l-19.84224-7.92239c-20.13894-9.3607-23.1381-8.5584-24.79508-21.34487-4.10555-31.68143-1.07573-34.69373,8.35714-28.81181Z"/><path class="uuid-520289c0-7f9f-45c9-ad7e-1f339418d30d" d="M72.68206,236.86782c-.86703-5.99843-4.93558-29.837-8.52129-34.46408-1.89846-2.44979-10.05245-8.61285-15.87685-12.25517-2.82972-1.76958-6.36624-.01405-6.91978,3.40689l-.57091,17.80937c.40035,18.40111-1.17047,20.59991,7.78279,25.07684,22.1838,11.09264,25.4052,9.41427,24.10603.42614Z"/><path class="uuid-520289c0-7f9f-45c9-ad7e-1f339418d30d" d="M258.58332,287.1337c-6.29523,3.92543-31.08528,20.26475-34.87323,26.75417-2.0055,3.43582-5.81397,16.088-7.69656,24.7585-.91464,4.21247,2.31565,7.56145,6.28961,6.5664l19.84224-7.92239c20.13894-9.3607,23.1381-8.5584,24.79508-21.34487,4.10555-31.68143,1.07573-34.69373-8.35714-28.81181Z"/><path class="uuid-520289c0-7f9f-45c9-ad7e-1f339418d30d" d="M169.00568,193.48572s-44.76439-26.42481-89.52878-41.57289v11.10854s63.25303,20.36569,89.52878,32.31584v-1.85149Z"/><path class="uuid-520289c0-7f9f-45c9-ad7e-1f339418d30d" d="M53.16386,182.60572c7.43728,5.18138,15.40075,11.34285,17.43147,13.96328,5.20925,6.72215,11.50383,38.95428,10.94507,48.66765-.67851,11.79445-7.16472,12.21482-28.64391,2.86493l-.16127,39.4919c2.85388,1.31512,13.47574,6.11524,23.65916,10.39707l-.00058.00048.05324.02172c3.10798,1.30647,6.16599,2.55989,8.95615,3.65435l.16751.06833c-1.93597-27.11745,1.18413-33.85142,13.90994-29.1549,10.91277,4.02733,44.14085,27.06132,49.6439,36.48906,1.78181,3.05272,4.75976,12.14553,7.43027,21.62939l20.90293,8.52895v-131.09485c-40.62202-16.63475-82.40067-30.36767-124.2195-43.75335l-.07439,18.22598Z"/><path class="uuid-520289c0-7f9f-45c9-ad7e-1f339418d30d" d="M284.56937,151.91283c-44.76439,15.14808-89.52878,41.57289-89.52878,41.57289v1.85149c26.27575-11.95015,89.52878-32.31584,89.52878-32.31584v-11.10854Z"/><path class="uuid-520289c0-7f9f-45c9-ad7e-1f339418d30d" d="M282.50587,245.23665c-.55876-9.71337,5.73582-41.9455,10.94507-48.66765,2.03073-2.62043,9.99419-8.78191,17.43147-13.96328l-.07439-18.22598c-41.81883,13.38568-83.59749,27.1186-124.2195,43.75335v131.09485l20.90293-8.52895c2.67051-9.48387,5.64846-18.57667,7.43027-21.62939,5.50305-9.42774,38.73113-32.46173,49.6439-36.48906,12.72582-4.69652,15.84591,2.03745,13.90994,29.1549l.16751-.06833c2.79016-1.09446,5.84816-2.34788,8.95615-3.65435l.05324-.02172-.00058-.00048c10.18342-4.28182,20.80528-9.08195,23.65916-10.39707l-.16127-39.4919c-21.47918,9.34989-27.96539,8.92952-28.64391-2.86493Z"/><path class="uuid-520289c0-7f9f-45c9-ad7e-1f339418d30d" d="M291.36419,236.86782c.86703-5.99843,4.93558-29.837,8.52129-34.46408,1.89846-2.44979,10.05245-8.61285,15.87685-12.25517,2.82972-1.76958,6.36624-.01405,6.91978,3.40689l.57091,17.80937c-.40035,18.40111,1.17047,20.59991-7.78279,25.07684-22.1838,11.09264-25.4052,9.41427-24.10603.42614Z"/><path class="uuid-520289c0-7f9f-45c9-ad7e-1f339418d30d" d="M183.71572,16.52549c-.30156-2.55552-4.05424-2.55205-4.35081.00408l-4.67926,40.31199,14.73848,8.05258-5.70842-48.36865Z"/><polygon class="uuid-520289c0-7f9f-45c9-ad7e-1f339418d30d" points="190.56268 74.54001 173.70182 65.31716 170.86242 89.77857 193.82027 102.14343 190.56268 74.54001"/><path class="uuid-520289c0-7f9f-45c9-ad7e-1f339418d30d" d="M265.0608,86.59712c-3.34159,1.29068-25.79454,9.11664-31.65192,17.75782-15.41411,22.73939-11.87476,22.58363-30.89319,11.7409.00181.01254.00181.02357.00347.03611l-7.50808-3.90014-.00242-.02055-25.15305-13.75873-1.63333,14.07101-6.94637,3.6084c.00166-.01254.00166-.02357.00347-.03611-18.50809,10.20079-15.47908,10.99849-30.89304-11.7409-5.85738-8.64119-27.95483-17.85602-31.29643-19.1467-5.70086-2.20199-3.82354,33.12707-3.65221,39.32559.24037,8.70313,4.66415,9.24853,26.19248,19.73033-.86509,4.57879-1.47847,9.09579-1.96223,13.58211,21.16257,8.14715,49.70737,24.21801,59.84425,30.0624l2.41879,1.40127,2.35187-1.40127c10.13703-5.84439,38.68168-21.91525,59.84425-30.0624-.48376-4.48633-1.0973-9.00333-1.96238-13.58211,21.52863-10.4818,25.95241-11.0272,26.19263-19.73033.17133-6.19852,2.40429-40.1387-3.29657-37.93671ZM109.79532,107.18422c.43073,7.31228-.61142,13.22088,2.44826,16.22738,5.13507,5.04593,12.3283,7.89153,12.3283,7.89153-.24475,2.44644-1.95724,4.77066-1.95724,4.77066-8.84756-3.99849-14.32271-7.37664-16.83684-9.06315-1.11694-.74936-1.87279-1.89152-2.15863-3.20577-2.29234-10.54344-.57637-27.48633-.57637-27.48633,9.12842,3.80737,16.09957,7.60991,18.685,10.91736,3.39447,4.3425,4.72413,6.54087,4.72413,6.54087-1.77444,2.4194-16.6566-6.59254-16.6566-6.59254ZM260.31749,123.80486c-.28584,1.31425-1.0417,2.45641-2.15863,3.20577-2.51413,1.68651-7.98927,5.06466-16.83684,9.06315,0,0-1.71249-2.32422-1.95709-4.77066,0,0,7.19308-2.8456,12.32815-7.89153,3.05968-3.0065,2.01753-8.91509,2.44826-16.22738,0,0-14.88216,9.01194-16.6566,6.59254,0,0,1.32966-2.19837,4.72413-6.54087,2.58544-3.30745,9.55658-7.10999,18.685-10.91736,0,0,1.71612,16.9429-.57637,27.48633Z"/><path class="uuid-520289c0-7f9f-45c9-ad7e-1f339418d30d" d="M441.52748,283.16334h-4.55137c-1.03656,0-1.49725-.40243-1.49725-1.44034v-16.07139h-16.36v16.07139c0,1.03791-.46205,1.44034-1.44034,1.44034h-4.49446c-1.03656,0-1.55416-.40243-1.55416-1.44034v-37.04103c0-.97965.63277-1.38343,1.55416-1.38343h4.49446c.92138,0,1.44034.34687,1.44034,1.38343v15.03483h16.36v-15.03483c0-.97965.57587-1.38343,1.49725-1.38343h4.55137c.92138,0,1.38343.34687,1.38343,1.38343v37.04103c0,1.03791-.40378,1.44034-1.38343,1.44034Z"/><path class="uuid-520289c0-7f9f-45c9-ad7e-1f339418d30d" d="M454.83878,251.53681c-1.90103,0-3.9186-1.2669-3.9186-3.57172,0-2.30346,1.90239-3.68689,3.9186-3.68689,1.95794,0,3.85898,1.32517,3.85898,3.62999,0,2.24655-1.95794,3.62863-3.85898,3.62863ZM456.91189,283.16334h-4.03241c-1.03656,0-1.49725-.40243-1.49725-1.44034v-25.17413c0-.97965.57587-1.32517,1.49725-1.32517h4.03241c.92138,0,1.44034.28861,1.44034,1.32517v25.17413c0,1.03791-.46069,1.44034-1.44034,1.44034Z"/><path class="uuid-520289c0-7f9f-45c9-ad7e-1f339418d30d" d="M473.44804,283.85438c-2.99586,0-6.28032-.86312-8.87239-2.01621-.51896-.23035-.69104-.57587-.69104-.92138,0-.17208.05691-.34552.11517-.5176l.92138-2.93895c.17344-.57587.46069-.80621.80621-.80621.17344,0,.34687,0,.63413.11517,2.53516,1.03656,5.24241,1.78586,7.25862,1.78586,2.53584,0,4.26344-1.15173,4.26344-3.05276,0-1.61378-1.09482-2.4769-3.45723-3.39964l-4.55002-1.7276c-3.28447-1.21-5.9348-3.74516-5.9348-7.6624,0-5.64484,5.30067-8.23827,10.42791-8.23827,2.76619,0,5.47343.46205,8.35412,1.72895.46069.23035.69104.46069.69104.80621,0,.17344-.05826.34552-.11517.57587l-.97965,3.11103c-.11517.40378-.40378.63413-.80621.63413-.17344,0-.40378-.05826-.57587-.11517-1.90103-.7493-4.37929-1.38343-6.22274-1.38343-2.41999,0-3.62999,1.32517-3.62999,2.65034,0,1.2669.63413,2.07447,2.82377,2.93759l5.18482,2.13274c3.05276,1.2669,5.47276,3.62863,5.47276,7.37379,0,6.04862-5.24241,8.92795-11.11827,8.92795Z"/><path class="uuid-520289c0-7f9f-45c9-ad7e-1f339418d30d" d="M506.17008,282.53057c-1.78586.74795-4.14759,1.32381-6.45105,1.32381-2.93895,0-5.47276-.74795-6.9131-2.41864-1.78586-2.01621-1.84412-4.37793-1.84412-8.58378v-12.84654h-2.70725c-1.09482,0-1.2669-.23035-1.2669-1.44034v-2.18964c0-.69104.34552-1.15173,1.03656-1.15173h2.93759v-6.27897c0-.97965.51896-1.2669,1.44034-1.38208l4.14759-.51896h.28861c.7493,0,1.09482.40378,1.09482,1.2669v6.9131h6.50931c.69104,0,1.09482.23035,1.09482.97965v2.70725c0,.69104-.46069,1.09482-1.15309,1.09482h-6.45105v13.19206c0,1.72895.11517,2.99586.74795,3.91724.51896.7493,1.32517,1.21,2.7086,1.21,1.44034,0,2.64898-.34552,3.68689-.69104.23035-.05826.40243-.11517.57587-.11517.40243,0,.63277.23035.7493.69104l.57587,2.88068c.05691.17208.05691.23035.05691.34552,0,.57587-.28726.86448-.86448,1.09482Z"/><path class="uuid-520289c0-7f9f-45c9-ad7e-1f339418d30d" d="M523.56935,283.85438c-9.39,0-13.70967-6.33588-13.70967-14.74758,0-8.29517,5.06897-14.63241,14.05518-14.63241,9.39,0,13.71102,6.22206,13.71102,14.69067,0,8.29517-5.06897,14.68931-14.05654,14.68931ZM523.85796,259.94715c-5.12724,0-6.79792,4.4362-6.79792,9.04448,0,4.72481,1.44034,9.39,6.56758,9.39,5.06897,0,6.79792-4.49311,6.79792-9.21656s-1.49861-9.21791-6.56758-9.21791Z"/><path class="uuid-520289c0-7f9f-45c9-ad7e-1f339418d30d" d="M558.94375,255.973l-.63277,4.08932c-.05826.51896-.34687.7493-.80757.7493h-.23035c-.46069-.11517-1.03656-.17208-1.55551-.17208-1.95794,0-4.08932,1.03656-5.52966,2.76415v18.3193c0,.92274-.40378,1.44034-1.38343,1.44034h-4.2045c-.92138,0-1.38343-.46069-1.38343-1.44034v-25.05896c0-1.15173.57722-1.44034,1.44034-1.44034h3.68689c.92274,0,1.44034.28861,1.44034,1.09482l.05826,1.84277c1.78586-2.24655,3.7438-3.68689,6.97001-3.68689.46069,0,1.09482.11653,1.61378.2317.40243.11517.57587.28726.57587.74795,0,.17344,0,.34552-.05826.51896Z"/><path class="uuid-520289c0-7f9f-45c9-ad7e-1f339418d30d" d="M588.20992,256.60713l-11.34794,29.84068c-2.59207,6.85483-5.81827,9.27482-12.73137,9.27482-1.09482,0-2.07447-.05826-3.05412-.28861-.63277-.11517-.86312-.46069-.86312-.97965,0-.17208.05691-.28726.05691-.5176l.40378-2.99586c.11517-.7493.40243-1.03656,1.03656-1.03656h.34552c.69104.05691,1.38343.17208,1.9593.17208,3.57172,0,5.06897-1.2669,6.2207-3.97415l1.09482-2.59343-10.48482-27.0169c-.05691-.17344-.11517-.28861-.11517-.46205,0-.46069.34552-.80621.86448-.80621h5.53102c.80621,0,1.20864.40378,1.43899.97965l6.3955,19.0686,6.04862-18.72308c.28726-.92138.7493-1.32517,1.7276-1.32517h4.66654c.57587,0,.92138.34552.92138.80621,0,.17344-.05691.34552-.11517.57722Z"/><path class="uuid-520289c0-7f9f-45c9-ad7e-1f339418d30d" d="M617.82431,283.85438c-3.45655,0-7.54723-.63277-11.00377-1.84277-.7493-.28861-.97965-.63413-.97965-1.09482,0-.23035,0-.46069.11517-.7493l1.21-3.7438c.17344-.57587.46069-.92138,1.03656-.92138.23035,0,.51896.05691.86448.17208,2.70725.97965,5.7031,1.72895,8.58378,1.72895,3.11103,0,6.62449-1.49861,6.62449-5.12724,0-2.65034-1.95794-4.09068-4.2045-5.1855l-7.48896-3.7438c-4.09068-2.01621-6.79792-5.41585-6.79792-9.90895,0-7.02827,6.9131-10.88725,13.30724-10.88725,3.80207,0,6.97001.57587,10.31138,2.01621.7493.34552,1.15173.69104,1.15173,1.15173,0,.23035-.05691.46069-.17208.7493l-1.38208,3.51346c-.2317.63413-.57722.86448-.97965.86448-.28861,0-.57587-.11517-.92138-.23035-2.36308-.97965-5.30067-1.78586-7.60549-1.78586-2.70725,0-5.81827,1.15173-5.81827,4.37793,0,2.36173,2.18964,3.74516,4.09068,4.66654l6.39414,3.11103c4.55137,2.18829,7.6624,5.24241,7.6624,10.54173,0,8.00792-6.50931,12.32759-13.99828,12.32759Z"/><path class="uuid-520289c0-7f9f-45c9-ad7e-1f339418d30d" d="M660.2839,270.77749h-16.87896c.46069,4.4362,3.68689,7.48896,8.23827,7.48896,2.41864,0,4.9538-.57587,7.08518-1.38208.23035-.05691.40378-.17208.63413-.17208.40243,0,.69104.23035.80621.69104l.80621,2.93759c.05826.28861.11517.51896.11517.69104,0,.40378-.23035.69104-.92138.97965-2.82242,1.2669-6.68275,1.84277-9.67861,1.84277-9.04448,0-14.4007-5.76001-14.4007-14.74758,0-8.64069,5.7031-14.63241,14.28553-14.63241,3.51481,0,6.3955,1.32517,8.4117,3.45655,2.64898,2.76551,3.39828,6.3955,3.39828,10.31274v.86312c0,1.38343-.46069,1.67069-1.90103,1.67069ZM655.3301,265.59335c-.11517-2.99586-1.84412-5.76137-5.35758-5.76137-3.74516,0-5.99171,2.99586-6.4524,6.3955h11.80999v-.63413Z"/><path class="uuid-520289c0-7f9f-45c9-ad7e-1f339418d30d" d="M683.15728,255.973l-.63277,4.08932c-.05826.51896-.34687.7493-.80757.7493h-.23035c-.46069-.11517-1.03656-.17208-1.55551-.17208-1.95794,0-4.08932,1.03656-5.52966,2.76415v18.3193c0,.92274-.40378,1.44034-1.38343,1.44034h-4.2045c-.92138,0-1.38343-.46069-1.38343-1.44034v-25.05896c0-1.15173.57722-1.44034,1.44034-1.44034h3.68689c.92274,0,1.44034.28861,1.44034,1.09482l.05826,1.84277c1.78586-2.24655,3.7438-3.68689,6.97001-3.68689.46069,0,1.09482.11653,1.61378.2317.40243.11517.57587.28726.57587.74795,0,.17344,0,.34552-.05826.51896Z"/><path class="uuid-520289c0-7f9f-45c9-ad7e-1f339418d30d" d="M710.80967,256.60713l-10.08103,25.46139c-.34552.86448-.80757,1.09482-1.67069,1.09482h-2.99586c-.86448,0-1.44034-.23035-1.72895-1.03656l-9.9076-25.69309c-.05826-.17344-.11517-.34552-.11517-.51896,0-.46069.28726-.69104,1.03656-.69104h5.06897c.97965,0,1.44034.40378,1.67069,1.15173l4.37793,13.42377c.57722,1.7276,1.09482,3.62863,1.44034,4.89553h.05826c.28726-1.09347.86448-3.10967,1.38208-4.72345l4.49311-13.53758c.28861-.97965.7493-1.21,1.78586-1.21h4.14894c.74795,0,1.15173.28861,1.15173.80621,0,.17344-.05826.34552-.11517.57722Z"/><path class="uuid-520289c0-7f9f-45c9-ad7e-1f339418d30d" d="M736.27512,270.77749h-16.87896c.46069,4.4362,3.68689,7.48896,8.23827,7.48896,2.41864,0,4.9538-.57587,7.08518-1.38208.23035-.05691.40378-.17208.63413-.17208.40243,0,.69104.23035.80621.69104l.80621,2.93759c.05826.28861.11517.51896.11517.69104,0,.40378-.23035.69104-.92138.97965-2.82242,1.2669-6.68275,1.84277-9.67861,1.84277-9.04448,0-14.4007-5.76001-14.4007-14.74758,0-8.64069,5.7031-14.63241,14.28553-14.63241,3.51481,0,6.3955,1.32517,8.4117,3.45655,2.64898,2.76551,3.39828,6.3955,3.39828,10.31274v.86312c0,1.38343-.46069,1.67069-1.90103,1.67069ZM731.32132,265.59335c-.11517-2.99586-1.84412-5.76137-5.35758-5.76137-3.74516,0-5.99171,2.99586-6.4524,6.3955h11.80999v-.63413Z"/><path class="uuid-520289c0-7f9f-45c9-ad7e-1f339418d30d" d="M759.1485,255.973l-.63277,4.08932c-.05826.51896-.34687.7493-.80757.7493h-.23035c-.46069-.11517-1.03656-.17208-1.55551-.17208-1.95794,0-4.08932,1.03656-5.52966,2.76415v18.3193c0,.92274-.40378,1.44034-1.38208,1.44034h-4.20585c-.92138,0-1.38343-.46069-1.38343-1.44034v-25.05896c0-1.15173.57722-1.44034,1.44034-1.44034h3.68689c.92274,0,1.44034.28861,1.44034,1.09482l.05826,1.84277c1.78586-2.24655,3.7438-3.68689,6.97001-3.68689.46069,0,1.09482.11653,1.61378.2317.40243.11517.57587.28726.57587.74795,0,.17344,0,.34552-.05826.51896Z"/><path class="uuid-520289c0-7f9f-45c9-ad7e-1f339418d30d" d="M427.79571,233.78016c-23.02095,0-31.42186-12.65485-31.42186-35.02074v-39.16771c0-1.85425,1.09155-2.61893,2.83684-2.61893h8.61882c1.85425,0,2.61893.76468,2.61893,2.61893v37.9672c0,16.03846,4.14565,24.32976,17.89139,24.32976,13.20162,0,17.34859-8.72844,17.34859-24.32976v-37.9672c0-1.85425.98259-2.61893,2.7259-2.61893h8.61882c1.85689,0,2.62025.76468,2.62025,2.61893v39.38562c0,22.47419-10.58401,34.80283-31.85769,34.80283Z"/><path class="uuid-520289c0-7f9f-45c9-ad7e-1f339418d30d" d="M518.99729,232.47135h-7.85547c-1.96255,0-2.61761-.98127-2.61761-2.83684v-29.67591c0-5.9999-1.63766-10.25516-8.29129-10.25516-4.25526,0-9.49312,2.2914-12.87409,5.23654v34.80415c0,1.85425-.76336,2.72723-2.61761,2.72723h-7.9664c-1.63501,0-2.61761-.87298-2.61761-2.61893v-47.5673c0-1.74595.76336-2.72855,2.72855-2.72855h7.08947c1.52936,0,2.50931.43715,2.62025,2.07348l.1083,2.83684c5.01862-4.03735,11.34737-6.32743,17.67348-6.32743,12.21903,0,17.23765,7.63623,17.23765,19.52905v31.96599c0,1.85557-.65242,2.83684-2.61761,2.83684Z"/><path class="uuid-520289c0-7f9f-45c9-ad7e-1f339418d30d" d="M542.775,172.57409c-3.6002,0-7.41964-2.39969-7.41964-6.76325,0-4.36488,3.60284-6.98249,7.41964-6.98249,3.71114,0,7.31134,2.50931,7.31134,6.87287,0,4.25526-3.71114,6.87287-7.31134,6.87287ZM546.70273,232.47135h-7.63623c-1.96519,0-2.83684-.76336-2.83684-2.72723v-47.67824c0-1.85425,1.09089-2.50931,2.83684-2.50931h7.63623c1.74595,0,2.72855.54677,2.72855,2.50931v47.67824c0,1.96387-.8743,2.72723-2.72855,2.72723Z"/><path class="uuid-520289c0-7f9f-45c9-ad7e-1f339418d30d" d="M602.12418,230.50749c-5.23786,2.39969-10.03725,3.27267-15.81923,3.27267-16.80182,0-26.07571-10.47307-26.07571-27.27489,0-16.91012,10.14554-28.36579,27.05566-28.36579,4.91033,0,10.03725.98127,14.62004,3.05476.8743.43583,1.31012.65374,1.31012,1.52672,0,.32753-.1083.98259-.21923,1.3088l-1.41842,5.7833c-.21659.98127-.65242,1.52672-1.30748,1.52672-.32753,0-.76336-.21791-1.20183-.43583-3.16173-1.3088-6.65364-2.40101-10.47307-2.40101-9.38218,0-14.72834,6.65628-14.72834,17.34727,0,10.47439,4.79939,17.6748,14.18421,17.6748,4.69109,0,7.63623-.87298,11.45567-2.39969.32489-.10962.76336-.32753,1.09089-.32753.65242,0,1.09089.54545,1.30748,1.3088l1.41842,4.80071c.21923.76336.32753,1.41842.32753,1.85425,0,.87298-.54412,1.31012-1.52672,1.74595Z"/><path class="uuid-520289c0-7f9f-45c9-ad7e-1f339418d30d" d="M635.39501,233.78016c-17.78441,0-25.96477-12.00111-25.96477-27.92996,0-15.70961,9.59878-27.71072,26.61983-27.71072,17.78441,0,25.96477,11.78188,25.96477,27.82034,0,15.71093-9.59878,27.82034-26.61983,27.82034ZM635.94177,188.50293c-9.70971,0-12.87409,8.40091-12.87409,17.12935,0,8.94636,2.7259,17.78309,12.43562,17.78309,9.60142,0,12.87409-8.50921,12.87409-17.45556s-2.83684-17.45688-12.43562-17.45688Z"/><path class="uuid-520289c0-7f9f-45c9-ad7e-1f339418d30d" d="M702.37777,180.975l-1.19919,7.74717c-.11094.98127-.65506,1.41842-1.52672,1.41842h-.43847c-.87166-.21923-1.96255-.32753-2.94514-.32753-3.7085,0-7.74717,1.96387-10.47307,5.23654v34.69453c0,1.74595-.76336,2.72723-2.61761,2.72723h-7.9664c-1.74595,0-2.61761-.87298-2.61761-2.72723v-47.459c0-2.18178,1.09089-2.72855,2.72855-2.72855h6.98117c1.74595,0,2.72855.54677,2.72855,2.07348l.1083,3.49191c3.38097-4.25526,7.09211-6.98249,13.20162-6.98249.87166,0,2.07348.21791,3.05344.43583.766.21791,1.09089.54545,1.09089,1.41842,0,.32753,0,.65506-.1083.98127Z"/><path class="uuid-520289c0-7f9f-45c9-ad7e-1f339418d30d" d="M755.07067,232.47135h-7.85547c-1.96519,0-2.62025-.98127-2.62025-2.83684v-29.67591c0-5.9999-1.63501-10.25516-8.29129-10.25516-4.25526,0-9.49048,2.2914-12.87409,5.23654v34.80415c0,1.85425-.76336,2.72723-2.61761,2.72723h-7.96376c-1.63766,0-2.62025-.87298-2.62025-2.61893v-47.5673c0-1.74595.766-2.72855,2.72855-2.72855h7.09211c1.52672,0,2.50931.43715,2.61761,2.07348l.1083,2.83684c5.02126-4.03735,11.34737-6.32743,17.67612-6.32743,12.21903,0,17.23765,7.63623,17.23765,19.52905v31.96599c0,1.85557-.65506,2.83684-2.61761,2.83684Z"/></svg>