<?xml version="1.0" encoding="UTF-8"?><svg id="uuid-3bfc330d-2a1f-461f-a2e6-9d07c0aca495" xmlns="http://www.w3.org/2000/svg" viewBox="0 0 800 360"><defs><style>.uuid-e71091af-7b3a-4135-a6ca-61684df7cb21{fill:#fff;stroke-width:0px;}</style></defs><path class="uuid-e71091af-7b3a-4135-a6ca-61684df7cb21" d="M89.28176,287.1337c6.29523,3.92543,31.08528,20.26475,34.87323,26.75417,2.0055,3.43582,5.81397,16.088,7.69656,24.7585.91464,4.21247-2.31565,7.56145-6.28961,6.5664l-19.84224-7.92239c-20.13894-9.3607-23.1381-8.5584-24.79508-21.34487-4.10555-31.68143-1.07573-34.69373,8.35714-28.81181Z"/><path class="uuid-e71091af-7b3a-4135-a6ca-61684df7cb21" d="M56.50089,236.86782c-.86703-5.99843-4.93558-29.837-8.52129-34.46408-1.89846-2.44979-10.05245-8.61285-15.87685-12.25517-2.82972-1.76958-6.36624-.01405-6.91978,3.40689l-.57091,17.80937c.40035,18.40111-1.17047,20.59991,7.78279,25.07684,22.1838,11.09264,25.4052,9.41427,24.10603.42614Z"/><path class="uuid-e71091af-7b3a-4135-a6ca-61684df7cb21" d="M242.40215,287.1337c-6.29523,3.92543-31.08528,20.26475-34.87323,26.75417-2.0055,3.43582-5.81397,16.088-7.69656,24.7585-.91464,4.21247,2.31565,7.56145,6.28961,6.5664l19.84224-7.92239c20.13894-9.3607,23.1381-8.5584,24.79508-21.34487,4.10555-31.68143,1.07573-34.69373-8.35714-28.81181Z"/><path class="uuid-e71091af-7b3a-4135-a6ca-61684df7cb21" d="M152.82451,193.48572s-44.76439-26.42481-89.52878-41.57289v11.10854s63.25303,20.36569,89.52878,32.31584v-1.85149Z"/><path class="uuid-e71091af-7b3a-4135-a6ca-61684df7cb21" d="M36.98269,182.60572c7.43728,5.18138,15.40075,11.34285,17.43147,13.96328,5.20925,6.72215,11.50383,38.95428,10.94507,48.66765-.67851,11.79445-7.16472,12.21482-28.64391,2.86493l-.16127,39.4919c2.85388,1.31512,13.47574,6.11524,23.65916,10.39707l-.00058.00048.05324.02172c3.10798,1.30647,6.16599,2.55989,8.95615,3.65435l.16751.06833c-1.93597-27.11745,1.18413-33.85142,13.90994-29.1549,10.91277,4.02733,44.14085,27.06132,49.6439,36.48906,1.78181,3.05272,4.75976,12.14553,7.43027,21.62939l20.90293,8.52895v-131.09485c-40.62202-16.63475-82.40067-30.36767-124.2195-43.75335l-.07439,18.22598Z"/><path class="uuid-e71091af-7b3a-4135-a6ca-61684df7cb21" d="M268.3882,151.91283c-44.76439,15.14808-89.52878,41.57289-89.52878,41.57289v1.85149c26.27575-11.95015,89.52878-32.31584,89.52878-32.31584v-11.10854Z"/><path class="uuid-e71091af-7b3a-4135-a6ca-61684df7cb21" d="M266.3247,245.23665c-.55876-9.71337,5.73582-41.9455,10.94507-48.66765,2.03073-2.62043,9.99419-8.78191,17.43147-13.96328l-.07439-18.22598c-41.81883,13.38568-83.59749,27.1186-124.2195,43.75335v131.09485l20.90293-8.52895c2.67051-9.48387,5.64846-18.57667,7.43027-21.62939,5.50305-9.42774,38.73113-32.46173,49.6439-36.48906,12.72582-4.69652,15.84591,2.03745,13.90994,29.1549l.16751-.06833c2.79016-1.09446,5.84816-2.34788,8.95615-3.65435l.05324-.02172-.00058-.00048c10.18342-4.28182,20.80528-9.08195,23.65916-10.39707l-.16127-39.4919c-21.47918,9.34989-27.96539,8.92952-28.64391-2.86493Z"/><path class="uuid-e71091af-7b3a-4135-a6ca-61684df7cb21" d="M275.18302,236.86782c.86703-5.99843,4.93558-29.837,8.52129-34.46408,1.89846-2.44979,10.05245-8.61285,15.87685-12.25517,2.82972-1.76958,6.36624-.01405,6.91978,3.40689l.57091,17.80937c-.40035,18.40111,1.17047,20.59991-7.78279,25.07684-22.1838,11.09264-25.4052,9.41427-24.10603.42614Z"/><path class="uuid-e71091af-7b3a-4135-a6ca-61684df7cb21" d="M167.53455,16.52549c-.30156-2.55552-4.05424-2.55205-4.35081.00408l-4.67926,40.31199,14.73848,8.05258-5.70842-48.36865Z"/><polygon class="uuid-e71091af-7b3a-4135-a6ca-61684df7cb21" points="174.3815 74.54001 157.52065 65.31716 154.68124 89.77857 177.6391 102.14343 174.3815 74.54001"/><path class="uuid-e71091af-7b3a-4135-a6ca-61684df7cb21" d="M248.87963,86.59712c-3.34159,1.29068-25.79454,9.11664-31.65192,17.75782-15.41411,22.73939-11.87476,22.58363-30.89319,11.7409.00181.01254.00181.02357.00347.03611l-7.50808-3.90014-.00242-.02055-25.15305-13.75873-1.63333,14.07101-6.94637,3.6084c.00166-.01254.00166-.02357.00347-.03611-18.50809,10.20079-15.47908,10.99849-30.89304-11.7409-5.85738-8.64119-27.95483-17.85602-31.29643-19.1467-5.70086-2.20199-3.82354,33.12707-3.65221,39.32559.24037,8.70313,4.66415,9.24853,26.19248,19.73033-.86509,4.57879-1.47847,9.09579-1.96223,13.58211,21.16257,8.14715,49.70737,24.21801,59.84425,30.0624l2.41879,1.40127,2.35187-1.40127c10.13703-5.84439,38.68168-21.91525,59.84425-30.0624-.48376-4.48633-1.0973-9.00333-1.96238-13.58211,21.52863-10.4818,25.95241-11.0272,26.19263-19.73033.17133-6.19852,2.40429-40.1387-3.29657-37.93671ZM93.61415,107.18422c.43073,7.31228-.61142,13.22088,2.44826,16.22738,5.13507,5.04593,12.3283,7.89153,12.3283,7.89153-.24475,2.44644-1.95724,4.77066-1.95724,4.77066-8.84756-3.99849-14.32271-7.37664-16.83684-9.06315-1.11694-.74936-1.87279-1.89152-2.15863-3.20577-2.29234-10.54344-.57637-27.48633-.57637-27.48633,9.12842,3.80737,16.09957,7.60991,18.685,10.91736,3.39447,4.3425,4.72413,6.54087,4.72413,6.54087-1.77444,2.4194-16.6566-6.59254-16.6566-6.59254ZM244.13632,123.80486c-.28584,1.31425-1.0417,2.45641-2.15863,3.20577-2.51413,1.68651-7.98927,5.06466-16.83684,9.06315,0,0-1.71249-2.32422-1.95709-4.77066,0,0,7.19308-2.8456,12.32815-7.89153,3.05968-3.0065,2.01753-8.91509,2.44826-16.22738,0,0-14.88216,9.01194-16.6566,6.59254,0,0,1.32966-2.19837,4.72413-6.54087,2.58544-3.30745,9.55658-7.10999,18.685-10.91736,0,0,1.71612,16.9429-.57637,27.48633Z"/><path class="uuid-e71091af-7b3a-4135-a6ca-61684df7cb21" d="M420.42213,160.46033l-22.21439,41.08742v28.36048c0,1.61747-.86194,2.48093-2.47941,2.48093h-9.05875c-1.61747,0-2.48093-.86346-2.48093-2.6968v-27.60647l-23.40013-41.73198c-.21587-.43173-.3238-.75553-.3238-1.07933,0-.86194.75553-1.50954,1.94127-1.50954h9.81276c1.94127,0,3.23494.6476,3.99047,2.0492l15.52864,30.51761h.21587l15.31277-30.30175c.86194-1.7254,1.7254-2.26507,3.77461-2.26507h7.76356c1.29367,0,2.0492.43173,2.0492,1.29367,0,.3238-.10793.86346-.43173,1.40161Z"/><path class="uuid-e71091af-7b3a-4135-a6ca-61684df7cb21" d="M466.25024,232.38916h-6.90162c-1.40161,0-2.48093-.75553-2.58887-2.15714l-.10793-2.69528c-4.96111,3.98895-10.89133,6.14609-17.14687,6.14609-12.07783,0-17.03818-7.65715-17.03818-19.30324v-31.81128c0-1.83334,1.07781-2.48093,2.80473-2.48093h7.54769c1.7254,0,2.6968.53966,2.6968,2.48093v29.54774c0,5.93022,1.50954,10.02863,7.97942,10.02863,4.0984,0,9.27462-2.26507,12.50956-5.17621v-34.40015c0-1.83334.97063-2.48093,2.69604-2.48093h7.65715c1.7254,0,2.69528.53966,2.69528,2.48093v46.80178c0,2.26355-.6476,3.01908-2.80321,3.01908Z"/><path class="uuid-e71091af-7b3a-4135-a6ca-61684df7cb21" d="M526.84917,232.38916h-7.76356c-1.94127,0-2.58887-.97139-2.58887-2.80473v-29.33187c0-5.93022-1.61747-10.13656-8.19529-10.13656-4.20482,0-9.38103,2.26507-12.72391,5.17621v34.40015c0,1.83334-.75553,2.6968-2.58887,2.6968h-7.87149c-1.61899,0-2.58887-.86346-2.58887-2.58887v-47.01612c0-1.7254.75553-2.6968,2.6968-2.6968h7.00803c1.51106,0,2.48093.43173,2.58887,2.0492l.10793,2.80321c4.96035-3.98895,11.21437-6.25402,17.46991-6.25402,12.07783,0,17.03818,7.54921,17.03818,19.30324v31.59542c0,1.83334-.6476,2.80473-2.58887,2.80473Z"/><path class="uuid-e71091af-7b3a-4135-a6ca-61684df7cb21" d="M550.35267,173.18576c-3.55874,0-7.33335-2.373-7.33335-6.68575,0-4.31427,3.55874-6.90162,7.33335-6.90162,3.66667,0,7.22541,2.48093,7.22541,6.79368,0,4.20634-3.66667,6.79368-7.22541,6.79368ZM554.23521,232.38916h-7.54921c-1.94127,0-2.80321-.75553-2.80321-2.6968v-47.12406c0-1.83334,1.07781-2.48093,2.80321-2.48093h7.54921c1.7254,0,2.69528.53966,2.69528,2.48093v47.12406c0,1.94127-.86194,2.6968-2.69528,2.6968Z"/><path class="uuid-e71091af-7b3a-4135-a6ca-61684df7cb21" d="M625.61981,232.38916h-10.78416c-2.58887,0-3.77461-.86346-5.17621-2.6968l-23.29372-29.87001h-.21587v29.87001c0,1.94127-.75401,2.6968-2.58735,2.6968h-8.62702c-1.94127,0-2.6968-.75553-2.6968-2.6968v-69.33844c0-1.83334.97139-2.58887,2.6968-2.58887h8.62702c1.7254,0,2.58735.6476,2.58735,2.58887v30.51761h.21587l22.21439-31.16521c.97139-1.29367,2.26507-1.94127,3.99047-1.94127h8.62702c1.07781,0,1.7254.6476,1.7254,1.40161,0,.43173-.10793.86346-.43173,1.29367l-24.80173,33.32234,28.68427,35.26361c.53966.64608.96987,1.40161.96987,1.94127,0,.86194-.64608,1.40161-1.72388,1.40161Z"/><path class="uuid-e71091af-7b3a-4135-a6ca-61684df7cb21" d="M654.51387,233.68283c-17.57784,0-25.6652-11.86196-25.6652-27.60647,0-15.52864,9.48896-27.3906,26.31279-27.3906,17.57632,0,25.6652,11.6461,25.6652,27.49853,0,15.52864-9.49048,27.49853-26.31279,27.49853ZM655.05354,188.93026c-9.59842,0-12.72543,8.30322-12.72543,16.93024,0,8.84289,2.69528,17.57784,12.29369,17.57784,9.48896,0,12.72543-8.41116,12.72543-17.25404s-2.80473-17.25404-12.29369-17.25404Z"/><path class="uuid-e71091af-7b3a-4135-a6ca-61684df7cb21" d="M720.71923,181.48898l-1.18574,7.65715c-.10793.96987-.6476,1.40161-1.50954,1.40161h-.43173c-.86346-.21587-1.94127-.3238-2.91114-.3238-3.66667,0-7.65715,1.94127-10.35242,5.17621v34.29222c0,1.7254-.75553,2.6968-2.58887,2.6968h-7.87149c-1.7254,0-2.58887-.86346-2.58887-2.6968v-46.90819c0-2.15714,1.07781-2.6968,2.6968-2.6968h6.90162c1.72388,0,2.69528.53966,2.69528,2.0492l.10793,3.45081c3.34288-4.20634,7.00955-6.90162,13.0477-6.90162.86346,0,2.0492.21587,3.0206.43173.75401.21587,1.07781.53814,1.07781,1.40161,0,.3238,0,.64608-.10793.96987Z"/><path class="uuid-e71091af-7b3a-4135-a6ca-61684df7cb21" d="M772.79907,232.38916h-7.76356c-1.94127,0-2.58887-.97139-2.58887-2.80473v-29.33187c0-5.93022-1.61747-10.13656-8.19529-10.13656-4.20482,0-9.38103,2.26507-12.72391,5.17621v34.40015c0,1.83334-.75553,2.6968-2.58887,2.6968h-7.87149c-1.61899,0-2.58887-.86346-2.58887-2.58887v-47.01612c0-1.7254.75553-2.6968,2.6968-2.6968h7.00803c1.51106,0,2.48093.43173,2.58887,2.0492l.10793,2.80321c4.96035-3.98895,11.21437-6.25402,17.46991-6.25402,12.07783,0,17.03818,7.54921,17.03818,19.30324v31.59542c0,1.83334-.6476,2.80473-2.58887,2.80473Z"/><path class="uuid-e71091af-7b3a-4135-a6ca-61684df7cb21" d="M418.45198,286.41787h-5.10628c-1.16294,0-1.6798-.45149-1.6798-1.61595v-18.03085h-18.35465v18.03085c0,1.16446-.51838,1.61595-1.61595,1.61595h-5.04244c-1.16294,0-1.74365-.45149-1.74365-1.61595v-41.55716c0-1.09909.70992-1.5521,1.74365-1.5521h5.04244c1.03372,0,1.61595.38917,1.61595,1.5521v16.86792h18.35465v-16.86792c0-1.09909.64608-1.5521,1.6798-1.5521h5.10628c1.03372,0,1.5521.38917,1.5521,1.5521v41.55716c0,1.16446-.45301,1.61595-1.5521,1.61595Z"/><path class="uuid-e71091af-7b3a-4135-a6ca-61684df7cb21" d="M433.38623,250.93536c-2.13281,0-4.39636-1.42137-4.39636-4.00719,0-2.58431,2.13433-4.13641,4.39636-4.13641,2.19666,0,4.32947,1.48674,4.32947,4.07256,0,2.52046-2.19666,4.07104-4.32947,4.07104ZM435.7121,286.41787h-4.52406c-1.16294,0-1.6798-.45149-1.6798-1.61595v-28.24342c0-1.09909.64608-1.48674,1.6798-1.48674h4.52406c1.03372,0,1.61595.3238,1.61595,1.48674v28.24342c0,1.16446-.51686,1.61595-1.61595,1.61595Z"/><path class="uuid-e71091af-7b3a-4135-a6ca-61684df7cb21" d="M454.26438,287.19317c-3.36112,0-7.04603-.96835-9.95414-2.26203-.58223-.25843-.77529-.64608-.77529-1.03372,0-.19306.06385-.38765.12922-.58071l1.03372-3.29727c.19458-.64608.51686-.90451.90451-.90451.19458,0,.38917,0,.71144.12922,2.84426,1.16294,5.88158,2.0036,8.1436,2.0036,2.84502,0,4.78325-1.29215,4.78325-3.42497,0-1.81053-1.22831-2.77889-3.87874-3.81413l-5.10476-1.93823c-3.68492-1.35752-6.65839-4.20178-6.65839-8.59662,0-6.33307,5.94694-9.24269,11.6993-9.24269,3.10345,0,6.14077.51838,9.37267,1.93975.51686.25843.77529.51686.77529.90451,0,.19458-.06537.38765-.12922.64608l-1.09909,3.49033c-.12922.45301-.45301.71144-.90451.71144-.19458,0-.45301-.06537-.64608-.12922-2.13281-.84066-4.91322-1.5521-6.98143-1.5521-2.71504,0-4.07256,1.48674-4.07256,2.97347,0,1.42137.71144,2.3274,3.16805,3.29575l5.81697,2.39276c3.42497,1.42137,6.14001,4.07104,6.14001,8.27282,0,6.78608-5.88158,10.01647-12.47384,10.01647Z"/><path class="uuid-e71091af-7b3a-4135-a6ca-61684df7cb21" d="M490.97596,285.70795c-2.0036.83914-4.65327,1.48522-7.23758,1.48522-3.29727,0-6.14001-.83914-7.75596-2.71352-2.0036-2.26203-2.06896-4.9117-2.06896-9.63034v-14.41283h-3.03732c-1.22831,0-1.42137-.25843-1.42137-1.61595v-2.45661c0-.77529.38765-1.29215,1.16294-1.29215h3.29575v-7.04451c0-1.09909.58223-1.42137,1.61595-1.55058l4.65327-.58223h.3238c.84066,0,1.22831.45301,1.22831,1.42137v7.75596h7.30294c.77529,0,1.22831.25843,1.22831,1.09909v3.03732c0,.77529-.51686,1.22831-1.29367,1.22831h-7.23758v14.80047c0,1.93975.12922,3.36112.83914,4.39484.58223.84066,1.48674,1.35752,3.03884,1.35752,1.61595,0,2.97195-.38765,4.13641-.77529.25843-.06537.45149-.12922.64608-.12922.45149,0,.70992.25843.84066.77529l.64608,3.2319c.06385.19306.06385.25843.06385.38765,0,.64608-.32228.96987-.96987,1.22831Z"/><path class="uuid-e71091af-7b3a-4135-a6ca-61684df7cb21" d="M510.49659,287.19317c-10.53485,0-15.38118-7.10836-15.38118-16.54564,0-9.30654,5.68699-16.41642,15.76883-16.41642,10.53485,0,15.3827,6.98067,15.3827,16.48179,0,9.30654-5.68699,16.48027-15.77035,16.48027ZM510.82039,260.37111c-5.75236,0-7.62674,4.97707-7.62674,10.1472,0,5.30087,1.61595,10.53485,7.36831,10.53485,5.68699,0,7.62674-5.04092,7.62674-10.34026s-1.68132-10.34178-7.36831-10.34178Z"/><path class="uuid-e71091af-7b3a-4135-a6ca-61684df7cb21" d="M550.18393,255.91242l-.70992,4.5879c-.06537.58223-.38917.84066-.90603.84066h-.25843c-.51686-.12922-1.16294-.19306-1.74517-.19306-2.19666,0-4.5879,1.16294-6.20385,3.10117v20.55283c0,1.03524-.45301,1.61595-1.5521,1.61595h-4.71712c-1.03372,0-1.5521-.51686-1.5521-1.61595v-28.11421c0-1.29215.6476-1.61595,1.61595-1.61595h4.13641c1.03524,0,1.61595.3238,1.61595,1.22831l.06537,2.06744c2.0036-2.52046,4.20026-4.13641,7.81981-4.13641.51686,0,1.22831.13074,1.81053.25995.45149.12922.64608.32228.64608.83914,0,.19458,0,.38765-.06537.58223Z"/><path class="uuid-e71091af-7b3a-4135-a6ca-61684df7cb21" d="M583.01829,256.62387l-12.73151,33.47892c-2.9081,7.69059-6.52765,10.40563-14.28361,10.40563-1.22831,0-2.3274-.06537-3.42649-.3238-.70992-.12922-.96835-.51686-.96835-1.09909,0-.19306.06385-.32228.06385-.58071l.45301-3.36112c.12922-.84066.45149-1.16294,1.16294-1.16294h.38765c.77529.06385,1.5521.19306,2.19818.19306,4.00719,0,5.68699-1.42137,6.97915-4.45869l1.22831-2.90962-11.76315-30.31087c-.06385-.19458-.12922-.3238-.12922-.51838,0-.51686.38765-.90451.96987-.90451h6.20537c.90451,0,1.356.45301,1.61443,1.09909l7.17525,21.39349,6.78608-21.00585c.32228-1.03372.84066-1.48674,1.93823-1.48674h5.2355c.64608,0,1.03372.38765,1.03372.90451,0,.19458-.06385.38765-.12922.6476Z"/><path class="uuid-e71091af-7b3a-4135-a6ca-61684df7cb21" d="M616.24334,287.19317c-3.87798,0-8.4674-.70992-12.34538-2.06744-.84066-.3238-1.09909-.71144-1.09909-1.22831,0-.25843,0-.51686.12922-.84066l1.35752-4.20026c.19458-.64608.51686-1.03372,1.16294-1.03372.25843,0,.58223.06385.96987.19306,3.03732,1.09909,6.39844,1.93975,9.63034,1.93975,3.49033,0,7.43216-1.68132,7.43216-5.75236,0-2.97347-2.19666-4.58942-4.71712-5.81773l-8.40203-4.20026c-4.58942-2.26203-7.62674-6.07616-7.62674-11.11708,0-7.88517,7.75596-12.21465,14.92969-12.21465,4.26562,0,7.81981.64608,11.56857,2.26203.84066.38765,1.29215.77529,1.29215,1.29215,0,.25843-.06385.51686-.19306.84066l-1.55058,3.94183c-.25995.71144-.6476.96987-1.09909.96987-.3238,0-.64608-.12922-1.03372-.25843-2.65119-1.09909-5.94694-2.0036-8.53277-2.0036-3.03732,0-6.52765,1.29215-6.52765,4.9117,0,2.64967,2.45661,4.20178,4.58942,5.2355l7.17373,3.49033c5.10628,2.45509,8.59662,5.88158,8.59662,11.827,0,8.98426-7.30294,13.8306-15.70498,13.8306Z"/><path class="uuid-e71091af-7b3a-4135-a6ca-61684df7cb21" d="M663.8797,272.52191h-18.93688c.51686,4.97707,4.13641,8.40203,9.24269,8.40203,2.71352,0,5.55778-.64608,7.94902-1.55058.25843-.06385.45301-.19306.71144-.19306.45149,0,.77529.25843.90451.77529l.90451,3.29575c.06537.3238.12922.58223.12922.77529,0,.45301-.25843.77529-1.03372,1.09909-3.16653,1.42137-7.49753,2.06744-10.85864,2.06744-10.1472,0-16.15647-6.46228-16.15647-16.54564,0-9.69419,6.39844-16.41642,16.02726-16.41642,3.94335,0,7.17525,1.48674,9.43728,3.87798,2.97195,3.10269,3.81261,7.17525,3.81261,11.57009v.96835c0,1.5521-.51686,1.87438-2.13281,1.87438ZM658.32192,266.7057c-.12922-3.36112-2.06896-6.4638-6.01079-6.4638-4.20178,0-6.72224,3.36112-7.2391,7.17525h13.24989v-.71144Z"/><path class="uuid-e71091af-7b3a-4135-a6ca-61684df7cb21" d="M689.54186,255.91242l-.70992,4.5879c-.06537.58223-.38917.84066-.90603.84066h-.25843c-.51686-.12922-1.16294-.19306-1.74517-.19306-2.19666,0-4.5879,1.16294-6.20385,3.10117v20.55283c0,1.03524-.45301,1.61595-1.5521,1.61595h-4.71712c-1.03372,0-1.5521-.51686-1.5521-1.61595v-28.11421c0-1.29215.6476-1.61595,1.61595-1.61595h4.13641c1.03524,0,1.61595.3238,1.61595,1.22831l.06537,2.06744c2.0036-2.52046,4.20026-4.13641,7.81981-4.13641.51686,0,1.22831.13074,1.81053.25995.45149.12922.64608.32228.64608.83914,0,.19458,0,.38765-.06537.58223Z"/><path class="uuid-e71091af-7b3a-4135-a6ca-61684df7cb21" d="M720.56569,256.62387l-11.31014,28.5657c-.38765.96987-.90603,1.22831-1.87438,1.22831h-3.36112c-.96987,0-1.61595-.25843-1.93975-1.16294l-11.11556-28.82565c-.06537-.19458-.12922-.38765-.12922-.58223,0-.51686.32228-.77529,1.16294-.77529h5.68699c1.09909,0,1.61595.45301,1.87438,1.29215l4.9117,15.06042c.6476,1.93823,1.22831,4.07104,1.61595,5.49241h.06537c.32228-1.22679.96987-3.48881,1.55058-5.29935l5.04092-15.18812c.3238-1.09909.84066-1.35752,2.0036-1.35752h4.65479c.83914,0,1.29215.3238,1.29215.90451,0,.19458-.06537.38765-.12922.6476Z"/><path class="uuid-e71091af-7b3a-4135-a6ca-61684df7cb21" d="M749.13595,272.52191h-18.93688c.51686,4.97707,4.13641,8.40203,9.24269,8.40203,2.71352,0,5.55778-.64608,7.94902-1.55058.25843-.06385.45301-.19306.71144-.19306.45149,0,.77529.25843.90451.77529l.90451,3.29575c.06537.3238.12922.58223.12922.77529,0,.45301-.25843.77529-1.03372,1.09909-3.16653,1.42137-7.49753,2.06744-10.85864,2.06744-10.1472,0-16.15647-6.46228-16.15647-16.54564,0-9.69419,6.39844-16.41642,16.02726-16.41642,3.94335,0,7.17525,1.48674,9.43728,3.87798,2.97195,3.10269,3.81261,7.17525,3.81261,11.57009v.96835c0,1.5521-.51686,1.87438-2.13281,1.87438ZM743.57817,266.7057c-.12922-3.36112-2.06896-6.4638-6.01079-6.4638-4.20178,0-6.72224,3.36112-7.2391,7.17525h13.24989v-.71144Z"/><path class="uuid-e71091af-7b3a-4135-a6ca-61684df7cb21" d="M774.79811,255.91242l-.70992,4.5879c-.06537.58223-.38917.84066-.90603.84066h-.25843c-.51686-.12922-1.16294-.19306-1.74517-.19306-2.19666,0-4.5879,1.16294-6.20385,3.10117v20.55283c0,1.03524-.45301,1.61595-1.55058,1.61595h-4.71864c-1.03372,0-1.5521-.51686-1.5521-1.61595v-28.11421c0-1.29215.6476-1.61595,1.61595-1.61595h4.13641c1.03524,0,1.61595.3238,1.61595,1.22831l.06537,2.06744c2.0036-2.52046,4.20026-4.13641,7.81981-4.13641.51686,0,1.22831.13074,1.81053.25995.45149.12922.64608.32228.64608.83914,0,.19458,0,.38765-.06537.58223Z"/></svg>