<?xml version="1.0" encoding="UTF-8"?><svg id="uuid-9efafdc5-e67c-4d5f-ace5-2e67f859d451" xmlns="http://www.w3.org/2000/svg" xmlns:xlink="http://www.w3.org/1999/xlink" viewBox="0 0 400 400"><defs><style>.uuid-81d877a1-2c82-4536-937c-fc1f8098142d{fill:url(#uuid-0e516fec-8507-452e-8df6-2fdc9bdf3d25);}.uuid-81d877a1-2c82-4536-937c-fc1f8098142d,.uuid-2cbb4880-6e92-492e-90ad-fd84fc85bc2e,.uuid-ccae7521-e9c4-4456-9102-e1eb710a465e{stroke-width:0px;}.uuid-2cbb4880-6e92-492e-90ad-fd84fc85bc2e{fill:url(#uuid-455dfdef-d3b7-43f9-97d6-c5188cc6cc6b);}.uuid-ccae7521-e9c4-4456-9102-e1eb710a465e{fill:#fff;}</style><linearGradient id="uuid-0e516fec-8507-452e-8df6-2fdc9bdf3d25" x1="120.68642" y1="388.69824" x2="120.68642" y2="181.4887" gradientUnits="userSpaceOnUse"><stop offset="0" stop-color="#00459d"/><stop offset=".16367" stop-color="#00599e"/><stop offset=".53095" stop-color="#0081a2"/><stop offset=".82249" stop-color="#0099a5"/><stop offset="1" stop-color="#00a3a6"/></linearGradient><linearGradient id="uuid-455dfdef-d3b7-43f9-97d6-c5188cc6cc6b" x1="279.31361" x2="279.31361" xlink:href="#uuid-0e516fec-8507-452e-8df6-2fdc9bdf3d25"/></defs><g id="uuid-72d4046f-be99-4716-b8d1-82f6719d9525"><path class="uuid-ccae7521-e9c4-4456-9102-e1eb710a465e" d="M109.26986,326.96227c7.46037,4.65195,36.83862,24.0154,41.32765,31.7059,2.37669,4.07173,6.89003,19.06561,9.12106,29.34086,1.08392,4.99212-2.74423,8.96094-7.4537,7.78172l-23.51469-9.38868c-23.8663-11.0932-27.42056-10.14242-29.38421-25.29543-4.86542-37.5451-1.27483-41.11493,9.9039-34.14437Z"/><path class="uuid-ccae7521-e9c4-4456-9102-e1eb710a465e" d="M70.42182,267.39306c-1.0275-7.10863-5.84907-35.3593-10.09843-40.84277-2.24983-2.9032-11.91298-10.20694-18.81537-14.52339-3.35346-2.0971-7.54452-.01665-8.20051,4.03745l-.67657,21.10557c.47445,21.80684-1.38711,24.41259,9.22325,29.71812,26.28963,13.14569,30.10725,11.15669,28.56763.50501Z"/><path class="uuid-ccae7521-e9c4-4456-9102-e1eb710a465e" d="M290.73014,326.96227c-7.46037,4.65195-36.83862,24.0154-41.32765,31.7059-2.37669,4.07173-6.89003,19.06561-9.12106,29.34086-1.08392,4.99212,2.74423,8.96094,7.4537,7.78172l23.51469-9.38868c23.8663-11.0932,27.42056-10.14242,29.38421-25.29543,4.86542-37.5451,1.27483-41.11493-9.9039-34.14437Z"/><path class="uuid-ccae7521-e9c4-4456-9102-e1eb710a465e" d="M184.57326,215.98169s-53.04949-31.31558-106.09899-49.26731v13.16454s74.96006,24.13503,106.09899,38.29693v-2.19417Z"/><path class="uuid-81d877a1-2c82-4536-937c-fc1f8098142d" d="M47.29115,203.08799c8.81379,6.14036,18.25115,13.44221,20.65773,16.54764,6.17339,7.96631,13.63298,46.16404,12.9708,57.67518-.80409,13.9774-8.49079,14.47557-33.94539,3.39518l-.19111,46.80116c3.38208,1.55852,15.96986,7.24707,28.03805,12.32138l-.00068.00057.0631.02574c3.68321,1.54827,7.3072,3.03368,10.61377,4.3307l.19852.08098c-2.29428-32.13641,1.40329-40.11673,16.48443-34.55096,12.93254,4.77272,52.31055,32.0699,58.83211,43.24255,2.11159,3.61773,5.64071,14.39345,8.80548,25.63262l24.77169,10.10751v-155.35821c-48.14044-19.71355-97.65159-35.98819-147.21035-51.85133l-.08815,21.59929Z"/><path class="uuid-ccae7521-e9c4-4456-9102-e1eb710a465e" d="M321.52575,166.71439c-53.04949,17.95173-106.09899,49.26731-106.09899,49.26731v2.19417c31.13893-14.16191,106.09899-38.29693,106.09899-38.29693v-13.16454Z"/><path class="uuid-2cbb4880-6e92-492e-90ad-fd84fc85bc2e" d="M319.08034,277.31081c-.66218-11.51114,6.79741-49.70887,12.9708-57.67518,2.40658-3.10543,11.84394-10.40728,20.65773-16.54764l-.08815-21.59929c-49.55876,15.86314-99.06991,32.13778-147.21035,51.85133v155.35821l24.77169-10.10751c3.16477-11.23916,6.69389-22.01489,8.80548-25.63262,6.52156-11.17265,45.89958-38.46982,58.83211-43.24255,15.08114-5.56577,18.77871,2.41455,16.48443,34.55096l.19852-.08098c3.30657-1.29702,6.93056-2.78243,10.61377-4.3307l.0631-.02574-.00068-.00057c12.0682-5.07431,24.65598-10.76286,28.03805-12.32138l-.19111-46.80116c-25.4546,11.08039-33.1413,10.58222-33.94539-3.39518Z"/><path class="uuid-ccae7521-e9c4-4456-9102-e1eb710a465e" d="M329.57818,267.39306c1.0275-7.10863,5.84907-35.3593,10.09843-40.84277,2.24983-2.9032,11.91298-10.20694,18.81537-14.52339,3.35346-2.0971,7.54452-.01665,8.20051,4.03745l.67657,21.10557c-.47445,21.80684,1.38711,24.41259-9.22325,29.71812-26.28963,13.14569-30.10725,11.15669-28.56763.50501Z"/><path class="uuid-ccae7521-e9c4-4456-9102-e1eb710a465e" d="M202.00586,6.26923c-.35737-3.0285-4.80461-3.02439-5.15607.00483l-5.54531,47.77303,17.46632,9.54297-6.76494-57.32083Z"/><polygon class="uuid-ccae7521-e9c4-4456-9102-e1eb710a465e" points="210.12007 75.02121 190.13856 64.09138 186.77364 93.08016 213.98059 107.73354 210.12007 75.02121"/><path class="uuid-ccae7521-e9c4-4456-9102-e1eb710a465e" d="M298.40649,89.30988c-3.96006,1.52956-30.56865,10.80396-37.51013,21.04448-18.267,26.94805-14.07257,26.76346-36.61098,13.91393.00215.01486.00215.02793.00412.04279l-8.8977-4.62198-.00286-.02435-29.80844-16.30523-1.93563,16.67531-8.23202,4.27625c.00197-.01486.00197-.02793.00412-.04279-21.93361,12.08877-18.34398,13.03412-36.6108-13.91393-6.94148-10.24052-33.12878-21.16086-37.08884-22.69042-6.75599-2.60955-4.53121,39.2583-4.32817,46.60406.28486,10.31393,5.5274,10.96027,31.04025,23.38206-1.0252,5.42624-1.75211,10.77926-2.3254,16.09593,25.07939,9.65505,58.90733,28.70034,70.92037,35.62642l2.86647,1.66062,2.78716-1.66062c12.01322-6.92608,45.84098-25.97138,70.92037-35.62642-.57329-5.31667-1.30039-10.66968-2.32558-16.09593,25.51321-12.42179,30.75575-13.06814,31.04043-23.38206.20303-7.34576,2.84928-47.56767-3.90671-44.95812ZM114.4041,113.7073c.51045,8.66566-.72459,15.66784,2.90138,19.23078,6.08548,5.97984,14.61005,9.35211,14.61005,9.35211-.29005,2.89924-2.3195,5.65363-2.3195,5.65363-10.48509-4.73854-16.97359-8.74193-19.95304-10.74058-1.32366-.88805-2.21941-2.24161-2.55816-3.7991-2.71661-12.49484-.68305-32.57357-.68305-32.57357,10.81793,4.51205,19.07931,9.01837,22.14327,12.93797,4.02273,5.14622,5.59848,7.75147,5.59848,7.75147-2.10285,2.86719-19.73944-7.8127-19.73944-7.8127ZM292.78527,133.40413c-.33875,1.55749-1.2345,2.91105-2.55816,3.7991-2.97945,1.99865-9.46795,6.00204-19.95304,10.74058,0,0-2.02945-2.75439-2.31932-5.65363,0,0,8.5244-3.37227,14.60987-9.35211,3.62597-3.56295,2.39093-10.56512,2.90138-19.23078,0,0-17.63659,10.67989-19.73944,7.8127,0,0,1.57575-2.60525,5.59848-7.75147,3.06396-3.9196,11.32534-8.42592,22.14327-12.93797,0,0,2.03374,20.07873-.68305,32.57357Z"/></g></svg>