<?xml version="1.0" encoding="UTF-8"?><svg id="uuid-67e240ed-49ee-4584-a21b-a00e455e4a87" xmlns="http://www.w3.org/2000/svg" xmlns:xlink="http://www.w3.org/1999/xlink" viewBox="0 0 1200 400"><defs><style>.uuid-450522b6-aaa7-4a8d-a885-7381768bbfb1{fill:#808285;}.uuid-450522b6-aaa7-4a8d-a885-7381768bbfb1,.uuid-1e0e7875-900f-4a91-ac8b-b48b6ea85161,.uuid-a31474e2-d459-45ae-8cb8-74d92f102bf4,.uuid-0002a72c-b3e9-45a9-9a08-6bdaabf36cfc{stroke-width:0px;}.uuid-1e0e7875-900f-4a91-ac8b-b48b6ea85161{fill:url(#uuid-a1c74abb-97c8-43f6-8614-bc67e55ea978);}.uuid-a31474e2-d459-45ae-8cb8-74d92f102bf4{fill:url(#uuid-18e80cc2-d0a1-4439-aae4-28c32f3b992c);}.uuid-0002a72c-b3e9-45a9-9a08-6bdaabf36cfc{fill:#010f2e;}</style><linearGradient id="uuid-18e80cc2-d0a1-4439-aae4-28c32f3b992c" x1="92.05548" y1="388.69824" x2="92.05548" y2="181.4887" gradientUnits="userSpaceOnUse"><stop offset="0" stop-color="#00459d"/><stop offset=".16367" stop-color="#00599e"/><stop offset=".53095" stop-color="#0081a2"/><stop offset=".82249" stop-color="#0099a5"/><stop offset="1" stop-color="#00a3a6"/></linearGradient><linearGradient id="uuid-a1c74abb-97c8-43f6-8614-bc67e55ea978" x1="250.68267" x2="250.68267" xlink:href="#uuid-18e80cc2-d0a1-4439-aae4-28c32f3b992c"/></defs><g id="uuid-83259569-c06f-4533-bf74-0d478cd49cc1"><g id="uuid-8dd5179a-8582-49a9-b33e-92871f3f6652"><path class="uuid-0002a72c-b3e9-45a9-9a08-6bdaabf36cfc" d="M80.63892,326.96227c7.46037,4.65195,36.83862,24.0154,41.32765,31.7059,2.37669,4.07173,6.89003,19.06561,9.12106,29.34086,1.08392,4.99212-2.74423,8.96094-7.4537,7.78172l-23.51469-9.38868c-23.8663-11.0932-27.42056-10.14242-29.38421-25.29543-4.86542-37.5451-1.27483-41.11493,9.9039-34.14437Z"/><path class="uuid-0002a72c-b3e9-45a9-9a08-6bdaabf36cfc" d="M41.79088,267.39306c-1.0275-7.10863-5.84907-35.3593-10.09843-40.84277-2.24983-2.9032-11.91298-10.20694-18.81537-14.52339-3.35346-2.0971-7.54452-.01665-8.20051,4.03745l-.67657,21.10557c.47445,21.80684-1.38711,24.41259,9.22325,29.71812,26.28963,13.14569,30.10725,11.15669,28.56763.50501Z"/><path class="uuid-0002a72c-b3e9-45a9-9a08-6bdaabf36cfc" d="M262.0992,326.96227c-7.46037,4.65195-36.83862,24.0154-41.32765,31.7059-2.37669,4.07173-6.89003,19.06561-9.12106,29.34086-1.08392,4.99212,2.74423,8.96094,7.4537,7.78172l23.51469-9.38868c23.8663-11.0932,27.42056-10.14242,29.38421-25.29543,4.86542-37.5451,1.27483-41.11493-9.9039-34.14437Z"/><path class="uuid-0002a72c-b3e9-45a9-9a08-6bdaabf36cfc" d="M155.94232,215.98169s-53.04949-31.31558-106.09899-49.26731v13.16454s74.96006,24.13503,106.09899,38.29693v-2.19417Z"/><path class="uuid-a31474e2-d459-45ae-8cb8-74d92f102bf4" d="M18.66021,203.08799c8.81379,6.14036,18.25115,13.44221,20.65773,16.54764,6.17339,7.96631,13.63298,46.16404,12.9708,57.67518-.80409,13.9774-8.49079,14.47557-33.94539,3.39518l-.19111,46.80116c3.38208,1.55852,15.96986,7.24707,28.03805,12.32138l-.00068.00057.0631.02574c3.68321,1.54827,7.3072,3.03368,10.61377,4.3307l.19852.08098c-2.29428-32.13641,1.40329-40.11673,16.48443-34.55096,12.93254,4.77272,52.31055,32.0699,58.83211,43.24255,2.11159,3.61773,5.64071,14.39345,8.80548,25.63262l24.77169,10.10751v-155.35821c-48.14044-19.71355-97.65159-35.98819-147.21035-51.85133l-.08815,21.59929Z"/><path class="uuid-0002a72c-b3e9-45a9-9a08-6bdaabf36cfc" d="M292.89482,166.71439c-53.04949,17.95173-106.09899,49.26731-106.09899,49.26731v2.19417c31.13893-14.16191,106.09899-38.29693,106.09899-38.29693v-13.16454Z"/><path class="uuid-1e0e7875-900f-4a91-ac8b-b48b6ea85161" d="M290.4494,277.31081c-.66218-11.51114,6.79741-49.70887,12.9708-57.67518,2.40658-3.10543,11.84394-10.40728,20.65773-16.54764l-.08815-21.59929c-49.55876,15.86314-99.06991,32.13778-147.21035,51.85133v155.35821l24.77169-10.10751c3.16477-11.23916,6.69389-22.01489,8.80548-25.63262,6.52156-11.17265,45.89958-38.46982,58.83211-43.24255,15.08114-5.56577,18.77871,2.41455,16.48443,34.55096l.19852-.08098c3.30657-1.29702,6.93056-2.78243,10.61377-4.3307l.0631-.02574-.00068-.00057c12.0682-5.07431,24.65598-10.76286,28.03805-12.32138l-.19111-46.80116c-25.4546,11.08039-33.1413,10.58222-33.94539-3.39518Z"/><path class="uuid-0002a72c-b3e9-45a9-9a08-6bdaabf36cfc" d="M300.94724,267.39306c1.0275-7.10863,5.84907-35.3593,10.09843-40.84277,2.24983-2.9032,11.91298-10.20694,18.81537-14.52339,3.35346-2.0971,7.54452-.01665,8.20051,4.03745l.67657,21.10557c-.47445,21.80684,1.38711,24.41259-9.22325,29.71812-26.28963,13.14569-30.10725,11.15669-28.56763.50501Z"/><path class="uuid-0002a72c-b3e9-45a9-9a08-6bdaabf36cfc" d="M173.37492,6.26923c-.35737-3.0285-4.80461-3.02439-5.15607.00483l-5.54531,47.77303,17.46632,9.54297-6.76494-57.32083Z"/><polygon class="uuid-0002a72c-b3e9-45a9-9a08-6bdaabf36cfc" points="181.48913 75.02121 161.50763 64.09138 158.1427 93.08016 185.34965 107.73354 181.48913 75.02121"/><path class="uuid-0002a72c-b3e9-45a9-9a08-6bdaabf36cfc" d="M269.77555,89.30988c-3.96006,1.52956-30.56865,10.80396-37.51013,21.04448-18.267,26.94805-14.07257,26.76346-36.61098,13.91393.00215.01486.00215.02793.00412.04279l-8.8977-4.62198-.00286-.02435-29.80844-16.30523-1.93563,16.67531-8.23202,4.27625c.00197-.01486.00197-.02793.00412-.04279-21.93361,12.08877-18.34398,13.03412-36.6108-13.91393-6.94148-10.24052-33.12878-21.16086-37.08884-22.69042-6.75599-2.60955-4.53121,39.2583-4.32817,46.60406.28486,10.31393,5.5274,10.96027,31.04025,23.38206-1.0252,5.42624-1.75211,10.77926-2.3254,16.09593,25.07939,9.65505,58.90733,28.70034,70.92037,35.62642l2.86647,1.66062,2.78716-1.66062c12.01322-6.92608,45.84098-25.97138,70.92037-35.62642-.57329-5.31667-1.30039-10.66968-2.32558-16.09593,25.51321-12.42179,30.75575-13.06814,31.04043-23.38206.20303-7.34576,2.84928-47.56767-3.90671-44.95812ZM85.77316,113.7073c.51045,8.66566-.72459,15.66784,2.90138,19.23078,6.08548,5.97984,14.61005,9.35211,14.61005,9.35211-.29005,2.89924-2.3195,5.65363-2.3195,5.65363-10.48509-4.73854-16.97359-8.74193-19.95304-10.74058-1.32366-.88805-2.21941-2.24161-2.55816-3.7991-2.71661-12.49484-.68305-32.57357-.68305-32.57357,10.81793,4.51205,19.07931,9.01837,22.14327,12.93797,4.02273,5.14622,5.59848,7.75147,5.59848,7.75147-2.10285,2.86719-19.73944-7.8127-19.73944-7.8127ZM264.15433,133.40413c-.33875,1.55749-1.2345,2.91105-2.55816,3.7991-2.97945,1.99865-9.46795,6.00204-19.95304,10.74058,0,0-2.02945-2.75439-2.31932-5.65363,0,0,8.5244-3.37227,14.60987-9.35211,3.62597-3.56295,2.39093-10.56512,2.90138-19.23078,0,0-17.63659,10.67989-19.73944,7.8127,0,0,1.57575-2.60525,5.59848-7.75147,3.06396-3.9196,11.32534-8.42592,22.14327-12.93797,0,0,2.03374,20.07873-.68305,32.57357Z"/></g><g id="uuid-34d6ccbb-59a2-439b-b042-f7386d59b425"><path class="uuid-450522b6-aaa7-4a8d-a885-7381768bbfb1" d="M520.41845,369.56889h-9.57839c-2.18144,0-3.15097-.84691-3.15097-3.03121v-33.82235h-34.42973v33.82235c0,2.18429-.97238,3.03121-3.03121,3.03121h-9.45862c-2.18144,0-3.27074-.84691-3.27074-3.03121v-77.95309c0-2.06168,1.33168-2.91144,3.27074-2.91144h9.45862c1.93906,0,3.03121.73,3.03121,2.91144v31.64091h34.42973v-31.64091c0-2.06168,1.21191-2.91144,3.15097-2.91144h9.57839c1.93906,0,2.91144.73,2.91144,2.91144v77.95309c0,2.18429-.84976,3.03121-2.91144,3.03121Z"/><path class="uuid-450522b6-aaa7-4a8d-a885-7381768bbfb1" d="M548.43218,303.01064c-4.00074,0-8.24671-2.66621-8.24671-7.51671,0-4.84765,4.00359-7.75909,8.24671-7.75909,4.1205,0,8.12124,2.78883,8.12124,7.63933,0,4.72789-4.1205,7.63648-8.12124,7.63648ZM552.79506,369.56889h-8.48624c-2.18144,0-3.15097-.84691-3.15097-3.03121v-52.97913c0-2.06168,1.21191-2.78883,3.15097-2.78883h8.48624c1.93906,0,3.03121.60738,3.03121,2.78883v52.97913c0,2.18429-.96953,3.03121-3.03121,3.03121Z"/><path class="uuid-450522b6-aaa7-4a8d-a885-7381768bbfb1" d="M587.5955,371.02319c-6.3048,0-13.21698-1.81644-18.67201-4.24312-1.09215-.48477-1.4543-1.21191-1.4543-1.93906,0-.36215.11977-.72715.24238-1.0893l1.93906-6.18503c.365-1.21191.96953-1.69668,1.69668-1.69668.365,0,.73,0,1.33453.24238,5.33527,2.18144,11.03268,3.75836,15.27581,3.75836,5.33669,0,8.97243-2.42383,8.97243-6.42456,0-3.39621-2.30406-5.21265-7.27575-7.15456l-9.57554-3.63574c-6.91218-2.54644-12.48983-7.88171-12.48983-16.12557,0-11.8796,11.1553-17.33748,21.9456-17.33748,5.82146,0,11.51888.97238,17.58129,3.63859.96953.48477,1.4543.96953,1.4543,1.69668,0,.365-.12262.72715-.24238,1.21191l-2.06168,6.54718c-.24238.84976-.84976,1.33453-1.69668,1.33453-.365,0-.84976-.12262-1.21191-.24238-4.00074-1.57691-9.21624-2.91144-13.09579-2.91144-5.09289,0-7.63933,2.78883-7.63933,5.57765,0,2.66621,1.33453,4.36574,5.94265,6.18218l10.91149,4.48836c6.42456,2.66621,11.51745,7.63648,11.51745,15.51819,0,12.72936-11.03268,18.78893-23.39847,18.78893Z"/><path class="uuid-450522b6-aaa7-4a8d-a885-7381768bbfb1" d="M656.45924,368.23721c-3.75836,1.57406-8.72862,2.78597-13.57628,2.78597-6.18503,0-11.51745-1.57406-14.54866-5.09003-3.75836-4.24312-3.88097-9.21339-3.88097-18.06463v-27.03564h-5.69742c-2.30406,0-2.66621-.48477-2.66621-3.03121v-4.60812c0-1.4543.72715-2.42383,2.18144-2.42383h6.18218v-13.21413c0-2.06168,1.09215-2.66621,3.03121-2.90859l8.72862-1.09215h.60738c1.57691,0,2.30406.84976,2.30406,2.66621v14.54866h13.69889c1.4543,0,2.30406.48477,2.30406,2.06168v5.69742c0,1.4543-.96953,2.30406-2.42668,2.30406h-13.57628v27.76279c0,3.63859.24238,6.3048,1.57406,8.24386,1.09215,1.57691,2.78883,2.54644,5.70027,2.54644,3.03121,0,5.5748-.72715,7.75909-1.4543.48477-.12262.84691-.24238,1.21191-.24238.84691,0,1.33168.48477,1.57691,1.4543l1.21191,6.06242c.11977.36215.11977.48477.11977.72715,0,1.21191-.60453,1.8193-1.8193,2.30406Z"/><path class="uuid-450522b6-aaa7-4a8d-a885-7381768bbfb1" d="M693.07612,371.02319c-19.76131,0-28.85208-13.33389-28.85208-31.03638,0-17.45725,10.66769-30.79399,29.57923-30.79399,19.76131,0,28.85493,13.09436,28.85493,30.91661,0,17.45725-10.66769,30.91376-29.58208,30.91376ZM693.6835,320.71027c-10.7903,0-14.30628,9.33601-14.30628,19.03416,0,9.94339,3.03121,19.76131,13.82151,19.76131,10.66769,0,14.30628-9.45577,14.30628-19.39631s-3.15383-19.39916-13.82151-19.39916Z"/><path class="uuid-450522b6-aaa7-4a8d-a885-7381768bbfb1" d="M767.52179,312.34664l-1.33168,8.60601c-.12262,1.09215-.73,1.57691-1.69953,1.57691h-.48477c-.96953-.24238-2.18144-.36215-3.27359-.36215-4.1205,0-8.60601,2.18144-11.63722,5.81718v38.55309c0,1.94191-.84976,3.03121-2.91144,3.03121h-8.84839c-1.93906,0-2.91144-.96953-2.91144-3.03121v-52.73675c0-2.42383,1.21476-3.03121,3.03121-3.03121h7.75909c1.94191,0,3.03121.60738,3.03121,2.30406l.12262,3.87812c3.75836-4.72789,7.87886-7.75909,14.66842-7.75909.96953,0,2.30406.24523,3.39621.48762.84691.24238,1.21191.60453,1.21191,1.57406,0,.365,0,.72715-.12262,1.09215Z"/><path class="uuid-450522b6-aaa7-4a8d-a885-7381768bbfb1" d="M829.11263,313.68117l-23.88181,62.7999c-5.45503,14.42604-12.2446,19.51893-26.79326,19.51893-2.30406,0-4.36574-.12262-6.42742-.60738-1.33168-.24238-1.81644-.96953-1.81644-2.06168,0-.36215.11977-.60453.11977-1.0893l.84976-6.3048c.24238-1.57691.84691-2.18144,2.18144-2.18144h.72715c1.4543.11977,2.91144.36215,4.12336.36215,7.51671,0,10.66769-2.66621,13.09151-8.36362l2.30406-5.45789-22.06537-56.85725c-.11977-.365-.24238-.60738-.24238-.97238,0-.96953.72715-1.69668,1.8193-1.69668h11.64007c1.69668,0,2.54359.84976,3.02836,2.06168l13.45936,40.13,12.72936-39.40285c.60453-1.93906,1.57691-2.78883,3.63574-2.78883h9.82077c1.21191,0,1.93906.72715,1.93906,1.69668,0,.365-.11977.72715-.24238,1.21476Z"/><path class="uuid-450522b6-aaa7-4a8d-a885-7381768bbfb1" d="M891.43632,371.02319c-7.27433,0-15.88319-1.33168-23.15752-3.87812-1.57691-.60738-2.06168-1.33453-2.06168-2.30406,0-.48477,0-.96953.24238-1.57691l2.54644-7.87886c.365-1.21191.96953-1.93906,2.18144-1.93906.48477,0,1.09215.11977,1.8193.36215,5.69742,2.06168,12.00222,3.63859,18.06463,3.63859,6.54718,0,13.94128-3.15383,13.94128-10.7903,0-5.57765-4.1205-8.60886-8.84839-10.91292l-15.76057-7.87886c-8.60886-4.24312-14.30628-11.39768-14.30628-20.85346,0-14.79104,14.54866-22.91228,28.00517-22.91228,8.00148,0,14.66842,1.21191,21.70037,4.24312,1.57691.72715,2.42383,1.4543,2.42383,2.42383,0,.48477-.11977.96953-.36215,1.57691l-2.90859,7.39409c-.48762,1.33453-1.21476,1.8193-2.06168,1.8193-.60738,0-1.21191-.24238-1.93906-.48477-4.97312-2.06168-11.1553-3.75836-16.00581-3.75836-5.69742,0-12.2446,2.42383-12.2446,9.21339,0,4.97027,4.60812,7.88171,8.60886,9.82077l13.45651,6.54718c9.57839,4.60527,16.12557,11.03268,16.12557,22.18514,0,16.85272-13.69889,25.94349-29.45946,25.94349Z"/><path class="uuid-450522b6-aaa7-4a8d-a885-7381768bbfb1" d="M980.7928,343.50278h-35.52188c.96953,9.33601,7.75909,15.76057,17.33748,15.76057,5.09003,0,10.4253-1.21191,14.91081-2.90859.48477-.11977.84976-.36215,1.33453-.36215.84691,0,1.4543.48477,1.69668,1.4543l1.69668,6.18218c.12262.60738.24238,1.09215.24238,1.4543,0,.84976-.48477,1.4543-1.93906,2.06168-5.9398,2.66621-14.06389,3.87812-20.36869,3.87812-19.03416,0-30.30638-12.12198-30.30638-31.03638,0-18.1844,12.00222-30.79399,30.06399-30.79399,7.39695,0,13.45936,2.78883,17.70248,7.27433,5.5748,5.82003,7.15171,13.45936,7.15171,21.70322v1.81644c0,2.91144-.96953,3.51597-4.00074,3.51597ZM970.3675,332.59272c-.24238-6.3048-3.88097-12.12483-11.27507-12.12483-7.88171,0-12.6096,6.3048-13.57913,13.45936h24.8542v-1.33453Z"/><path class="uuid-450522b6-aaa7-4a8d-a885-7381768bbfb1" d="M1028.92998,312.34664l-1.33168,8.60601c-.12262,1.09215-.73,1.57691-1.69953,1.57691h-.48477c-.96953-.24238-2.18144-.36215-3.27359-.36215-4.1205,0-8.60601,2.18144-11.63722,5.81718v38.55309c0,1.94191-.84976,3.03121-2.91144,3.03121h-8.84839c-1.93906,0-2.91144-.96953-2.91144-3.03121v-52.73675c0-2.42383,1.21476-3.03121,3.03121-3.03121h7.75909c1.94191,0,3.03121.60738,3.03121,2.30406l.12262,3.87812c3.75836-4.72789,7.87886-7.75909,14.66842-7.75909.96953,0,2.30406.24523,3.39621.48762.84691.24238,1.21191.60453,1.21191,1.57406,0,.365,0,.72715-.12262,1.09215Z"/><path class="uuid-450522b6-aaa7-4a8d-a885-7381768bbfb1" d="M1087.12461,313.68117l-21.2156,53.58366c-.72715,1.8193-1.69953,2.30406-3.51597,2.30406h-6.3048c-1.8193,0-3.03121-.48477-3.63859-2.18144l-20.85061-54.07128c-.12262-.365-.24238-.72715-.24238-1.09215,0-.96953.60453-1.4543,2.18144-1.4543h10.66769c2.06168,0,3.03121.84976,3.51597,2.42383l9.21339,28.2504c1.21476,3.63574,2.30406,7.63648,3.03121,10.30269h.12262c.60453-2.30121,1.8193-6.54433,2.90859-9.94054l9.45577-28.48993c.60738-2.06168,1.57691-2.54644,3.75836-2.54644h8.73148c1.57406,0,2.42383.60738,2.42383,1.69668,0,.365-.12262.72715-.24238,1.21476Z"/><path class="uuid-450522b6-aaa7-4a8d-a885-7381768bbfb1" d="M1140.71682,343.50278h-35.52188c.96953,9.33601,7.75909,15.76057,17.33748,15.76057,5.09003,0,10.4253-1.21191,14.91081-2.90859.48477-.11977.84976-.36215,1.33453-.36215.84691,0,1.4543.48477,1.69668,1.4543l1.69668,6.18218c.12262.60738.24238,1.09215.24238,1.4543,0,.84976-.48477,1.4543-1.93906,2.06168-5.9398,2.66621-14.06389,3.87812-20.36869,3.87812-19.03416,0-30.30638-12.12198-30.30638-31.03638,0-18.1844,12.00222-30.79399,30.06399-30.79399,7.39695,0,13.45936,2.78883,17.70248,7.27433,5.5748,5.82003,7.15171,13.45936,7.15171,21.70322v1.81644c0,2.91144-.96953,3.51597-4.00074,3.51597ZM1130.29152,332.59272c-.24238-6.3048-3.88097-12.12483-11.27507-12.12483-7.88171,0-12.6096,6.3048-13.57913,13.45936h24.8542v-1.33453Z"/><path class="uuid-450522b6-aaa7-4a8d-a885-7381768bbfb1" d="M1188.85401,312.34664l-1.33168,8.60601c-.12262,1.09215-.73,1.57691-1.69953,1.57691h-.48477c-.96953-.24238-2.18144-.36215-3.27359-.36215-4.1205,0-8.60601,2.18144-11.63722,5.81718v38.55309c0,1.94191-.84976,3.03121-2.90859,3.03121h-8.85124c-1.93906,0-2.91144-.96953-2.91144-3.03121v-52.73675c0-2.42383,1.21476-3.03121,3.03121-3.03121h7.75909c1.94191,0,3.03121.60738,3.03121,2.30406l.12262,3.87812c3.75836-4.72789,7.87886-7.75909,14.66842-7.75909.96953,0,2.30406.24523,3.39621.48762.84691.24238,1.21191.60453,1.21191,1.57406,0,.365,0,.72715-.12262,1.09215Z"/><path class="uuid-0002a72c-b3e9-45a9-9a08-6bdaabf36cfc" d="M491.51985,265.64165c-48.44775,0-66.12752-26.63222-66.12752-73.70139v-82.42871c0-3.90228,2.29718-5.51155,5.97015-5.51155h18.13837c3.90228,0,5.51155,1.60927,5.51155,5.51155v79.90223c0,33.75305,8.72454,51.20213,37.65255,51.20213,27.7829,0,36.51022-18.36906,36.51022-51.20213v-79.90223c0-3.90228,2.06787-5.51155,5.73668-5.51155h18.13837c3.90784,0,5.51433,1.60927,5.51433,5.51155v82.88731c0,47.29707-22.27412,73.24279-67.04472,73.24279Z"/><path class="uuid-0002a72c-b3e9-45a9-9a08-6bdaabf36cfc" d="M683.45419,262.88726h-16.53188c-4.13019,0-5.50877-2.0651-5.50877-5.97015v-62.45315c0-12.62682-3.44646-21.58205-17.44908-21.58205-8.95523,0-19.97834,4.82226-27.0936,11.02033v73.24556c0,3.90228-1.60649,5.73946-5.50877,5.73946h-16.76535c-3.4409,0-5.50877-1.83718-5.50877-5.51155v-100.1057c0-3.67437,1.60649-5.74224,5.74224-5.74224h14.91983c3.21855,0,5.28086.91998,5.51433,4.36366l.22791,5.97015c10.56173-8.49663,23.88062-13.31611,37.19395-13.31611,25.71502,0,36.27675,16.0705,36.27675,41.09901v67.27263c0,3.90506-1.37302,5.97015-5.50877,5.97015Z"/><path class="uuid-0002a72c-b3e9-45a9-9a08-6bdaabf36cfc" d="M733.49454,136.83307c-7.57665,0-15.61468-5.05017-15.61468-14.23331,0-9.18592,7.58221-14.6947,15.61468-14.6947,7.81012,0,15.38677,5.28086,15.38677,14.464,0,8.95523-7.81012,14.464-15.38677,14.464ZM741.76047,262.88726h-16.0705c-4.13575,0-5.97015-1.60649-5.97015-5.73946v-100.33917c0-3.90228,2.29579-5.28086,5.97015-5.28086h16.0705c3.67437,0,5.74224,1.15067,5.74224,5.28086v100.33917c0,4.13297-1.83996,5.73946-5.74224,5.73946Z"/><path class="uuid-0002a72c-b3e9-45a9-9a08-6bdaabf36cfc" d="M858.39527,258.75429c-11.02311,5.05017-21.12345,6.88736-33.29167,6.88736-35.35954,0-54.8765-22.04065-54.8765-57.4002,0-35.58746,21.35136-59.69598,56.93882-59.69598,10.33381,0,21.12345,2.0651,30.76797,6.42876,1.83996.9172,2.75717,1.3758,2.75717,3.21299,0,.68929-.22791,2.06787-.46138,2.75439l-2.98508,12.171c-.45582,2.0651-1.37302,3.21299-2.75161,3.21299-.68929,0-1.60649-.4586-2.52926-.9172-6.65389-2.75439-14.00262-5.05295-22.04065-5.05295-19.74487,0-30.99588,14.00818-30.99588,36.50744,0,22.04343,10.10034,37.19673,29.85077,37.19673,9.87243,0,16.0705-1.83718,24.10853-5.05017.68373-.23069,1.60649-.68929,2.29579-.68929,1.37302,0,2.29579,1.14789,2.75161,2.75439l2.98508,10.10312c.46138,1.60649.68929,2.98508.68929,3.90228,0,1.83718-1.14511,2.75717-3.21299,3.67437Z"/><path class="uuid-0002a72c-b3e9-45a9-9a08-6bdaabf36cfc" d="M928.41395,265.64165c-37.42742,0-54.64303-25.25642-54.64303-58.77878,0-33.06098,20.20069-58.3174,56.02161-58.3174,37.42742,0,54.64303,24.79504,54.64303,58.54809,0,33.06376-20.20069,58.54809-56.02161,58.54809ZM929.56463,170.35543c-20.43416,0-27.0936,17.67977-27.0936,36.04884,0,18.82767,5.73668,37.42464,26.17084,37.42464,20.20625,0,27.0936-17.90768,27.0936-36.73535s-5.97015-36.73813-26.17084-36.73813Z"/><path class="uuid-0002a72c-b3e9-45a9-9a08-6bdaabf36cfc" d="M1069.37963,154.51284l-2.5237,16.30397c-.23347,2.0651-1.37858,2.98508-3.21299,2.98508h-.92276c-1.8344-.46138-4.13019-.68929-6.19807-.68929-7.80456,0-16.30397,4.13297-22.04065,11.02033v73.01487c0,3.67437-1.60649,5.73946-5.50877,5.73946h-16.76535c-3.67437,0-5.50877-1.83718-5.50877-5.73946v-99.87779c0-4.59157,2.29579-5.74224,5.74224-5.74224h14.69192c3.67437,0,5.74224,1.15067,5.74224,4.36366l.22791,7.34874c7.11527-8.95523,14.92539-14.6947,27.7829-14.6947,1.8344,0,4.36366.4586,6.42598.9172,1.61205.4586,2.29579,1.14789,2.29579,2.98508,0,.68929,0,1.37858-.22791,2.0651Z"/><path class="uuid-0002a72c-b3e9-45a9-9a08-6bdaabf36cfc" d="M1180.27219,262.88726h-16.53188c-4.13575,0-5.51433-2.0651-5.51433-5.97015v-62.45315c0-12.62682-3.4409-21.58205-17.44908-21.58205-8.95523,0-19.97278,4.82226-27.0936,11.02033v73.24556c0,3.90228-1.60649,5.73946-5.50877,5.73946h-16.75979c-3.44646,0-5.51433-1.83718-5.51433-5.51155v-100.1057c0-3.67437,1.61205-5.74224,5.74224-5.74224h14.92539c3.21299,0,5.28086.91998,5.50877,4.36366l.22791,5.97015c10.56728-8.49663,23.88062-13.31611,37.19951-13.31611,25.71502,0,36.27675,16.0705,36.27675,41.09901v67.27263c0,3.90506-1.37858,5.97015-5.50877,5.97015Z"/></g></g></svg>