<?xml version="1.0" encoding="UTF-8"?><svg id="uuid-268655be-1ff8-4dd2-8f2b-a5494fbef625" xmlns="http://www.w3.org/2000/svg" xmlns:xlink="http://www.w3.org/1999/xlink" viewBox="0 0 1250 400"><defs><style>.uuid-ec868cfe-0125-4e11-a9b0-09f18c3a035c{fill:url(#uuid-1afdc8d0-37f1-4a6a-ad0c-4485be570e73);}.uuid-ec868cfe-0125-4e11-a9b0-09f18c3a035c,.uuid-78ee86f7-af8f-4dfa-a6c0-b743473a1bbe,.uuid-d727aeaa-4a42-4606-849a-4f3c50f75f2f,.uuid-8cb32291-2dbb-4612-a210-2c1064c84623{stroke-width:0px;}.uuid-78ee86f7-af8f-4dfa-a6c0-b743473a1bbe{fill:#808285;}.uuid-d727aeaa-4a42-4606-849a-4f3c50f75f2f{fill:#fff;}.uuid-8cb32291-2dbb-4612-a210-2c1064c84623{fill:url(#uuid-ee6600a4-f503-4194-a098-08c7a4f76e7a);}</style><linearGradient id="uuid-ee6600a4-f503-4194-a098-08c7a4f76e7a" x1="92.05548" y1="388.69824" x2="92.05548" y2="181.4887" gradientUnits="userSpaceOnUse"><stop offset="0" stop-color="#00459d"/><stop offset=".16367" stop-color="#00599e"/><stop offset=".53095" stop-color="#0081a2"/><stop offset=".82249" stop-color="#0099a5"/><stop offset="1" stop-color="#00a3a6"/></linearGradient><linearGradient id="uuid-1afdc8d0-37f1-4a6a-ad0c-4485be570e73" x1="250.68267" x2="250.68267" xlink:href="#uuid-ee6600a4-f503-4194-a098-08c7a4f76e7a"/></defs><g id="uuid-a0f729a1-3b1a-4803-894d-af38227ff17e"><g id="uuid-788a8e31-55bc-440f-8309-efb6106c1d0d"><path class="uuid-d727aeaa-4a42-4606-849a-4f3c50f75f2f" d="M80.63892,326.96227c7.46037,4.65195,36.83862,24.0154,41.32765,31.7059,2.37669,4.07173,6.89003,19.06561,9.12106,29.34086,1.08392,4.99212-2.74423,8.96094-7.4537,7.78172l-23.51469-9.38868c-23.8663-11.0932-27.42056-10.14242-29.38421-25.29543-4.86542-37.5451-1.27483-41.11493,9.9039-34.14437Z"/><path class="uuid-d727aeaa-4a42-4606-849a-4f3c50f75f2f" d="M41.79088,267.39306c-1.0275-7.10863-5.84907-35.3593-10.09843-40.84277-2.24983-2.9032-11.91298-10.20694-18.81537-14.52339-3.35346-2.0971-7.54452-.01665-8.20051,4.03745l-.67657,21.10557c.47445,21.80684-1.38711,24.41259,9.22325,29.71812,26.28963,13.14569,30.10725,11.15669,28.56763.50501Z"/><path class="uuid-d727aeaa-4a42-4606-849a-4f3c50f75f2f" d="M262.0992,326.96227c-7.46037,4.65195-36.83862,24.0154-41.32765,31.7059-2.37669,4.07173-6.89003,19.06561-9.12106,29.34086-1.08392,4.99212,2.74423,8.96094,7.4537,7.78172l23.51469-9.38868c23.8663-11.0932,27.42056-10.14242,29.38421-25.29543,4.86542-37.5451,1.27483-41.11493-9.9039-34.14437Z"/><path class="uuid-d727aeaa-4a42-4606-849a-4f3c50f75f2f" d="M155.94232,215.98169s-53.04949-31.31558-106.09899-49.26731v13.16454s74.96006,24.13503,106.09899,38.29693v-2.19417Z"/><path class="uuid-8cb32291-2dbb-4612-a210-2c1064c84623" d="M18.66021,203.08799c8.81379,6.14036,18.25115,13.44221,20.65773,16.54764,6.17339,7.96631,13.63298,46.16404,12.9708,57.67518-.80409,13.9774-8.49079,14.47557-33.94539,3.39518l-.19111,46.80116c3.38208,1.55852,15.96986,7.24707,28.03805,12.32138l-.00068.00057.0631.02574c3.68321,1.54827,7.3072,3.03368,10.61377,4.3307l.19852.08098c-2.29428-32.13641,1.40329-40.11673,16.48443-34.55096,12.93254,4.77272,52.31055,32.0699,58.83211,43.24255,2.11159,3.61773,5.64071,14.39345,8.80548,25.63262l24.77169,10.10751v-155.35821c-48.14044-19.71355-97.65159-35.98819-147.21035-51.85133l-.08815,21.59929Z"/><path class="uuid-d727aeaa-4a42-4606-849a-4f3c50f75f2f" d="M292.89482,166.71439c-53.04949,17.95173-106.09899,49.26731-106.09899,49.26731v2.19417c31.13893-14.16191,106.09899-38.29693,106.09899-38.29693v-13.16454Z"/><path class="uuid-ec868cfe-0125-4e11-a9b0-09f18c3a035c" d="M290.4494,277.31081c-.66218-11.51114,6.79741-49.70887,12.9708-57.67518,2.40658-3.10543,11.84394-10.40728,20.65773-16.54764l-.08815-21.59929c-49.55876,15.86314-99.06991,32.13778-147.21035,51.85133v155.35821l24.77169-10.10751c3.16477-11.23916,6.69389-22.01489,8.80548-25.63262,6.52156-11.17265,45.89958-38.46982,58.83211-43.24255,15.08114-5.56577,18.77871,2.41455,16.48443,34.55096l.19852-.08098c3.30657-1.29702,6.93056-2.78243,10.61377-4.3307l.0631-.02574-.00068-.00057c12.0682-5.07431,24.65598-10.76286,28.03805-12.32138l-.19111-46.80116c-25.4546,11.08039-33.1413,10.58222-33.94539-3.39518Z"/><path class="uuid-d727aeaa-4a42-4606-849a-4f3c50f75f2f" d="M300.94724,267.39306c1.0275-7.10863,5.84907-35.3593,10.09843-40.84277,2.24983-2.9032,11.91298-10.20694,18.81537-14.52339,3.35346-2.0971,7.54452-.01665,8.20051,4.03745l.67657,21.10557c-.47445,21.80684,1.38711,24.41259-9.22325,29.71812-26.28963,13.14569-30.10725,11.15669-28.56763.50501Z"/><path class="uuid-d727aeaa-4a42-4606-849a-4f3c50f75f2f" d="M173.37492,6.26923c-.35737-3.0285-4.80461-3.02439-5.15607.00483l-5.54531,47.77303,17.46632,9.54297-6.76494-57.32083Z"/><polygon class="uuid-d727aeaa-4a42-4606-849a-4f3c50f75f2f" points="181.48913 75.02121 161.50763 64.09138 158.1427 93.08016 185.34965 107.73354 181.48913 75.02121"/><path class="uuid-d727aeaa-4a42-4606-849a-4f3c50f75f2f" d="M269.77555,89.30988c-3.96006,1.52956-30.56865,10.80396-37.51013,21.04448-18.267,26.94805-14.07257,26.76346-36.61098,13.91393.00215.01486.00215.02793.00412.04279l-8.8977-4.62198-.00286-.02435-29.80844-16.30523-1.93563,16.67531-8.23202,4.27625c.00197-.01486.00197-.02793.00412-.04279-21.93361,12.08877-18.34398,13.03412-36.6108-13.91393-6.94148-10.24052-33.12878-21.16086-37.08884-22.69042-6.75599-2.60955-4.53121,39.2583-4.32817,46.60406.28486,10.31393,5.5274,10.96027,31.04025,23.38206-1.0252,5.42624-1.75211,10.77926-2.3254,16.09593,25.07939,9.65505,58.90733,28.70034,70.92037,35.62642l2.86647,1.66062,2.78716-1.66062c12.01322-6.92608,45.84098-25.97138,70.92037-35.62642-.57329-5.31667-1.30039-10.66968-2.32558-16.09593,25.51321-12.42179,30.75575-13.06814,31.04043-23.38206.20303-7.34576,2.84928-47.56767-3.90671-44.95812ZM85.77316,113.7073c.51045,8.66566-.72459,15.66784,2.90138,19.23078,6.08548,5.97984,14.61005,9.35211,14.61005,9.35211-.29005,2.89924-2.3195,5.65363-2.3195,5.65363-10.48509-4.73854-16.97359-8.74193-19.95304-10.74058-1.32366-.88805-2.21941-2.24161-2.55816-3.7991-2.71661-12.49484-.68305-32.57357-.68305-32.57357,10.81793,4.51205,19.07931,9.01837,22.14327,12.93797,4.02273,5.14622,5.59848,7.75147,5.59848,7.75147-2.10285,2.86719-19.73944-7.8127-19.73944-7.8127ZM264.15433,133.40413c-.33875,1.55749-1.2345,2.91105-2.55816,3.7991-2.97945,1.99865-9.46795,6.00204-19.95304,10.74058,0,0-2.02945-2.75439-2.31932-5.65363,0,0,8.5244-3.37227,14.60987-9.35211,3.62597-3.56295,2.39093-10.56512,2.90138-19.23078,0,0-17.63659,10.67989-19.73944,7.8127,0,0,1.57575-2.60525,5.59848-7.75147,3.06396-3.9196,11.32534-8.42592,22.14327-12.93797,0,0,2.03374,20.07873-.68305,32.57357Z"/></g><g id="uuid-23adbeb9-6b5c-4772-a55e-b10e33b96039"><path class="uuid-d727aeaa-4a42-4606-849a-4f3c50f75f2f" d="M519.87161,109.51354l-45.4424,84.04963v58.01502c0,3.30875-1.76321,5.07507-5.07196,5.07507h-18.53085c-3.30875,0-5.07507-1.76632-5.07507-5.51665v-56.47259l-47.86799-85.36815c-.44158-.88316-.66237-1.54553-.66237-2.2079,0-1.76321,1.54553-3.08796,3.97112-3.08796h20.07327c3.97112,0,6.61749,1.32474,8.16303,4.19191l31.76583,62.42771h.44158l31.32425-61.98613c1.76321-3.52954,3.52954-4.63349,7.72145-4.63349h15.88136c2.64638,0,4.19191.88316,4.19191,2.64638,0,.66237-.22079,1.76632-.88316,2.86717Z"/><path class="uuid-d727aeaa-4a42-4606-849a-4f3c50f75f2f" d="M613.61891,256.65326h-14.11815c-2.86717,0-5.07507-1.54553-5.29586-4.4127l-.22079-5.51354c-10.14859,8.15992-22.27962,12.57262-35.07613,12.57262-24.70676,0-34.85379-15.66368-34.85379-39.48728v-65.07409c0-3.75033,2.20479-5.07507,5.73744-5.07507h15.43978c3.52954,0,5.51665,1.10395,5.51665,5.07507v60.44371c0,12.13103,3.08796,20.51485,16.32294,20.51485,8.38382,0,18.97243-4.63349,25.58992-10.58861v-70.36995c0-3.75033,1.98556-5.07507,5.5151-5.07507h15.66368c3.52954,0,5.51354,1.10395,5.51354,5.07507v95.73908c0,4.63038-1.32474,6.17591-5.73433,6.17591Z"/><path class="uuid-d727aeaa-4a42-4606-849a-4f3c50f75f2f" d="M737.58185,256.65326h-15.88136c-3.97112,0-5.29586-1.98711-5.29586-5.73744v-60.00213c0-12.13103-3.30875-20.73564-16.76452-20.73564-8.6015,0-19.19011,4.63349-26.02839,10.58861v70.36995c0,3.75033-1.54553,5.51665-5.29586,5.51665h-16.10215c-3.31186,0-5.29586-1.76632-5.29586-5.29586v-96.17755c0-3.52954,1.54553-5.51665,5.51665-5.51665h14.33583c3.09107,0,5.07507.88316,5.29586,4.19191l.22079,5.73433c10.14703-8.15992,22.94044-12.79341,35.73695-12.79341,24.70676,0,34.85379,15.44289,34.85379,39.48728v64.63251c0,3.75033-1.32474,5.73744-5.29586,5.73744Z"/><path class="uuid-d727aeaa-4a42-4606-849a-4f3c50f75f2f" d="M785.6613,135.54504c-7.27986,0-15.00131-4.85428-15.00131-13.67657,0-8.8254,7.27986-14.11815,15.00131-14.11815,7.50065,0,14.78052,5.07507,14.78052,13.89736,0,8.60461-7.50065,13.89736-14.78052,13.89736ZM793.60353,256.65326h-15.44289c-3.97112,0-5.73433-1.54553-5.73433-5.51665v-96.39834c0-3.75033,2.20479-5.07507,5.73433-5.07507h15.44289c3.52954,0,5.51354,1.10395,5.51354,5.07507v96.39834c0,3.97112-1.76321,5.51665-5.51354,5.51665Z"/><path class="uuid-d727aeaa-4a42-4606-849a-4f3c50f75f2f" d="M939.62996,256.65326h-22.06038c-5.29586,0-7.72145-1.76632-10.58861-5.51665l-47.65031-61.10297h-.44158v61.10297c0,3.97112-1.54242,5.51665-5.29275,5.51665h-17.64769c-3.97112,0-5.51665-1.54553-5.51665-5.51665V109.29586c0-3.75033,1.98711-5.29586,5.51665-5.29586h17.64769c3.52954,0,5.29275,1.32474,5.29275,5.29586v62.42771h.44158l45.4424-63.75246c1.98711-2.64638,4.63349-3.97112,8.16303-3.97112h17.64769c2.20479,0,3.52954,1.32474,3.52954,2.86717,0,.88316-.22079,1.76632-.88316,2.64638l-50.73515,68.16516,58.67739,72.13627c1.10395,1.32163,1.984,2.86717,1.984,3.97112,0,1.76321-1.32163,2.86717-3.52643,2.86717Z"/><path class="uuid-d727aeaa-4a42-4606-849a-4f3c50f75f2f" d="M998.73649,259.29963c-35.95774,0-52.50147-24.26518-52.50147-56.47259,0-31.76583,19.4109-56.03101,53.82622-56.03101,35.95463,0,52.50147,23.8236,52.50147,56.2518,0,31.76583-19.41401,56.2518-53.82622,56.2518ZM999.84045,167.75246c-19.6348,0-26.0315,16.98531-26.0315,34.633,0,18.08927,5.51354,35.95774,25.14834,35.95774,19.4109,0,26.0315-17.2061,26.0315-35.29537s-5.73744-35.29537-25.14834-35.29537Z"/><path class="uuid-d727aeaa-4a42-4606-849a-4f3c50f75f2f" d="M1134.1681,152.53036l-2.42558,15.66368c-.22079,1.984-1.32474,2.86717-3.08796,2.86717h-.88316c-1.76632-.44158-3.97112-.66237-5.95512-.66237-7.50065,0-15.66368,3.97112-21.17722,10.58861v70.14916c0,3.52954-1.54553,5.51665-5.29586,5.51665h-16.10215c-3.52954,0-5.29586-1.76632-5.29586-5.51665v-95.95676c0-4.4127,2.20479-5.51665,5.51665-5.51665h14.11815c3.52643,0,5.51354,1.10395,5.51354,4.19191l.22079,7.05907c6.83828-8.60461,14.33894-14.11815,26.69076-14.11815,1.76632,0,4.19191.44158,6.17902.88316,1.54242.44158,2.20479,1.10084,2.20479,2.86717,0,.66237,0,1.32163-.22079,1.984Z"/><path class="uuid-d727aeaa-4a42-4606-849a-4f3c50f75f2f" d="M1240.70414,256.65326h-15.88136c-3.97112,0-5.29586-1.98711-5.29586-5.73744v-60.00213c0-12.13103-3.30875-20.73564-16.76452-20.73564-8.6015,0-19.19011,4.63349-26.02839,10.58861v70.36995c0,3.75033-1.54553,5.51665-5.29586,5.51665h-16.10215c-3.31186,0-5.29586-1.76632-5.29586-5.29586v-96.17755c0-3.52954,1.54553-5.51665,5.51665-5.51665h14.33583c3.09107,0,5.07507.88316,5.29586,4.19191l.22079,5.73433c10.14703-8.15992,22.94044-12.79341,35.73695-12.79341,24.70676,0,34.85379,15.44289,34.85379,39.48728v64.63251c0,3.75033-1.32474,5.73744-5.29586,5.73744Z"/><path class="uuid-78ee86f7-af8f-4dfa-a6c0-b743473a1bbe" d="M515.8414,367.17597h-10.44556c-2.37894,0-3.43625-.92359-3.43625-3.30564v-36.88444h-37.54681v36.88444c0,2.38205-1.06042,3.30564-3.30564,3.30564h-10.31496c-2.37894,0-3.56685-.92359-3.56685-3.30564v-85.01053c0-2.24833,1.45224-3.17503,3.56685-3.17503h10.31496c2.11461,0,3.30564.79609,3.30564,3.17503v34.5055h37.54681v-34.5055c0-2.24833,1.32163-3.17503,3.43625-3.17503h10.44556c2.11461,0,3.17503.79609,3.17503,3.17503v85.01053c0,2.38205-.9267,3.30564-3.17503,3.30564Z"/><path class="uuid-78ee86f7-af8f-4dfa-a6c0-b743473a1bbe" d="M546.39134,294.59189c-4.36294,0-8.99332-2.90759-8.99332-8.19723,0-5.28653,4.36605-8.46156,8.99332-8.46156,4.49355,0,8.85649,3.04131,8.85649,8.33095,0,5.15592-4.49355,8.32784-8.85649,8.32784ZM551.14921,367.17597h-9.25454c-2.37894,0-3.43625-.92359-3.43625-3.30564v-57.77557c0-2.24833,1.32163-3.04131,3.43625-3.04131h9.25454c2.11461,0,3.30564.66237,3.30564,3.04131v57.77557c0,2.38205-1.05731,3.30564-3.30564,3.30564Z"/><path class="uuid-78ee86f7-af8f-4dfa-a6c0-b743473a1bbe" d="M589.10029,368.76193c-6.8756,0-14.41357-1.98089-20.36247-4.62727-1.19102-.52865-1.58596-1.32163-1.58596-2.11461,0-.39493.13061-.79298.26433-1.18791l2.11461-6.74499c.39804-1.32163,1.05731-1.85029,1.85029-1.85029.39804,0,.79609,0,1.45535.26433,5.81829,2.37894,12.03152,4.09862,16.65879,4.09862,5.81985,0,9.78475-2.64327,9.78475-7.00621,0-3.70368-2.51266-5.68458-7.93446-7.8023l-10.44245-3.9649c-7.53797-2.77698-13.62059-8.59528-13.62059-17.58549,0-12.95511,12.16524-18.90712,23.93244-18.90712,6.3485,0,12.56173,1.06042,19.17301,3.96801,1.05731.52865,1.58596,1.05731,1.58596,1.85029,0,.39804-.13372.79298-.26433,1.32163l-2.24833,7.13993c-.26433.9267-.9267,1.45535-1.85029,1.45535-.39804,0-.9267-.13372-1.32163-.26433-4.36294-1.71968-10.05063-3.17503-14.28141-3.17503-5.55397,0-8.33095,3.04131-8.33095,6.08262,0,2.90759,1.45535,4.76099,6.48067,6.74188l11.89936,4.89471c7.00621,2.90759,12.56018,8.32784,12.56018,16.92312,0,13.88181-12.03152,20.48997-25.51684,20.48997Z"/><path class="uuid-78ee86f7-af8f-4dfa-a6c0-b743473a1bbe" d="M664.19858,365.72372c-4.09862,1.71657-9.51887,3.0382-14.8054,3.0382-6.74499,0-12.56018-1.71657-15.86581-5.55086-4.09862-4.62727-4.23233-10.04752-4.23233-19.7001v-29.4833h-6.21323c-2.51266,0-2.90759-.52865-2.90759-3.30564v-5.02531c0-1.58596.79298-2.64327,2.37894-2.64327h6.74188v-14.41046c0-2.24833,1.19102-2.90759,3.30564-3.17192l9.51887-1.19102h.66237c1.71968,0,2.51266.9267,2.51266,2.90759v15.86581h14.93912c1.58596,0,2.51266.52865,2.51266,2.24833v6.21323c0,1.58596-1.05731,2.51266-2.64638,2.51266h-14.8054v30.27628c0,3.96801.26433,6.8756,1.71657,8.99021,1.19102,1.71968,3.04131,2.77698,6.21634,2.77698,3.30564,0,6.07951-.79298,8.46156-1.58596.52865-.13372.92359-.26433,1.32163-.26433.92359,0,1.45224.52865,1.71968,1.58596l1.32163,6.61127c.13061.39493.13061.52865.13061.79298,0,1.32163-.65926,1.984-1.984,2.51266Z"/><path class="uuid-78ee86f7-af8f-4dfa-a6c0-b743473a1bbe" d="M704.13054,368.76193c-21.55039,0-31.46419-14.54107-31.46419-33.84624,0-19.03773,11.63348-33.58191,32.25717-33.58191,21.55039,0,31.4673,14.27985,31.4673,33.71563,0,19.03773-11.63348,33.71252-32.26028,33.71252ZM704.79292,313.89395c-11.7672,0-15.60149,10.18124-15.60149,20.75741,0,10.84361,3.30564,21.55039,15.07283,21.55039,11.63348,0,15.60149-10.31185,15.60149-21.15234s-3.43936-21.15545-15.07283-21.15545Z"/><path class="uuid-78ee86f7-af8f-4dfa-a6c0-b743473a1bbe" d="M785.31612,304.77313l-1.45224,9.38515c-.13372,1.19102-.79609,1.71968-1.8534,1.71968h-.52865c-1.05731-.26433-2.37894-.39493-3.56996-.39493-4.49355,0-9.38515,2.37894-12.69078,6.34384v42.04347c0,2.11772-.9267,3.30564-3.17503,3.30564h-9.64947c-2.11461,0-3.17503-1.05731-3.17503-3.30564v-57.51124c0-2.64327,1.32474-3.30564,3.30564-3.30564h8.46156c2.11772,0,3.30564.66237,3.30564,2.51266l.13372,4.22923c4.09862-5.15592,8.59217-8.46156,15.99642-8.46156,1.05731,0,2.51266.26744,3.70368.53176.92359.26433,1.32163.65926,1.32163,1.71657,0,.39804,0,.79298-.13372,1.19102Z"/><path class="uuid-78ee86f7-af8f-4dfa-a6c0-b743473a1bbe" d="M852.48305,306.22848l-26.04394,68.48546c-5.9489,15.7321-13.35316,21.28606-29.21897,21.28606-2.51266,0-4.76099-.13372-7.00932-.66237-1.45224-.26433-1.98089-1.05731-1.98089-2.24833,0-.39493.13061-.65926.13061-1.18791l.9267-6.8756c.26433-1.71968.92359-2.37894,2.37894-2.37894h.79298c1.58596.13061,3.17503.39493,4.49666.39493,8.19723,0,11.63348-2.90759,14.27674-9.12082l2.51266-5.95201-24.06305-62.00479c-.13061-.39804-.26433-.66237-.26433-1.06042,0-1.05731.79298-1.85029,1.984-1.85029h12.69389c1.85029,0,2.77387.9267,3.30253,2.24833l14.6779,43.76315,13.88181-42.97017c.65926-2.11461,1.71968-3.04131,3.9649-3.04131h10.70989c1.32163,0,2.11461.79298,2.11461,1.85029,0,.39804-.13061.79298-.26433,1.32474Z"/><path class="uuid-78ee86f7-af8f-4dfa-a6c0-b743473a1bbe" d="M920.44918,368.76193c-7.93291,0-17.32116-1.45224-25.25407-4.22923-1.71968-.66237-2.24833-1.45535-2.24833-2.51266,0-.52865,0-1.05731.26433-1.71968l2.77698-8.59217c.39804-1.32163,1.05731-2.11461,2.37894-2.11461.52865,0,1.19102.13061,1.984.39493,6.21323,2.24833,13.08883,3.96801,19.7001,3.96801,7.13993,0,15.20344-3.43936,15.20344-11.7672,0-6.08262-4.49355-9.38826-9.64947-11.90091l-17.18745-8.59217c-9.38826-4.62727-15.60149-12.42957-15.60149-22.74141,0-16.13014,15.86581-24.98663,30.5406-24.98663,8.72589,0,15.99642,1.32163,23.665,4.62727,1.71968.79298,2.64327,1.58596,2.64327,2.64327,0,.52865-.13061,1.05731-.39493,1.71968l-3.17192,8.06352c-.53176,1.45535-1.32474,1.984-2.24833,1.984-.66237,0-1.32163-.26433-2.11461-.52865-5.42336-2.24833-12.16524-4.09862-17.45488-4.09862-6.21323,0-13.35316,2.64327-13.35316,10.04752,0,5.42025,5.02531,8.59528,9.38826,10.70989l14.67479,7.13993c10.44556,5.0222,17.58549,12.03152,17.58549,24.19365,0,18.37847-14.93912,28.29227-32.12656,28.29227Z"/><path class="uuid-78ee86f7-af8f-4dfa-a6c0-b743473a1bbe" d="M1017.8955,338.74998h-38.73784c1.05731,10.18124,8.46156,17.18745,18.90712,17.18745,5.55086,0,11.36915-1.32163,16.26075-3.17192.52865-.13061.9267-.39493,1.45535-.39493.92359,0,1.58596.52865,1.85029,1.58596l1.85029,6.74188c.13372.66237.26433,1.19102.26433,1.58596,0,.9267-.52865,1.58596-2.11461,2.24833-6.47756,2.90759-15.33716,4.22923-22.21276,4.22923-20.75741,0-33.05015-13.21944-33.05015-33.84624,0-19.83071,13.08883-33.58191,32.78582-33.58191,8.06662,0,14.6779,3.04131,19.30517,7.93291,6.07951,6.34695,7.79919,14.6779,7.79919,23.66811v1.98089c0,3.17503-1.05731,3.83429-4.36294,3.83429ZM1006.52635,326.85217c-.26433-6.8756-4.23233-13.22255-12.29585-13.22255-8.59528,0-13.7512,6.8756-14.80851,14.6779h27.10436v-1.45535Z"/><path class="uuid-78ee86f7-af8f-4dfa-a6c0-b743473a1bbe" d="M1070.39076,304.77313l-1.45224,9.38515c-.13372,1.19102-.79609,1.71968-1.8534,1.71968h-.52865c-1.05731-.26433-2.37894-.39493-3.56996-.39493-4.49355,0-9.38515,2.37894-12.69078,6.34384v42.04347c0,2.11772-.9267,3.30564-3.17503,3.30564h-9.64947c-2.11461,0-3.17503-1.05731-3.17503-3.30564v-57.51124c0-2.64327,1.32474-3.30564,3.30564-3.30564h8.46156c2.11772,0,3.30564.66237,3.30564,2.51266l.13372,4.22923c4.09862-5.15592,8.59217-8.46156,15.99642-8.46156,1.05731,0,2.51266.26744,3.70368.53176.92359.26433,1.32163.65926,1.32163,1.71657,0,.39804,0,.79298-.13372,1.19102Z"/><path class="uuid-78ee86f7-af8f-4dfa-a6c0-b743473a1bbe" d="M1133.85401,306.22848l-23.13635,58.43483c-.79298,1.984-1.8534,2.51266-3.83429,2.51266h-6.8756c-1.984,0-3.30564-.52865-3.96801-2.37894l-22.7383-58.96659c-.13372-.39804-.26433-.79298-.26433-1.19102,0-1.05731.65926-1.58596,2.37894-1.58596h11.63348c2.24833,0,3.30564.9267,3.83429,2.64327l10.04752,30.80804c1.32474,3.9649,2.51266,8.32784,3.30564,11.23543h.13372c.65926-2.50955,1.984-7.13682,3.17192-10.8405l10.31185-31.06926c.66237-2.24833,1.71968-2.77698,4.09862-2.77698h9.52198c1.71657,0,2.64327.66237,2.64327,1.85029,0,.39804-.13372.79298-.26433,1.32474Z"/><path class="uuid-78ee86f7-af8f-4dfa-a6c0-b743473a1bbe" d="M1192.29817,338.74998h-38.73784c1.05731,10.18124,8.46156,17.18745,18.90712,17.18745,5.55086,0,11.36915-1.32163,16.26075-3.17192.52865-.13061.9267-.39493,1.45535-.39493.92359,0,1.58596.52865,1.85029,1.58596l1.85029,6.74188c.13372.66237.26433,1.19102.26433,1.58596,0,.9267-.52865,1.58596-2.11461,2.24833-6.47756,2.90759-15.33716,4.22923-22.21276,4.22923-20.75741,0-33.05015-13.21944-33.05015-33.84624,0-19.83071,13.08883-33.58191,32.78582-33.58191,8.06662,0,14.6779,3.04131,19.30517,7.93291,6.07951,6.34695,7.79919,14.6779,7.79919,23.66811v1.98089c0,3.17503-1.05731,3.83429-4.36294,3.83429ZM1180.92902,326.85217c-.26433-6.8756-4.23233-13.22255-12.29585-13.22255-8.59528,0-13.7512,6.8756-14.80851,14.6779h27.10436v-1.45535Z"/><path class="uuid-78ee86f7-af8f-4dfa-a6c0-b743473a1bbe" d="M1244.79343,304.77313l-1.45224,9.38515c-.13372,1.19102-.79609,1.71968-1.8534,1.71968h-.52865c-1.05731-.26433-2.37894-.39493-3.56996-.39493-4.49355,0-9.38515,2.37894-12.69078,6.34384v42.04347c0,2.11772-.9267,3.30564-3.17192,3.30564h-9.65258c-2.11461,0-3.17503-1.05731-3.17503-3.30564v-57.51124c0-2.64327,1.32474-3.30564,3.30564-3.30564h8.46156c2.11772,0,3.30564.66237,3.30564,2.51266l.13372,4.22923c4.09862-5.15592,8.59217-8.46156,15.99642-8.46156,1.05731,0,2.51266.26744,3.70368.53176.92359.26433,1.32163.65926,1.32163,1.71657,0,.39804,0,.79298-.13372,1.19102Z"/></g></g></svg>