<svg xmlns="http://www.w3.org/2000/svg" xmlns:xlink="http://www.w3.org/1999/xlink" viewBox="164.6 374.55 750.7 330.93"><defs><linearGradient id="linear-gradient" x1="238.9" y1="699.2" x2="238.9" y2="524.4" gradientUnits="userSpaceOnUse"><stop offset="0" stop-color="#00459d"/><stop offset=".2" stop-color="#00599e"/><stop offset=".5" stop-color="#0081a2"/><stop offset=".8" stop-color="#0099a5"/><stop offset="1" stop-color="#00a3a6"/></linearGradient><linearGradient id="linear-gradient-2" x1="372.8" x2="372.8" xlink:href="#linear-gradient"/><style>.cls-3{fill:#010f2e}.cls-4{fill:#808285}</style></defs><g id="Layer_1"><path class="cls-3" d="M229.3 647.1c6.3 3.9 31.1 20.3 34.9 26.8 2 3.4 5.8 16.1 7.7 24.8.9 4.2-2.3 7.6-6.3 6.6l-19.8-7.9c-20.1-9.4-23.1-8.6-24.8-21.3-4.1-31.7-1.1-34.7 8.4-28.8zM196.5 596.9c-.9-6-4.9-29.8-8.5-34.5-1.9-2.4-10.1-8.6-15.9-12.3-2.8-1.8-6.4 0-6.9 3.4l-.6 17.8c.4 18.4-1.2 20.6 7.8 25.1 22.2 11.1 25.4 9.4 24.1.4zM382.4 647.1c-6.3 3.9-31.1 20.3-34.9 26.8-2 3.4-5.8 16.1-7.7 24.8-.9 4.2 2.3 7.6 6.3 6.6l19.8-7.9c20.1-9.4 23.1-8.6 24.8-21.3 4.1-31.7 1.1-34.7-8.4-28.8zM292.8 553.5s-44.8-26.4-89.5-41.6V523s63.3 20.4 89.5 32.3v-1.9z"/><path d="M177 542.6c7.4 5.2 15.4 11.3 17.4 14 5.2 6.7 11.5 39 10.9 48.7-.7 11.8-7.2 12.2-28.6 2.9l-.2 39.5c2.9 1.3 13.5 6.1 23.7 10.4 3.1 1.3 6.2 2.6 9 3.7h.2c-1.9-27 1.2-33.8 13.9-29.1 10.9 4 44.1 27.1 49.6 36.5 1.8 3.1 4.8 12.1 7.4 21.6l20.9 8.5V568.2c-40.6-16.6-82.4-30.4-124.2-43.8v18.2z" style="fill:url(#linear-gradient)"/><path class="cls-3" d="M408.4 511.9c-44.8 15.1-89.5 41.6-89.5 41.6v1.9c26.3-12 89.5-32.3 89.5-32.3V512z"/><path d="M406.3 605.2c-.6-9.7 5.7-41.9 10.9-48.7 2-2.6 10-8.8 17.4-14v-18.2c-41.9 13.4-83.7 27.1-124.3 43.8v131.1l20.9-8.5c2.7-9.5 5.6-18.6 7.4-21.6 5.5-9.4 38.7-32.5 49.6-36.5 12.7-4.7 15.8 2 13.9 29.2h.2c2.8-1.2 5.8-2.4 9-3.7 10.2-4.3 20.8-9.1 23.7-10.4l-.2-39.5c-21.5 9.3-28 8.9-28.6-2.9z" style="fill:url(#linear-gradient-2)"/><path class="cls-3" d="M415.2 596.9c.9-6 4.9-29.8 8.5-34.5 1.9-2.4 10.1-8.6 15.9-12.3 2.8-1.8 6.4 0 6.9 3.4l.6 17.8c-.4 18.4 1.2 20.6-7.8 25.1-22.2 11.1-25.4 9.4-24.1.4z"/><g><path class="cls-3" d="M307.5 376.5c-.3-2.6-4.1-2.6-4.4 0l-4.7 40.3 14.7 8.1-5.7-48.4zM314.4 434.5l-16.9-9.2-2.8 24.5 22.9 12.3-3.2-27.6z"/><path class="cls-3" d="M388.9 446.6c-3.3 1.3-25.8 9.1-31.7 17.8-15.4 22.7-11.9 22.6-30.9 11.7l-7.5-3.9-25.2-13.8-1.6 14.1-6.9 3.6c-18.5 10.2-15.5 11-30.9-11.7-5.9-8.6-28-17.9-31.3-19.1-5.7-2.2-3.8 33.1-3.7 39.3.2 8.7 4.7 9.2 26.2 19.7-.9 4.6-1.5 9.1-2 13.6 21.2 8.1 49.7 24.2 59.8 30.1l2.4 1.4 2.4-1.4c10.1-5.8 38.7-21.9 59.8-30.1-.5-4.5-1.1-9-2-13.6 21.5-10.5 26-11 26.2-19.7.2-6.2 2.4-40.1-3.3-37.9zm-155.3 20.6c.4 7.3-.6 13.2 2.4 16.2 5.1 5 12.3 7.9 12.3 7.9-.2 2.4-2 4.8-2 4.8-8.8-4-14.3-7.4-16.8-9.1-1.1-.7-1.9-1.9-2.2-3.2-2.3-10.5-.6-27.5-.6-27.5 9.1 3.8 16.1 7.6 18.7 10.9 3.4 4.3 4.7 6.5 4.7 6.5-1.8 2.4-16.7-6.6-16.7-6.6zm150.5 16.6c-.3 1.3-1 2.5-2.2 3.2-2.5 1.7-8 5.1-16.8 9.1 0 0-1.7-2.3-2-4.8 0 0 7.2-2.8 12.3-7.9 3.1-3 2-8.9 2.4-16.2 0 0-14.9 9-16.7 6.6 0 0 1.3-2.2 4.7-6.5 2.6-3.3 9.6-7.1 18.7-10.9 0 0 1.7 16.9-.6 27.5z"/></g><g><path class="cls-3" d="m560.4 520.5-22.2 41.1V590c0 1.6-.9 2.5-2.5 2.5h-9.1c-1.6 0-2.5-.9-2.5-2.7v-27.6l-23.4-41.7c-.2-.4-.3-.8-.3-1.1 0-.9.8-1.5 1.9-1.5h9.8c1.9 0 3.2.6 4 2l15.5 30.5h.2l15.3-30.3c.9-1.7 1.7-2.3 3.8-2.3h7.8c1.3 0 2 .4 2 1.3s-.1.9-.4 1.4zM606.3 592.4h-6.9c-1.4 0-2.5-.8-2.6-2.2v-2.7c-5.1 4-11 6.1-17.3 6.1-12.1 0-17-7.7-17-19.3v-31.8c0-1.8 1.1-2.5 2.8-2.5h7.5c1.7 0 2.7.5 2.7 2.5V572c0 5.9 1.5 10 8 10s9.3-2.3 12.5-5.2v-34.4c0-1.8 1-2.5 2.7-2.5h7.7c1.7 0 2.7.5 2.7 2.5v46.8c0 2.3-.6 3-2.8 3zM666.8 592.4H659c-1.9 0-2.6-1-2.6-2.8v-29.3c0-5.9-1.6-10.1-8.2-10.1s-9.4 2.3-12.7 5.2v34.4c0 1.8-.8 2.7-2.6 2.7H625c-1.6 0-2.6-.9-2.6-2.6v-47c0-1.7.8-2.7 2.7-2.7h7c1.5 0 2.5.4 2.6 2v2.8c5.1-4 11.3-6.3 17.6-6.3 12.1 0 17 7.5 17 19.3v31.6c0 1.8-.6 2.8-2.6 2.8zM690.4 533.2c-3.6 0-7.3-2.4-7.3-6.7s3.6-6.9 7.3-6.9 7.2 2.5 7.2 6.8-3.7 6.8-7.2 6.8zm3.8 59.2h-7.5c-1.9 0-2.8-.8-2.8-2.7v-47.1c0-1.8 1.1-2.5 2.8-2.5h7.5c1.7 0 2.7.5 2.7 2.5v47.1c0 1.9-.9 2.7-2.7 2.7zM765.6 592.4h-10.8c-2.6 0-3.8-.9-5.2-2.7l-23.3-29.9h-.2v29.9c0 1.9-.8 2.7-2.6 2.7h-8.6c-1.9 0-2.7-.8-2.7-2.7v-69.3c0-1.8 1-2.6 2.7-2.6h8.6c1.7 0 2.6.6 2.6 2.6v30.5h.2l22.2-31.2c1-1.3 2.3-1.9 4-1.9h8.6c1.1 0 1.7.6 1.7 1.4s-.1.9-.4 1.3l-24.8 33.3 28.7 35.3c.5.6 1 1.4 1 1.9 0 .9-.6 1.4-1.7 1.4zM794.5 593.7c-17.6 0-25.7-11.9-25.7-27.6s9.5-27.4 26.3-27.4 25.7 11.6 25.7 27.5-9.5 27.5-26.3 27.5zm.6-44.8c-9.6 0-12.7 8.3-12.7 16.9s2.7 17.6 12.3 17.6 12.7-8.4 12.7-17.3-2.8-17.3-12.3-17.3zM860.7 541.5l-1.2 7.7c-.1 1-.6 1.4-1.5 1.4h-.4c-.9-.2-1.9-.3-2.9-.3-3.7 0-7.7 1.9-10.4 5.2v34.3c0 1.7-.8 2.7-2.6 2.7h-7.9c-1.7 0-2.6-.9-2.6-2.7v-46.9c0-2.2 1.1-2.7 2.7-2.7h6.9c1.7 0 2.7.5 2.7 2v3.5c3.5-4.2 7.1-6.9 13.2-6.9s2 .2 3 .4c.8.2 1.1.5 1.1 1.4s0 .6-.1 1zM912.8 592.4H905c-1.9 0-2.6-1-2.6-2.8v-29.3c0-5.9-1.6-10.1-8.2-10.1s-9.4 2.3-12.7 5.2v34.4c0 1.8-.8 2.7-2.6 2.7H871c-1.6 0-2.6-.9-2.6-2.6v-47c0-1.7.8-2.7 2.7-2.7h7c1.5 0 2.5.4 2.6 2v2.8c5.1-4 11.3-6.3 17.6-6.3 12.1 0 17 7.5 17 19.3v31.6c0 1.8-.6 2.8-2.6 2.8z"/><g><path class="cls-4" d="M558.5 646.4h-5.1c-1.2 0-1.7-.5-1.7-1.6v-18h-18.4v18c0 1.2-.5 1.6-1.6 1.6h-5c-1.2 0-1.7-.5-1.7-1.6v-41.6c0-1.1.7-1.6 1.7-1.6h5c1 0 1.6.4 1.6 1.6v16.9h18.4v-16.9c0-1.1.6-1.6 1.7-1.6h5.1c1 0 1.6.4 1.6 1.6v41.6c0 1.2-.5 1.6-1.6 1.6zM573.4 610.9c-2.1 0-4.4-1.4-4.4-4s2.1-4.1 4.4-4.1 4.3 1.5 4.3 4.1-2.2 4.1-4.3 4.1zm2.3 35.5h-4.5c-1.2 0-1.7-.5-1.7-1.6v-28.2c0-1.1.6-1.5 1.7-1.5h4.5c1 0 1.6.3 1.6 1.5v28.2c0 1.2-.5 1.6-1.6 1.6zM594.3 647.2c-3.4 0-7-1-10-2.3-.6-.3-.8-.6-.8-1s0-.4.1-.6l1-3.3c.2-.6.5-.9.9-.9s.4 0 .7.1c2.8 1.2 5.9 2 8.1 2s4.8-1.3 4.8-3.4-1.2-2.8-3.9-3.8l-5.1-1.9c-3.7-1.4-6.7-4.2-6.7-8.6 0-6.3 5.9-9.2 11.7-9.2s6.1.5 9.4 1.9c.5.3.8.5.8.9s0 .4-.1.6l-1.1 3.5c-.1.5-.5.7-.9.7s-.5 0-.6-.1c-2.1-.8-4.9-1.6-7-1.6s-4.1 1.5-4.1 3 .7 2.3 3.2 3.3l5.8 2.4c3.4 1.4 6.1 4.1 6.1 8.3 0 6.8-5.9 10-12.5 10zM631 645.7c-2 .8-4.7 1.5-7.2 1.5s-6.1-.8-7.8-2.7c-2-2.3-2.1-4.9-2.1-9.6v-14.4h-3c-1.2 0-1.4-.3-1.4-1.6v-2.5c0-.8.4-1.3 1.2-1.3h3.3v-7c0-1.1.6-1.4 1.6-1.6l4.7-.6h.3c.8 0 1.2.5 1.2 1.4v7.8h7.3c.8 0 1.2.3 1.2 1.1v3c0 .8-.5 1.2-1.3 1.2h-7.2v14.8c0 1.9.1 3.4.8 4.4.6.8 1.5 1.4 3 1.4s3-.4 4.1-.8c.3 0 .5-.1.6-.1.5 0 .7.3.8.8l.6 3.2v.4c0 .6-.3 1-1 1.2zM650.5 647.2c-10.5 0-15.4-7.1-15.4-16.5s5.7-16.4 15.8-16.4 15.4 7 15.4 16.5-5.7 16.5-15.8 16.5zm.3-26.8c-5.8 0-7.6 5-7.6 10.1s1.6 10.5 7.4 10.5 7.6-5 7.6-10.3-1.7-10.3-7.4-10.3zM690.2 615.9l-.7 4.6c0 .6-.4.8-.9.8h-.3c-.5-.1-1.2-.2-1.7-.2-2.2 0-4.6 1.2-6.2 3.1v20.6c0 1-.5 1.6-1.6 1.6h-4.7c-1 0-1.6-.5-1.6-1.6v-28.1c0-1.3.6-1.6 1.6-1.6h4.1c1 0 1.6.3 1.6 1.2v2.1c2.1-2.5 4.3-4.1 7.9-4.1s1.2.1 1.8.3c.5.1.6.3.6.8v.6zM723 616.6l-12.7 33.5c-2.9 7.7-6.5 10.4-14.3 10.4s-2.3 0-3.4-.3c-.7-.1-1-.5-1-1.1v-.6l.5-3.4c.1-.8.5-1.2 1.2-1.2h.4c.8 0 1.6.2 2.2.2 4 0 5.7-1.4 7-4.5l1.2-2.9-11.8-30.3c0-.2-.1-.3-.1-.5 0-.5.4-.9 1-.9h6.2c.9 0 1.4.5 1.6 1.1l7.2 21.4 6.8-21c.3-1 .8-1.5 1.9-1.5h5.2c.6 0 1 .4 1 .9s0 .4-.1.6zM756.2 647.2c-3.9 0-8.5-.7-12.3-2.1-.8-.3-1.1-.7-1.1-1.2s0-.5.1-.8l1.4-4.2c.2-.6.5-1 1.2-1s.6 0 1 .2c3 1.1 6.4 1.9 9.6 1.9s7.4-1.7 7.4-5.8-2.2-4.6-4.7-5.8l-8.4-4.2c-4.6-2.3-7.6-6.1-7.6-11.1 0-7.9 7.8-12.2 14.9-12.2s7.8.6 11.6 2.3c.8.4 1.3.8 1.3 1.3s0 .5-.2.8l-1.6 3.9c-.3.7-.6 1-1.1 1s-.6-.1-1-.3c-2.7-1.1-5.9-2-8.5-2s-6.5 1.3-6.5 4.9 2.5 4.2 4.6 5.2l7.2 3.5c5.1 2.5 8.6 5.9 8.6 11.8 0 9-7.3 13.8-15.7 13.8zM803.9 632.5H785c.5 5 4.1 8.4 9.2 8.4s5.6-.6 7.9-1.6c.3 0 .5-.2.7-.2.5 0 .8.3.9.8l.9 3.3c0 .3.1.6.1.8 0 .5-.3.8-1 1.1-3.2 1.4-7.5 2.1-10.9 2.1-10.1 0-16.2-6.5-16.2-16.5s6.4-16.4 16-16.4 7.2 1.5 9.4 3.9c3 3.1 3.8 7.2 3.8 11.6v1c0 1.6-.5 1.9-2.1 1.9zm-5.6-5.8c-.1-3.4-2.1-6.5-6-6.5s-6.7 3.4-7.2 7.2h13.2v-.7zM829.5 615.9l-.7 4.6c0 .6-.4.8-.9.8h-.3c-.5-.1-1.2-.2-1.7-.2-2.2 0-4.6 1.2-6.2 3.1v20.6c0 1-.5 1.6-1.6 1.6h-4.7c-1 0-1.6-.5-1.6-1.6v-28.1c0-1.3.6-1.6 1.6-1.6h4.1c1 0 1.6.3 1.6 1.2v2.1c2.1-2.5 4.3-4.1 7.9-4.1s1.2.1 1.8.3c.5.1.6.3.6.8v.6zM860.6 616.6l-11.3 28.6c-.4 1-.9 1.2-1.9 1.2H844c-1 0-1.6-.3-1.9-1.2L831 616.4c0-.2-.1-.4-.1-.6 0-.5.3-.8 1.2-.8h5.7c1.1 0 1.6.5 1.9 1.3l4.9 15.1c.6 1.9 1.2 4.1 1.6 5.5.3-1.2 1-3.5 1.6-5.3l5-15.2c.3-1.1.8-1.4 2-1.4h4.7c.8 0 1.3.3 1.3.9s0 .4-.1.6zM889.1 632.5h-18.9c.5 5 4.1 8.4 9.2 8.4s5.6-.6 7.9-1.6c.3 0 .5-.2.7-.2.5 0 .8.3.9.8l.9 3.3c0 .3.1.6.1.8 0 .5-.3.8-1 1.1-3.2 1.4-7.5 2.1-10.9 2.1-10.1 0-16.2-6.5-16.2-16.5s6.4-16.4 16-16.4 7.2 1.5 9.4 3.9c3 3.1 3.8 7.2 3.8 11.6v1c0 1.6-.5 1.9-2.1 1.9zm-5.5-5.8c-.1-3.4-2.1-6.5-6-6.5s-6.7 3.4-7.2 7.2h13.2v-.7zM914.8 615.9l-.7 4.6c0 .6-.4.8-.9.8h-.3c-.5-.1-1.2-.2-1.7-.2-2.2 0-4.6 1.2-6.2 3.1v20.6c0 1-.5 1.6-1.6 1.6h-4.7c-1 0-1.6-.5-1.6-1.6v-28.1c0-1.3.6-1.6 1.6-1.6h4.1c1 0 1.6.3 1.6 1.2v2.1c2.1-2.5 4.3-4.1 7.9-4.1s1.2.1 1.8.3c.5.1.6.3.6.8v.6z"/></g></g></g></svg>